STARTFONT 2.1
FONT -Slazav-Fixed-Medium-R-Normal--17-170-75-75-C-80-ISO10646-1
SIZE 17 75 75
FONTBOUNDINGBOX 9 17 0 -2
STARTPROPERTIES 19
COPYRIGHT "(c) Copyright 2000-2003 /efont/ The Electronic Font Open Laboratory."
FOUNDRY "Slazav"
FAMILY_NAME "Fixed"
WEIGHT_NAME "Medium"
SLANT "R"
SETWIDTH_NAME "Normal"
ADD_STYLE_NAME ""
PIXEL_SIZE 17
POINT_SIZE 170
RESOLUTION_X 75
RESOLUTION_Y 75
AVERAGE_WIDTH 90
CHARSET_REGISTRY "ISO10646"
CHARSET_ENCODING "1"
_MULE_BASELINE_OFFSET -3
FONT_ASCENT 14
FONT_DESCENT 2
DEFAULT_CHAR 32
_XMBDFED_INFO "Edited with xmbdfed 4.7."
ENDPROPERTIES
CHARS 3979
STARTCHAR U+0000
ENCODING 0
SWIDTH 508 0
DWIDTH 9 0
BBX 9 17 0 -2
BITMAP
0000
000D
D500
000C
C300
000C
C300
000C
C300
000C
C300
000C
C300
000D
D500
0000
000E
ENDCHAR
STARTCHAR U+0020
ENCODING 32
SWIDTH 508 0
DWIDTH 9 0
BBX 9 17 0 -2
BITMAP
0000
0000
0000
0000
0000
0000
0000
0000
0000
0000
0000
0000
0000
0000
0000
0000
000E
ENDCHAR
STARTCHAR U+0021
ENCODING 33
SWIDTH 508 0
DWIDTH 9 0
BBX 9 17 0 -2
BITMAP
0000
0000
0000
0000
0001
1801
1801
1801
1801
1801
1801
1800
0001
1801
1800
0000
000E
ENDCHAR
STARTCHAR U+0022
ENCODING 34
SWIDTH 508 0
DWIDTH 9 0
BBX 9 17 0 -2
BITMAP
0000
0000
0006
6C06
6C06
6C06
6C00
0000
0000
0000
0000
0000
0000
0000
0000
0000
000E
ENDCHAR
STARTCHAR U+0023
ENCODING 35
SWIDTH 508 0
DWIDTH 9 0
BBX 9 17 0 -2
BITMAP
0000
0000
0000
0000
0003
3603
3603
360F
FE06
6C06
6C0F
FE0D
D80D
D80D
D800
0000
000E
ENDCHAR
STARTCHAR U+0024
ENCODING 36
SWIDTH 508 0
DWIDTH 9 0
BBX 9 17 0 -2
BITMAP
0000
0000
0000
0000
0001
1807
7E0D
DB0D
D807
7801
1E01
1B0D
DB07
7E01
1800
0000
000E
ENDCHAR
STARTCHAR U+0025
ENCODING 37
SWIDTH 508 0
DWIDTH 9 0
BBX 9 17 0 -2
BITMAP
0000
0000
0000
0000
0007
730D
DA0D
DA07
7401
1801
1803
3606
6B06
6B0C
CE00
0000
000E
ENDCHAR
STARTCHAR U+0026
ENCODING 38
SWIDTH 508 0
DWIDTH 9 0
BBX 9 17 0 -2
BITMAP
0000
0000
0000
0000
0003
3C06
6606
6606
6603
3C07
7B0C
CD0C
C60C
CE07
7B00
0000
000E
ENDCHAR
STARTCHAR U+0027
ENCODING 39
SWIDTH 508 0
DWIDTH 9 0
BBX 9 17 0 -2
BITMAP
0000
0000
0000
1800
1800
1800
3000
0000
0000
0000
0000
0000
0000
0000
0000
0000
0000
ENDCHAR
STARTCHAR U+0028
ENCODING 40
SWIDTH 508 0
DWIDTH 9 0
BBX 9 17 0 -2
BITMAP
0000
0000
0000
0000
0C01
1801
1803
3003
3003
3003
3003
3003
3001
1801
1800
0C00
000E
ENDCHAR
STARTCHAR U+0029
ENCODING 41
SWIDTH 508 0
DWIDTH 9 0
BBX 9 17 0 -2
BITMAP
0000
0000
0000
0006
6003
3003
3001
1801
1801
1801
1801
1801
1803
3003
3006
6000
000E
ENDCHAR
STARTCHAR U+002A
ENCODING 42
SWIDTH 508 0
DWIDTH 9 0
BBX 9 17 0 -2
BITMAP
0000
0000
0000
0000
0000
0000
0001
180D
DB06
6A03
3C06
6A0D
DB01
1800
0000
0000
000E
ENDCHAR
STARTCHAR U+002B
ENCODING 43
SWIDTH 508 0
DWIDTH 9 0
BBX 9 17 0 -2
BITMAP
0000
0000
0000
0000
0000
0000
0001
1801
1801
180F
FF01
1801
1801
1800
0000
0000
000E
ENDCHAR
STARTCHAR U+002C
ENCODING 44
SWIDTH 508 0
DWIDTH 9 0
BBX 9 17 0 -2
BITMAP
0000
0000
0000
0000
0000
0000
0000
0000
0000
0000
0000
0000
0003
3801
1801
1803
300E
ENDCHAR
STARTCHAR U+002D
ENCODING 45
SWIDTH 508 0
DWIDTH 9 0
BBX 9 17 0 -2
BITMAP
0000
0000
0000
0000
0000
0000
0000
0000
0000
000F
FE00
0000
0000
0000
0000
0000
000E
ENDCHAR
STARTCHAR U+002E
ENCODING 46
SWIDTH 508 0
DWIDTH 9 0
BBX 9 17 0 -2
BITMAP
0000
0000
0000
0000
0000
0000
0000
0000
0000
0000
0000
0000
0003
3803
3800
0000
000E
ENDCHAR
STARTCHAR U+002F
ENCODING 47
SWIDTH 508 0
DWIDTH 9 0
BBX 9 17 0 -2
BITMAP
0000
0000
0000
0000
0000
0600
0600
0C01
1801
1803
3003
3006
600C
C00C
C000
0000
000E
ENDCHAR
STARTCHAR U+0030
ENCODING 48
SWIDTH 508 0
DWIDTH 9 0
BBX 9 17 0 -2
BITMAP
0000
0000
0000
0000
0000
3800
6C00
C600
C600
D600
D600
C600
C600
6C00
3800
0000
0000
ENDCHAR
STARTCHAR U+0031
ENCODING 49
SWIDTH 508 0
DWIDTH 9 0
BBX 9 17 0 -2
BITMAP
0000
0000
0000
0000
0000
1800
3800
7800
1800
1800
1800
1800
1800
1800
7E00
0000
0000
ENDCHAR
STARTCHAR U+0032
ENCODING 50
SWIDTH 508 0
DWIDTH 9 0
BBX 9 17 0 -2
BITMAP
0000
0000
0000
0000
0007
7C0C
C60C
C600
0601
1C03
3006
600C
C00C
C00F
FE00
0000
000E
ENDCHAR
STARTCHAR U+0033
ENCODING 51
SWIDTH 508 0
DWIDTH 9 0
BBX 9 17 0 -2
BITMAP
0000
0000
0000
0000
0000
FE00
0600
0C00
1800
3E00
0600
0600
C600
C600
7C00
0000
0000
ENDCHAR
STARTCHAR U+0034
ENCODING 52
SWIDTH 508 0
DWIDTH 9 0
BBX 9 17 0 -2
BITMAP
0000
0000
0000
0000
0000
0C00
1C00
3C00
6C00
CC00
CC00
FE00
0C00
0C00
0C00
0000
0000
ENDCHAR
STARTCHAR U+0035
ENCODING 53
SWIDTH 508 0
DWIDTH 9 0
BBX 9 17 0 -2
BITMAP
0000
0000
0000
0000
0000
FE00
C000
C000
C000
FC00
0600
0600
0600
C600
7C00
0000
0000
ENDCHAR
STARTCHAR U+0036
ENCODING 54
SWIDTH 508 0
DWIDTH 9 0
BBX 9 17 0 -2
BITMAP
0000
0000
0000
0000
0000
3C00
6000
C000
C000
FC00
C600
C600
C600
C600
7C00
0000
0000
ENDCHAR
STARTCHAR U+0037
ENCODING 55
SWIDTH 508 0
DWIDTH 9 0
BBX 9 17 0 -2
BITMAP
0000
0000
0000
0000
000F
FE00
0600
0600
0C00
0C00
0C01
1801
1801
1801
1800
0000
000E
ENDCHAR
STARTCHAR U+0038
ENCODING 56
SWIDTH 508 0
DWIDTH 9 0
BBX 9 17 0 -2
BITMAP
0000
0000
0000
0000
0007
7C0C
C60C
C60C
C607
7C0C
C60C
C60C
C60C
C607
7C00
0000
000E
ENDCHAR
STARTCHAR U+0039
ENCODING 57
SWIDTH 508 0
DWIDTH 9 0
BBX 9 17 0 -2
BITMAP
0000
0000
0000
0000
0000
7C00
C600
C600
C600
C600
7E00
0600
0600
0C00
7800
0000
0000
ENDCHAR
STARTCHAR U+003A
ENCODING 58
SWIDTH 508 0
DWIDTH 9 0
BBX 9 17 0 -2
BITMAP
0000
0000
0000
0000
0000
0000
0003
3803
3800
0000
0000
0003
3803
3800
0000
0000
000E
ENDCHAR
STARTCHAR U+003B
ENCODING 59
SWIDTH 508 0
DWIDTH 9 0
BBX 9 17 0 -2
BITMAP
0000
0000
0000
0000
0000
0000
0003
3803
3800
0000
0000
0003
3801
1801
1803
3000
000E
ENDCHAR
STARTCHAR U+003C
ENCODING 60
SWIDTH 508 0
DWIDTH 9 0
BBX 9 17 0 -2
BITMAP
0000
0000
0000
0000
0000
0000
0600
0C01
1803
3006
6003
3001
1800
0C00
0600
0000
000E
ENDCHAR
STARTCHAR U+003D
ENCODING 61
SWIDTH 508 0
DWIDTH 9 0
BBX 9 17 0 -2
BITMAP
0000
0000
0000
0000
0000
0000
0000
000F
FE00
0000
0000
000F
FE00
0000
0000
0000
000E
ENDCHAR
STARTCHAR U+003E
ENCODING 62
SWIDTH 508 0
DWIDTH 9 0
BBX 9 17 0 -2
BITMAP
0000
0000
0000
0000
0000
000C
C006
6003
3001
1800
0C01
1803
3006
600C
C000
0000
000E
ENDCHAR
STARTCHAR U+003F
ENCODING 63
SWIDTH 508 0
DWIDTH 9 0
BBX 9 17 0 -2
BITMAP
0000
0000
0000
0000
0007
7C0C
C60C
C600
0600
0C01
1801
1800
0001
1801
1800
0000
000E
ENDCHAR
STARTCHAR U+0040
ENCODING 64
SWIDTH 508 0
DWIDTH 9 0
BBX 9 17 0 -2
BITMAP
0000
0000
0000
0000
0003
3C06
660D
DA0D
D60D
D60D
D60D
D60D
DE06
6003
3E00
0000
000E
ENDCHAR
STARTCHAR U+0041
ENCODING 65
SWIDTH 508 0
DWIDTH 9 0
BBX 9 17 0 -2
BITMAP
0000
0000
0000
0000
0003
3806
6C06
6C0C
C60C
C60F
FE0C
C60C
C60C
C60C
C600
0000
000E
ENDCHAR
STARTCHAR U+0042
ENCODING 66
SWIDTH 508 0
DWIDTH 9 0
BBX 9 17 0 -2
BITMAP
0000
0000
0000
0000
000F
FC0C
C60C
C60C
C60F
FC0C
C60C
C60C
C60C
C60F
FC00
0000
000E
ENDCHAR
STARTCHAR U+0043
ENCODING 67
SWIDTH 508 0
DWIDTH 9 0
BBX 9 17 0 -2
BITMAP
0000
0000
0000
0000
0007
7C0C
C60C
C60C
C00C
C00C
C00C
C00C
C60C
C607
7C00
0000
000E
ENDCHAR
STARTCHAR U+0044
ENCODING 68
SWIDTH 508 0
DWIDTH 9 0
BBX 9 17 0 -2
BITMAP
0000
0000
0000
0000
000F
F80C
CC0C
C60C
C60C
C60C
C60C
C60C
C60C
CC0F
F800
0000
000E
ENDCHAR
STARTCHAR U+0045
ENCODING 69
SWIDTH 508 0
DWIDTH 9 0
BBX 9 17 0 -2
BITMAP
0000
0000
0000
0000
000F
FE0C
C00C
C00C
C00F
FC0C
C00C
C00C
C00C
C00F
FE00
0000
000E
ENDCHAR
STARTCHAR U+0046
ENCODING 70
SWIDTH 508 0
DWIDTH 9 0
BBX 9 17 0 -2
BITMAP
0000
0000
0000
0000
000F
FE0C
C00C
C00C
C00F
FC0C
C00C
C00C
C00C
C00C
C000
0000
000E
ENDCHAR
STARTCHAR U+0047
ENCODING 71
SWIDTH 508 0
DWIDTH 9 0
BBX 9 17 0 -2
BITMAP
0000
0000
0000
0000
0007
7C0C
C60C
C60C
C00C
C00D
DE0C
C60C
C60C
CE07
7A00
0000
000E
ENDCHAR
STARTCHAR U+0048
ENCODING 72
SWIDTH 508 0
DWIDTH 9 0
BBX 9 17 0 -2
BITMAP
0000
0000
0000
0000
000C
C60C
C60C
C60C
C60F
FE0C
C60C
C60C
C60C
C60C
C600
0000
000E
ENDCHAR
STARTCHAR U+0049
ENCODING 73
SWIDTH 508 0
DWIDTH 9 0
BBX 9 17 0 -2
BITMAP
0000
0000
0000
0000
0007
7E01
1801
1801
1801
1801
1801
1801
1801
1807
7E00
0000
000E
ENDCHAR
STARTCHAR U+004A
ENCODING 74
SWIDTH 508 0
DWIDTH 9 0
BBX 9 17 0 -2
BITMAP
0000
0000
0000
0000
0003
3F00
0C00
0C00
0C00
0C00
0C00
0C0C
CC0C
CC07
7800
0000
000E
ENDCHAR
STARTCHAR U+004B
ENCODING 75
SWIDTH 508 0
DWIDTH 9 0
BBX 9 17 0 -2
BITMAP
0000
0000
0000
0000
0000
C600
CC00
D800
F000
E000
F000
D800
CC00
C600
C200
0000
0000
ENDCHAR
STARTCHAR U+004C
ENCODING 76
SWIDTH 508 0
DWIDTH 9 0
BBX 9 17 0 -2
BITMAP
0000
0000
0000
0000
000C
C00C
C00C
C00C
C00C
C00C
C00C
C00C
C00C
C00F
FE00
0000
000E
ENDCHAR
STARTCHAR U+004D
ENCODING 77
SWIDTH 508 0
DWIDTH 9 0
BBX 9 17 0 -2
BITMAP
0000
0000
0000
0000
0000
C300
C300
E700
FF00
DB00
DB00
C300
C300
C300
C300
0000
0000
ENDCHAR
STARTCHAR U+004E
ENCODING 78
SWIDTH 508 0
DWIDTH 9 0
BBX 9 17 0 -2
BITMAP
0000
0000
0000
0000
0000
C600
E600
E600
F600
D600
DE00
CE00
CE00
C600
C600
0000
0000
ENDCHAR
STARTCHAR U+004F
ENCODING 79
SWIDTH 508 0
DWIDTH 9 0
BBX 9 17 0 -2
BITMAP
0000
0000
0000
0000
0007
7C0C
C60C
C60C
C60C
C60C
C60C
C60C
C60C
C607
7C00
0000
000E
ENDCHAR
STARTCHAR U+0050
ENCODING 80
SWIDTH 508 0
DWIDTH 9 0
BBX 9 17 0 -2
BITMAP
0000
0000
0000
0000
0000
FC00
C600
C600
C600
C600
FC00
C000
C000
C000
C000
0000
0000
ENDCHAR
STARTCHAR U+0051
ENCODING 81
SWIDTH 508 0
DWIDTH 9 0
BBX 9 17 0 -2
BITMAP
0000
0000
0000
0000
0007
7C0C
C60C
C60C
C60C
C60C
C60C
C60D
DA0E
EE07
7C00
0700
000E
ENDCHAR
STARTCHAR U+0052
ENCODING 82
SWIDTH 508 0
DWIDTH 9 0
BBX 9 17 0 -2
BITMAP
0000
0000
0000
0000
000F
FC0C
C60C
C60C
C60F
FC0D
D80C
CC0C
CC0C
C60C
C600
0000
000E
ENDCHAR
STARTCHAR U+0053
ENCODING 83
SWIDTH 508 0
DWIDTH 9 0
BBX 9 17 0 -2
BITMAP
0000
0000
0000
0000
0007
7C0C
C60C
C60C
C007
7001
1C00
060C
C60C
C607
7C00
0000
000E
ENDCHAR
STARTCHAR U+0054
ENCODING 84
SWIDTH 508 0
DWIDTH 9 0
BBX 9 17 0 -2
BITMAP
0000
0000
0000
0000
000F
FF01
1801
1801
1801
1801
1801
1801
1801
1801
1800
0000
000E
ENDCHAR
STARTCHAR U+0055
ENCODING 85
SWIDTH 508 0
DWIDTH 9 0
BBX 9 17 0 -2
BITMAP
0000
0000
0000
0000
000C
C60C
C60C
C60C
C60C
C60C
C60C
C60C
C60C
C607
7C00
0000
000E
ENDCHAR
STARTCHAR U+0056
ENCODING 86
SWIDTH 508 0
DWIDTH 9 0
BBX 9 17 0 -2
BITMAP
0000
0000
0000
0000
000C
C30C
C30C
C306
6606
6606
6603
3403
3401
1801
1800
0000
000E
ENDCHAR
STARTCHAR U+0057
ENCODING 87
SWIDTH 508 0
DWIDTH 9 0
BBX 9 17 0 -2
BITMAP
0000
0000
0000
0000
0000
C300
C300
C300
C300
DB00
DB00
FF00
E700
C300
C300
0000
0000
ENDCHAR
STARTCHAR U+0058
ENCODING 88
SWIDTH 508 0
DWIDTH 9 0
BBX 9 17 0 -2
BITMAP
0000
0000
0000
0000
000C
C60C
C606
6C06
6C03
3803
3806
6C06
6C0C
C60C
C600
0000
000E
ENDCHAR
STARTCHAR U+0059
ENCODING 89
SWIDTH 508 0
DWIDTH 9 0
BBX 9 17 0 -2
BITMAP
0000
0000
0000
0000
000C
C30C
C306
6606
6603
3401
1801
1801
1801
1801
1800
0000
000E
ENDCHAR
STARTCHAR U+005A
ENCODING 90
SWIDTH 508 0
DWIDTH 9 0
BBX 9 17 0 -2
BITMAP
0000
0000
0000
0000
000F
FE00
0600
0600
0C01
1803
3006
600C
C00C
C00F
FE00
0000
000E
ENDCHAR
STARTCHAR U+005B
ENCODING 91
SWIDTH 508 0
DWIDTH 9 0
BBX 9 17 0 -2
BITMAP
0000
0000
0000
0001
1E01
1801
1801
1801
1801
1801
1801
1801
1801
1801
1801
1E00
000E
ENDCHAR
STARTCHAR U+005C
ENCODING 92
SWIDTH 508 0
DWIDTH 9 0
BBX 9 17 0 -2
BITMAP
0000
0000
0000
0000
000C
C00C
C006
6003
3003
3001
1801
1800
0C00
0600
0600
0000
000E
ENDCHAR
STARTCHAR U+005D
ENCODING 93
SWIDTH 508 0
DWIDTH 9 0
BBX 9 17 0 -2
BITMAP
0000
0000
0000
000F
F003
3003
3003
3003
3003
3003
3003
3003
3003
3003
300F
F000
000E
ENDCHAR
STARTCHAR U+005E
ENCODING 94
SWIDTH 508 0
DWIDTH 9 0
BBX 9 17 0 -2
BITMAP
0000
0000
0003
3806
6C0C
C600
0000
0000
0000
0000
0000
0000
0000
0000
0000
0000
000E
ENDCHAR
STARTCHAR U+005F
ENCODING 95
SWIDTH 508 0
DWIDTH 9 0
BBX 9 17 0 -2
BITMAP
0000
0000
0000
0000
0000
0000
0000
0000
0000
0000
0000
0000
0000
0000
000F
FF00
000E
ENDCHAR
STARTCHAR U+0060
ENCODING 96
SWIDTH 508 0
DWIDTH 9 0
BBX 9 17 0 -2
BITMAP
0000
0000
0000
3000
3000
3000
1800
0000
0000
0000
0000
0000
0000
0000
0000
0000
0000
ENDCHAR
STARTCHAR U+0061
ENCODING 97
SWIDTH 508 0
DWIDTH 9 0
BBX 9 17 0 -2
BITMAP
0000
0000
0000
0000
0000
0000
0007
7C0C
C600
0607
7E0C
C60C
C60C
CE07
7A00
0000
000E
ENDCHAR
STARTCHAR U+0062
ENCODING 98
SWIDTH 508 0
DWIDTH 9 0
BBX 9 17 0 -2
BITMAP
0000
0000
0000
000C
C00C
C00C
C00D
DC0E
E60C
C60C
C60C
C60C
C60E
E60D
DC00
0000
000E
ENDCHAR
STARTCHAR U+0063
ENCODING 99
SWIDTH 508 0
DWIDTH 9 0
BBX 9 17 0 -2
BITMAP
0000
0000
0000
0000
0000
0000
0007
7C0C
C60C
C00C
C00C
C00C
C00C
C607
7C00
0000
000E
ENDCHAR
STARTCHAR U+0064
ENCODING 100
SWIDTH 508 0
DWIDTH 9 0
BBX 9 17 0 -2
BITMAP
0000
0000
0000
0000
0600
0600
0600
7E00
CE00
C600
C600
C600
C600
CE00
7600
0000
0000
ENDCHAR
STARTCHAR U+0065
ENCODING 101
SWIDTH 508 0
DWIDTH 9 0
BBX 9 17 0 -2
BITMAP
0000
0000
0000
0000
0000
0000
0007
7C0C
C60C
C60F
FE0C
C00C
C00C
C607
7C00
0000
000E
ENDCHAR
STARTCHAR U+0066
ENCODING 102
SWIDTH 508 0
DWIDTH 9 0
BBX 9 17 0 -2
BITMAP
0000
0000
0000
0001
1C03
3003
3003
300F
FC03
3003
3003
3003
3003
3003
3000
0000
000E
ENDCHAR
STARTCHAR U+0067
ENCODING 103
SWIDTH 508 0
DWIDTH 9 0
BBX 9 17 0 -2
BITMAP
0000
0000
0000
0000
0000
0000
0600
7C00
CC00
CC00
CC00
7800
6000
7C00
C600
C600
7C00
ENDCHAR
STARTCHAR U+0068
ENCODING 104
SWIDTH 508 0
DWIDTH 9 0
BBX 9 17 0 -2
BITMAP
0000
0000
0000
000C
C00C
C00C
C00D
DC0E
E60C
C60C
C60C
C60C
C60C
C60C
C600
0000
000E
ENDCHAR
STARTCHAR U+0069
ENCODING 105
SWIDTH 508 0
DWIDTH 9 0
BBX 9 17 0 -2
BITMAP
0000
0000
0000
0001
1801
1800
0003
3801
1801
1801
1801
1801
1801
1807
7E00
0000
000E
ENDCHAR
STARTCHAR U+006A
ENCODING 106
SWIDTH 508 0
DWIDTH 9 0
BBX 9 17 0 -2
BITMAP
0000
0000
0000
0000
0C00
0C00
0001
1C00
0C00
0C00
0C00
0C00
0C00
0C00
0C0D
D807
700E
ENDCHAR
STARTCHAR U+006B
ENCODING 107
SWIDTH 508 0
DWIDTH 9 0
BBX 9 17 0 -2
BITMAP
0000
0000
0000
0000
000C
C00C
C00C
CC0D
D80D
D00E
E00D
D00D
D80C
CC0C
C600
0000
000E
ENDCHAR
STARTCHAR U+006C
ENCODING 108
SWIDTH 508 0
DWIDTH 9 0
BBX 9 17 0 -2
BITMAP
0000
0000
0000
0000
0003
3801
1801
1801
1801
1801
1801
1801
1801
1807
7E00
0000
000E
ENDCHAR
STARTCHAR U+006D
ENCODING 109
SWIDTH 508 0
DWIDTH 9 0
BBX 9 17 0 -2
BITMAP
0000
0000
0000
0000
0000
0000
000F
F60D
DB0D
DB0D
DB0D
DB0D
DB0D
DB0D
DB00
0000
000E
ENDCHAR
STARTCHAR U+006E
ENCODING 110
SWIDTH 508 0
DWIDTH 9 0
BBX 9 17 0 -2
BITMAP
0000
0000
0000
0000
0000
0000
000D
DC0E
E60C
C60C
C60C
C60C
C60C
C60C
C600
0000
000E
ENDCHAR
STARTCHAR U+006F
ENCODING 111
SWIDTH 508 0
DWIDTH 9 0
BBX 9 17 0 -2
BITMAP
0000
0000
0000
0000
0000
0000
0007
7C0C
C60C
C60C
C60C
C60C
C60C
C607
7C00
0000
000E
ENDCHAR
STARTCHAR U+0070
ENCODING 112
SWIDTH 508 0
DWIDTH 9 0
BBX 9 17 0 -2
BITMAP
0000
0000
0000
0000
0000
0000
000D
DC0E
E60C
C60C
C60C
C60C
C60E
E60D
DC0C
C00C
C00E
ENDCHAR
STARTCHAR U+0071
ENCODING 113
SWIDTH 508 0
DWIDTH 9 0
BBX 9 17 0 -2
BITMAP
0000
0000
0000
0000
0000
0000
0000
7A00
CE00
C600
C600
C600
C600
CE00
7E00
0600
0600
ENDCHAR
STARTCHAR U+0072
ENCODING 114
SWIDTH 508 0
DWIDTH 9 0
BBX 9 17 0 -2
BITMAP
0000
0000
0000
0000
0000
0000
000D
DC0E
E60C
C60C
C00C
C00C
C00C
C00C
C000
0000
000E
ENDCHAR
STARTCHAR U+0073
ENCODING 115
SWIDTH 508 0
DWIDTH 9 0
BBX 9 17 0 -2
BITMAP
0000
0000
0000
0000
0000
0000
0007
7C0C
C60C
C007
7001
1C00
060C
C607
7C00
0000
000E
ENDCHAR
STARTCHAR U+0074
ENCODING 116
SWIDTH 508 0
DWIDTH 9 0
BBX 9 17 0 -2
BITMAP
0000
0000
0000
0000
0003
3003
300F
FC03
3003
3003
3003
3003
3003
3001
1C00
0000
000E
ENDCHAR
STARTCHAR U+0075
ENCODING 117
SWIDTH 508 0
DWIDTH 9 0
BBX 9 17 0 -2
BITMAP
0000
0000
0000
0000
0000
0000
0000
C600
C600
C600
C600
C600
C600
CE00
7600
0000
0000
ENDCHAR
STARTCHAR U+0076
ENCODING 118
SWIDTH 508 0
DWIDTH 9 0
BBX 9 17 0 -2
BITMAP
0000
0000
0000
0000
0000
0000
000C
C60C
C60C
C606
6C06
6C06
6C03
3803
3800
0000
000E
ENDCHAR
STARTCHAR U+0077
ENCODING 119
SWIDTH 508 0
DWIDTH 9 0
BBX 9 17 0 -2
BITMAP
0000
0000
0000
0000
0000
0000
000C
C30D
DB0D
DB0D
DB0D
DB0D
DB0D
DB07
7600
0000
000E
ENDCHAR
STARTCHAR U+0078
ENCODING 120
SWIDTH 508 0
DWIDTH 9 0
BBX 9 17 0 -2
BITMAP
0000
0000
0000
0000
0000
0000
000C
C60C
C606
6C03
3803
3806
6C0C
C60C
C600
0000
000E
ENDCHAR
STARTCHAR U+0079
ENCODING 121
SWIDTH 508 0
DWIDTH 9 0
BBX 9 17 0 -2
BITMAP
0000
0000
0000
0000
0000
0000
0000
C600
C600
C600
C600
C600
CE00
7600
0600
0600
7C00
ENDCHAR
STARTCHAR U+007A
ENCODING 122
SWIDTH 508 0
DWIDTH 9 0
BBX 9 17 0 -2
BITMAP
0000
0000
0000
0000
0000
0000
000F
FE00
0600
0C01
1803
3006
600C
C00F
FE00
0000
000E
ENDCHAR
STARTCHAR U+007B
ENCODING 123
SWIDTH 508 0
DWIDTH 9 0
BBX 9 17 0 -2
BITMAP
0000
0000
0000
0001
1C03
3003
3001
1801
1803
3003
3001
1801
1803
3003
3001
1C00
000E
ENDCHAR
STARTCHAR U+007C
ENCODING 124
SWIDTH 508 0
DWIDTH 9 0
BBX 9 17 0 -2
BITMAP
0000
0000
0001
1801
1801
1801
1801
1801
1801
1801
1801
1801
1801
1801
1801
1801
180E
ENDCHAR
STARTCHAR U+007D
ENCODING 125
SWIDTH 508 0
DWIDTH 9 0
BBX 9 17 0 -2
BITMAP
0000
0000
0000
0007
7001
1801
1803
3003
3001
1801
1803
3003
3001
1801
1807
7000
000E
ENDCHAR
STARTCHAR U+007E
ENCODING 126
SWIDTH 508 0
DWIDTH 9 0
BBX 9 17 0 -2
BITMAP
0000
0000
0000
0007
730D
DB0C
CE00
0000
0000
0000
0000
0000
0000
0000
0000
0000
000E
ENDCHAR
STARTCHAR U+00A0
ENCODING 160
SWIDTH 508 0
DWIDTH 9 0
BBX 9 17 0 -2
BITMAP
0000
0000
0000
0000
0000
0000
0000
0000
0000
0000
0000
0000
0000
0000
0000
0000
000E
ENDCHAR
STARTCHAR U+00A1
ENCODING 161
SWIDTH 508 0
DWIDTH 9 0
BBX 9 17 0 -2
BITMAP
0000
0000
0000
0000
0001
1801
1800
0001
1801
1801
1801
1801
1801
1801
1800
0000
000E
ENDCHAR
STARTCHAR U+00A2
ENCODING 162
SWIDTH 508 0
DWIDTH 9 0
BBX 9 17 0 -2
BITMAP
0000
0000
0000
0000
0001
1801
1807
7E0D
DB0D
D80D
D80D
DB07
7E01
1801
1800
0000
000E
ENDCHAR
STARTCHAR U+00A3
ENCODING 163
SWIDTH 508 0
DWIDTH 9 0
BBX 9 17 0 -2
BITMAP
0000
0000
0000
0000
0001
1E03
3003
3003
300F
FC03
3003
3003
3007
7E0E
E300
0000
000E
ENDCHAR
STARTCHAR U+00A4
ENCODING 164
SWIDTH 508 0
DWIDTH 9 0
BBX 9 17 0 -2
BITMAP
0000
0000
0000
0000
0000
000C
C606
6C07
7C06
6C06
6C07
7C06
6C0C
C600
0000
0000
000E
ENDCHAR
STARTCHAR U+00A5
ENCODING 165
SWIDTH 508 0
DWIDTH 9 0
BBX 9 17 0 -2
BITMAP
0000
0000
0000
0000
000C
C306
6603
3401
180F
FF01
180F
FF01
1801
1801
1800
0000
000E
ENDCHAR
STARTCHAR U+00A6
ENCODING 166
SWIDTH 508 0
DWIDTH 9 0
BBX 9 17 0 -2
BITMAP
0000
0000
0000
0000
0001
1801
1801
1801
1800
0000
0001
1801
1801
1801
1800
0000
000E
ENDCHAR
STARTCHAR U+00A7
ENCODING 167
SWIDTH 508 0
DWIDTH 9 0
BBX 9 17 0 -2
BITMAP
0000
0000
0000
0000
0007
7C0C
C60C
C007
7C0C
C60C
C607
7C00
060C
C607
7C00
0000
000E
ENDCHAR
STARTCHAR U+00A8
ENCODING 168
SWIDTH 508 0
DWIDTH 9 0
BBX 9 17 0 -2
BITMAP
0006
6C06
6C00
0000
0000
0000
0000
0000
0000
0000
0000
0000
0000
0000
0000
0000
000E
ENDCHAR
STARTCHAR U+00A9
ENCODING 169
SWIDTH 508 0
DWIDTH 9 0
BBX 9 17 0 -2
BITMAP
0000
0000
0000
0000
0007
7C0C
C60D
DA0E
EE0E
E60E
E60E
EE0D
DA0C
C607
7C00
0000
000E
ENDCHAR
STARTCHAR U+00AA
ENCODING 170
SWIDTH 508 0
DWIDTH 9 0
BBX 9 17 0 -2
BITMAP
0000
0000
0003
3C00
0603
3E06
6603
3E00
0007
7E00
0000
0000
0000
0000
0000
0000
000E
ENDCHAR
STARTCHAR U+00AB
ENCODING 171
SWIDTH 508 0
DWIDTH 9 0
BBX 9 17 0 -2
BITMAP
0000
0000
0000
0000
0000
0003
3603
3606
6C06
6C0D
D806
6C06
6C03
3603
3600
0000
000E
ENDCHAR
STARTCHAR U+00AC
ENCODING 172
SWIDTH 508 0
DWIDTH 9 0
BBX 9 17 0 -2
BITMAP
0000
0000
0000
0000
0000
0000
0000
0000
0000
0000
000F
FE00
0600
0600
0600
0000
000E
ENDCHAR
STARTCHAR U+00AD
ENCODING 173
SWIDTH 508 0
DWIDTH 9 0
BBX 9 17 0 -2
BITMAP
0000
0000
0000
0000
0000
0000
0000
0000
0000
000F
FE00
0000
0000
0000
0000
0000
000E
ENDCHAR
STARTCHAR U+00AE
ENCODING 174
SWIDTH 508 0
DWIDTH 9 0
BBX 9 17 0 -2
BITMAP
0000
0000
0000
0000
0007
7C0C
C60F
FA0E
EE0E
EE0F
FA0E
EA0E
EE0C
C607
7C00
0000
000E
ENDCHAR
STARTCHAR U+00AF
ENCODING 175
SWIDTH 508 0
DWIDTH 9 0
BBX 9 17 0 -2
BITMAP
0000
0000
000F
FE00
0000
0000
0000
0000
0000
0000
0000
0000
0000
0000
0000
0000
000E
ENDCHAR
STARTCHAR U+00B0
ENCODING 176
SWIDTH 508 0
DWIDTH 9 0
BBX 9 17 0 -2
BITMAP
0003
3006
6806
6803
3000
0000
0000
0000
0000
0000
0000
0000
0000
0000
0000
0000
000E
ENDCHAR
STARTCHAR U+00B1
ENCODING 177
SWIDTH 508 0
DWIDTH 9 0
BBX 9 17 0 -2
BITMAP
0000
0000
0000
0000
0001
1801
1801
180F
FF01
1801
1801
1800
000F
FF00
0000
0000
000E
ENDCHAR
STARTCHAR U+00B2
ENCODING 178
SWIDTH 508 0
DWIDTH 9 0
BBX 9 17 0 -2
BITMAP
0000
0000
0003
3C06
6600
0603
3C06
6006
6007
7E00
0000
0000
0000
0000
0000
0000
000E
ENDCHAR
STARTCHAR U+00B3
ENCODING 179
SWIDTH 508 0
DWIDTH 9 0
BBX 9 17 0 -2
BITMAP
0000
0000
0003
3C06
6600
0603
3C00
0606
6603
3C00
0000
0000
0000
0000
0000
0000
000E
ENDCHAR
STARTCHAR U+00B4
ENCODING 180
SWIDTH 508 0
DWIDTH 9 0
BBX 9 17 0 -2
BITMAP
0001
1C07
7000
0000
0000
0000
0000
0000
0000
0000
0000
0000
0000
0000
0000
0000
000E
ENDCHAR
STARTCHAR U+00B5
ENCODING 181
SWIDTH 508 0
DWIDTH 9 0
BBX 9 17 0 -2
BITMAP
0000
0000
0000
0000
0000
0000
0000
0000
0006
6606
6606
6606
6607
7606
6A06
6006
600E
ENDCHAR
STARTCHAR U+00B6
ENCODING 182
SWIDTH 508 0
DWIDTH 9 0
BBX 9 17 0 -2
BITMAP
0000
0000
0000
0007
7E0F
FA0F
FA0F
FA0F
FA07
7A01
1A01
1A01
1A01
1A01
1A01
1E00
000E
ENDCHAR
STARTCHAR U+00B7
ENCODING 183
SWIDTH 508 0
DWIDTH 9 0
BBX 9 17 0 -2
BITMAP
0000
0000
0000
0000
0000
0000
0000
0000
0003
3803
3800
0000
0000
0000
0000
0000
000E
ENDCHAR
STARTCHAR U+00B8
ENCODING 184
SWIDTH 508 0
DWIDTH 9 0
BBX 9 17 0 -2
BITMAP
0000
0000
0000
0000
0000
0000
0000
0000
0000
0000
0000
0000
0000
0000
0001
1807
700E
ENDCHAR
STARTCHAR U+00B9
ENCODING 185
SWIDTH 508 0
DWIDTH 9 0
BBX 9 17 0 -2
BITMAP
0000
0000
0001
1803
3806
6801
1801
1801
1801
1800
0000
0000
0000
0000
0000
0000
000E
ENDCHAR
STARTCHAR U+00BA
ENCODING 186
SWIDTH 508 0
DWIDTH 9 0
BBX 9 17 0 -2
BITMAP
0000
0000
0003
3C06
6606
6606
6603
3C00
0007
7E00
0000
0000
0000
0000
0000
0000
000E
ENDCHAR
STARTCHAR U+00BB
ENCODING 187
SWIDTH 508 0
DWIDTH 9 0
BBX 9 17 0 -2
BITMAP
0000
0000
0000
0000
0000
000D
D80D
D806
6C06
6C03
3606
6C06
6C0D
D80D
D800
0000
000E
ENDCHAR
STARTCHAR U+00BC
ENCODING 188
SWIDTH 508 0
DWIDTH 9 0
BBX 9 17 0 -2
BITMAP
0000
0000
0000
0000
0006
660E
E606
6C06
6806
6803
3603
3606
6A0D
DE0C
C600
0000
000E
ENDCHAR
STARTCHAR U+00BD
ENCODING 189
SWIDTH 508 0
DWIDTH 9 0
BBX 9 17 0 -2
BITMAP
0000
0000
0000
0000
0006
660E
E606
6C06
6806
6803
3403
3A06
660C
CC0D
DE00
0000
000E
ENDCHAR
STARTCHAR U+00BE
ENCODING 190
SWIDTH 508 0
DWIDTH 9 0
BBX 9 17 0 -2
BITMAP
0000
0000
0000
0000
000E
E603
3606
6C03
380E
E803
3603
3606
6A0D
DE0C
C600
0000
000E
ENDCHAR
STARTCHAR U+00BF
ENCODING 191
SWIDTH 508 0
DWIDTH 9 0
BBX 9 17 0 -2
BITMAP
0000
0000
0000
0000
0001
1801
1800
0001
1801
1807
700C
C60C
C60C
C607
7C00
0000
000E
ENDCHAR
STARTCHAR U+00C0
ENCODING 192
SWIDTH 508 0
DWIDTH 9 0
BBX 9 17 0 -2
BITMAP
0007
7001
1C00
0000
0003
3806
6C06
6C0C
C60C
C60F
FE0C
C60C
C60C
C60C
C600
0000
000E
ENDCHAR
STARTCHAR U+00C1
ENCODING 193
SWIDTH 508 0
DWIDTH 9 0
BBX 9 17 0 -2
BITMAP
0001
1C07
7000
0000
0003
3806
6C06
6C0C
C60C
C60F
FE0C
C60C
C60C
C60C
C600
0000
000E
ENDCHAR
STARTCHAR U+00C2
ENCODING 194
SWIDTH 508 0
DWIDTH 9 0
BBX 9 17 0 -2
BITMAP
0003
3806
6C00
0000
0003
3806
6C06
6C0C
C60C
C60F
FE0C
C60C
C60C
C60C
C600
0000
000E
ENDCHAR
STARTCHAR U+00C3
ENCODING 195
SWIDTH 508 0
DWIDTH 9 0
BBX 9 17 0 -2
BITMAP
0007
760D
DC00
0000
0003
3806
6C06
6C0C
C60C
C60F
FE0C
C60C
C60C
C60C
C600
0000
000E
ENDCHAR
STARTCHAR U+00C4
ENCODING 196
SWIDTH 508 0
DWIDTH 9 0
BBX 9 17 0 -2
BITMAP
0006
6C06
6C00
0000
0003
3806
6C06
6C0C
C60C
C60F
FE0C
C60C
C60C
C60C
C600
0000
000E
ENDCHAR
STARTCHAR U+00C5
ENCODING 197
SWIDTH 508 0
DWIDTH 9 0
BBX 9 17 0 -2
BITMAP
0003
3806
6C03
3800
0003
3806
6C06
6C0C
C60C
C60F
FE0C
C60C
C60C
C60C
C600
0000
000E
ENDCHAR
STARTCHAR U+00C6
ENCODING 198
SWIDTH 508 0
DWIDTH 9 0
BBX 9 17 0 -2
BITMAP
0000
0000
0000
0000
0003
3F06
680D
D80D
D80F
FF0D
D80D
D80D
D80D
D80D
DF00
0000
000E
ENDCHAR
STARTCHAR U+00C7
ENCODING 199
SWIDTH 508 0
DWIDTH 9 0
BBX 9 17 0 -2
BITMAP
0000
0000
0000
0000
0007
7C0C
C60C
C60C
C00C
C00C
C00C
C00C
C60C
C607
7C01
1807
700E
ENDCHAR
STARTCHAR U+00C8
ENCODING 200
SWIDTH 508 0
DWIDTH 9 0
BBX 9 17 0 -2
BITMAP
0007
7001
1C00
0000
000F
FE0C
C00C
C00C
C00F
FC0C
C00C
C00C
C00C
C00F
FE00
0000
000E
ENDCHAR
STARTCHAR U+00C9
ENCODING 201
SWIDTH 508 0
DWIDTH 9 0
BBX 9 17 0 -2
BITMAP
0001
1C07
7000
0000
000F
FE0C
C00C
C00C
C00F
FC0C
C00C
C00C
C00C
C00F
FE00
0000
000E
ENDCHAR
STARTCHAR U+00CA
ENCODING 202
SWIDTH 508 0
DWIDTH 9 0
BBX 9 17 0 -2
BITMAP
0003
3806
6C00
0000
000F
FE0C
C00C
C00C
C00F
FC0C
C00C
C00C
C00C
C00F
FE00
0000
000E
ENDCHAR
STARTCHAR U+00CB
ENCODING 203
SWIDTH 508 0
DWIDTH 9 0
BBX 9 17 0 -2
BITMAP
0006
6C06
6C00
0000
000F
FE0C
C00C
C00C
C00F
FC0C
C00C
C00C
C00C
C00F
FE00
0000
000E
ENDCHAR
STARTCHAR U+00CC
ENCODING 204
SWIDTH 508 0
DWIDTH 9 0
BBX 9 17 0 -2
BITMAP
0003
3800
0E00
0000
0007
7E01
1801
1801
1801
1801
1801
1801
1801
1807
7E00
0000
000E
ENDCHAR
STARTCHAR U+00CD
ENCODING 205
SWIDTH 508 0
DWIDTH 9 0
BBX 9 17 0 -2
BITMAP
0001
1C07
7000
0000
0007
7E01
1801
1801
1801
1801
1801
1801
1801
1807
7E00
0000
000E
ENDCHAR
STARTCHAR U+00CE
ENCODING 206
SWIDTH 508 0
DWIDTH 9 0
BBX 9 17 0 -2
BITMAP
0003
3806
6C00
0000
0007
7E01
1801
1801
1801
1801
1801
1801
1801
1807
7E00
0000
000E
ENDCHAR
STARTCHAR U+00CF
ENCODING 207
SWIDTH 508 0
DWIDTH 9 0
BBX 9 17 0 -2
BITMAP
0006
6C06
6C00
0000
0007
7E01
1801
1801
1801
1801
1801
1801
1801
1807
7E00
0000
000E
ENDCHAR
STARTCHAR U+00D0
ENCODING 208
SWIDTH 508 0
DWIDTH 9 0
BBX 9 17 0 -2
BITMAP
0000
0000
0000
0000
000F
F80C
CC0C
C60C
C60F
F60C
C60C
C60C
C60C
CC0F
F800
0000
000E
ENDCHAR
STARTCHAR U+00D1
ENCODING 209
SWIDTH 508 0
DWIDTH 9 0
BBX 9 17 0 -2
BITMAP
0000
7600
DC00
0000
0000
C600
E600
E600
F600
D600
DE00
CE00
CE00
C600
C600
0000
0000
ENDCHAR
STARTCHAR U+00D2
ENCODING 210
SWIDTH 508 0
DWIDTH 9 0
BBX 9 17 0 -2
BITMAP
0007
7001
1C00
0000
0007
7C0C
C60C
C60C
C60C
C60C
C60C
C60C
C60C
C607
7C00
0000
000E
ENDCHAR
STARTCHAR U+00D3
ENCODING 211
SWIDTH 508 0
DWIDTH 9 0
BBX 9 17 0 -2
BITMAP
0001
1C07
7000
0000
0007
7C0C
C60C
C60C
C60C
C60C
C60C
C60C
C60C
C607
7C00
0000
000E
ENDCHAR
STARTCHAR U+00D4
ENCODING 212
SWIDTH 508 0
DWIDTH 9 0
BBX 9 17 0 -2
BITMAP
0003
3806
6C00
0000
0007
7C0C
C60C
C60C
C60C
C60C
C60C
C60C
C60C
C607
7C00
0000
000E
ENDCHAR
STARTCHAR U+00D5
ENCODING 213
SWIDTH 508 0
DWIDTH 9 0
BBX 9 17 0 -2
BITMAP
0007
760D
DC00
0000
0007
7C0C
C60C
C60C
C60C
C60C
C60C
C60C
C60C
C607
7C00
0000
000E
ENDCHAR
STARTCHAR U+00D6
ENCODING 214
SWIDTH 508 0
DWIDTH 9 0
BBX 9 17 0 -2
BITMAP
0006
6C06
6C00
0000
0007
7C0C
C60C
C60C
C60C
C60C
C60C
C60C
C60C
C607
7C00
0000
000E
ENDCHAR
STARTCHAR U+00D7
ENCODING 215
SWIDTH 508 0
DWIDTH 9 0
BBX 9 17 0 -2
BITMAP
0000
0000
0000
0000
0000
0000
0000
C300
6600
3C00
1800
3C00
6600
C300
0000
0000
0000
ENDCHAR
STARTCHAR U+00D8
ENCODING 216
SWIDTH 508 0
DWIDTH 9 0
BBX 9 17 0 -2
BITMAP
0000
0000
0000
0000
0400
7C00
CE00
DE00
D600
D600
D600
D600
F600
E600
7C00
4000
0000
ENDCHAR
STARTCHAR U+00D9
ENCODING 217
SWIDTH 508 0
DWIDTH 9 0
BBX 9 17 0 -2
BITMAP
0007
7001
1C00
0000
000C
C60C
C60C
C60C
C60C
C60C
C60C
C60C
C60C
C607
7C00
0000
000E
ENDCHAR
STARTCHAR U+00DA
ENCODING 218
SWIDTH 508 0
DWIDTH 9 0
BBX 9 17 0 -2
BITMAP
0001
1C07
7000
0000
000C
C60C
C60C
C60C
C60C
C60C
C60C
C60C
C60C
C607
7C00
0000
000E
ENDCHAR
STARTCHAR U+00DB
ENCODING 219
SWIDTH 508 0
DWIDTH 9 0
BBX 9 17 0 -2
BITMAP
0003
3806
6C00
0000
000C
C60C
C60C
C60C
C60C
C60C
C60C
C60C
C60C
C607
7C00
0000
000E
ENDCHAR
STARTCHAR U+00DC
ENCODING 220
SWIDTH 508 0
DWIDTH 9 0
BBX 9 17 0 -2
BITMAP
0006
6C06
6C00
0000
000C
C60C
C60C
C60C
C60C
C60C
C60C
C60C
C60C
C607
7C00
0000
000E
ENDCHAR
STARTCHAR U+00DD
ENCODING 221
SWIDTH 508 0
DWIDTH 9 0
BBX 9 17 0 -2
BITMAP
0001
1C07
7000
0000
000C
C30C
C306
6606
6603
3401
1801
1801
1801
1801
1800
0000
000E
ENDCHAR
STARTCHAR U+00DE
ENCODING 222
SWIDTH 508 0
DWIDTH 9 0
BBX 9 17 0 -2
BITMAP
0000
0000
0000
000C
C00C
C00F
F80C
CC0C
C60C
C60C
CC0F
F80C
C00C
C00C
C000
0000
000E
ENDCHAR
STARTCHAR U+00DF
ENCODING 223
SWIDTH 508 0
DWIDTH 9 0
BBX 9 17 0 -2
BITMAP
0000
0000
0000
0000
0007
780C
CC0C
CC0C
CC0D
DC0C
C60C
C60C
C60D
D60D
DC00
0000
000E
ENDCHAR
STARTCHAR U+00E0
ENCODING 224
SWIDTH 508 0
DWIDTH 9 0
BBX 9 17 0 -2
BITMAP
0000
0000
0007
7001
1C00
0000
0007
7C0C
C600
0607
7E0C
C60C
C60C
CE07
7A00
0000
000E
ENDCHAR
STARTCHAR U+00E1
ENCODING 225
SWIDTH 508 0
DWIDTH 9 0
BBX 9 17 0 -2
BITMAP
0000
0000
0001
1C07
7000
0000
0007
7C0C
C600
0607
7E0C
C60C
C60C
CE07
7A00
0000
000E
ENDCHAR
STARTCHAR U+00E2
ENCODING 226
SWIDTH 508 0
DWIDTH 9 0
BBX 9 17 0 -2
BITMAP
0000
0000
0003
3806
6C00
0000
0007
7C0C
C600
0607
7E0C
C60C
C60C
CE07
7A00
0000
000E
ENDCHAR
STARTCHAR U+00E3
ENCODING 227
SWIDTH 508 0
DWIDTH 9 0
BBX 9 17 0 -2
BITMAP
0000
0000
0007
760D
DC00
0000
0007
7C0C
C600
0607
7E0C
C60C
C60C
CE07
7A00
0000
000E
ENDCHAR
STARTCHAR U+00E4
ENCODING 228
SWIDTH 508 0
DWIDTH 9 0
BBX 9 17 0 -2
BITMAP
0000
0000
0006
6C06
6C00
0000
0007
7C0C
C600
0607
7E0C
C60C
C60C
CE07
7A00
0000
000E
ENDCHAR
STARTCHAR U+00E5
ENCODING 229
SWIDTH 508 0
DWIDTH 9 0
BBX 9 17 0 -2
BITMAP
0000
0003
3806
6C03
3800
0000
0007
7C0C
C600
0607
7E0C
C60C
C60C
CE07
7A00
0000
000E
ENDCHAR
STARTCHAR U+00E6
ENCODING 230
SWIDTH 508 0
DWIDTH 9 0
BBX 9 17 0 -2
BITMAP
0000
0000
0000
0000
0000
0000
0007
7E0D
DB01
1B07
7F0D
D80D
D80D
DB07
7E00
0000
000E
ENDCHAR
STARTCHAR U+00E7
ENCODING 231
SWIDTH 508 0
DWIDTH 9 0
BBX 9 17 0 -2
BITMAP
0000
0000
0000
0000
0000
0000
0007
7C0C
C60C
C00C
C00C
C00C
C00C
C607
7C01
1807
700E
ENDCHAR
STARTCHAR U+00E8
ENCODING 232
SWIDTH 508 0
DWIDTH 9 0
BBX 9 17 0 -2
BITMAP
0000
0000
0007
7001
1C00
0000
0007
7C0C
C60C
C60F
FE0C
C00C
C00C
C607
7C00
0000
000E
ENDCHAR
STARTCHAR U+00E9
ENCODING 233
SWIDTH 508 0
DWIDTH 9 0
BBX 9 17 0 -2
BITMAP
0000
0000
0001
1C07
7000
0000
0007
7C0C
C60C
C60F
FE0C
C00C
C00C
C607
7C00
0000
000E
ENDCHAR
STARTCHAR U+00EA
ENCODING 234
SWIDTH 508 0
DWIDTH 9 0
BBX 9 17 0 -2
BITMAP
0000
0000
0003
3806
6C00
0000
0007
7C0C
C60C
C60F
FE0C
C00C
C00C
C607
7C00
0000
000E
ENDCHAR
STARTCHAR U+00EB
ENCODING 235
SWIDTH 508 0
DWIDTH 9 0
BBX 9 17 0 -2
BITMAP
0000
0000
0006
6C06
6C00
0000
0007
7C0C
C60C
C60F
FE0C
C00C
C00C
C607
7C00
0000
000E
ENDCHAR
STARTCHAR U+00EC
ENCODING 236
SWIDTH 508 0
DWIDTH 9 0
BBX 9 17 0 -2
BITMAP
0000
0000
0007
7001
1C00
0000
0003
3801
1801
1801
1801
1801
1801
1807
7E00
0000
000E
ENDCHAR
STARTCHAR U+00ED
ENCODING 237
SWIDTH 508 0
DWIDTH 9 0
BBX 9 17 0 -2
BITMAP
0000
0000
0001
1C07
7000
0000
0003
3801
1801
1801
1801
1801
1801
1807
7E00
0000
000E
ENDCHAR
STARTCHAR U+00EE
ENCODING 238
SWIDTH 508 0
DWIDTH 9 0
BBX 9 17 0 -2
BITMAP
0000
0000
0003
3806
6C00
0000
0003
3801
1801
1801
1801
1801
1801
1807
7E00
0000
000E
ENDCHAR
STARTCHAR U+00EF
ENCODING 239
SWIDTH 508 0
DWIDTH 9 0
BBX 9 17 0 -2
BITMAP
0000
0000
0006
6C06
6C00
0000
0003
3801
1801
1801
1801
1801
1801
1807
7E00
0000
000E
ENDCHAR
STARTCHAR U+00F0
ENCODING 240
SWIDTH 508 0
DWIDTH 9 0
BBX 9 17 0 -2
BITMAP
0000
0000
0007
7601
1C03
3406
6600
0607
7E0C
C60C
C60C
C60C
C60C
C607
7C00
0000
000E
ENDCHAR
STARTCHAR U+00F1
ENCODING 241
SWIDTH 508 0
DWIDTH 9 0
BBX 9 17 0 -2
BITMAP
0000
0000
0007
760D
DC00
0000
000D
DC0E
E60C
C60C
C60C
C60C
C60C
C60C
C600
0000
000E
ENDCHAR
STARTCHAR U+00F2
ENCODING 242
SWIDTH 508 0
DWIDTH 9 0
BBX 9 17 0 -2
BITMAP
0000
0000
0007
7001
1C00
0000
0007
7C0C
C60C
C60C
C60C
C60C
C60C
C607
7C00
0000
000E
ENDCHAR
STARTCHAR U+00F3
ENCODING 243
SWIDTH 508 0
DWIDTH 9 0
BBX 9 17 0 -2
BITMAP
0000
0000
0001
1C07
7000
0000
0007
7C0C
C60C
C60C
C60C
C60C
C60C
C607
7C00
0000
000E
ENDCHAR
STARTCHAR U+00F4
ENCODING 244
SWIDTH 508 0
DWIDTH 9 0
BBX 9 17 0 -2
BITMAP
0000
0000
0003
3806
6C00
0000
0007
7C0C
C60C
C60C
C60C
C60C
C60C
C607
7C00
0000
000E
ENDCHAR
STARTCHAR U+00F5
ENCODING 245
SWIDTH 508 0
DWIDTH 9 0
BBX 9 17 0 -2
BITMAP
0000
0000
0007
760D
DC00
0000
0007
7C0C
C60C
C60C
C60C
C60C
C60C
C607
7C00
0000
000E
ENDCHAR
STARTCHAR U+00F6
ENCODING 246
SWIDTH 508 0
DWIDTH 9 0
BBX 9 17 0 -2
BITMAP
0000
0000
0006
6C06
6C00
0000
0007
7C0C
C60C
C60C
C60C
C60C
C60C
C607
7C00
0000
000E
ENDCHAR
STARTCHAR U+00F7
ENCODING 247
SWIDTH 508 0
DWIDTH 9 0
BBX 9 17 0 -2
BITMAP
0000
0000
0000
0000
0000
0000
0003
3800
0000
000F
FE00
0000
0003
3800
0000
0000
000E
ENDCHAR
STARTCHAR U+00F8
ENCODING 248
SWIDTH 508 0
DWIDTH 9 0
BBX 9 17 0 -2
BITMAP
0000
0000
0000
0000
0000
0000
0607
7C0C
CE0D
DA0D
DA0D
D60D
D60E
E607
7C0C
C000
000E
ENDCHAR
STARTCHAR U+00F9
ENCODING 249
SWIDTH 508 0
DWIDTH 9 0
BBX 9 17 0 -2
BITMAP
0000
0000
0007
7001
1C00
0000
000C
C60C
C60C
C60C
C60C
C60C
C60C
CE07
7A00
0000
000E
ENDCHAR
STARTCHAR U+00FA
ENCODING 250
SWIDTH 508 0
DWIDTH 9 0
BBX 9 17 0 -2
BITMAP
0000
0000
0001
1C07
7000
0000
000C
C60C
C60C
C60C
C60C
C60C
C60C
CE07
7A00
0000
000E
ENDCHAR
STARTCHAR U+00FB
ENCODING 251
SWIDTH 508 0
DWIDTH 9 0
BBX 9 17 0 -2
BITMAP
0000
0000
0003
3806
6C00
0000
000C
C60C
C60C
C60C
C60C
C60C
C60C
CE07
7A00
0000
000E
ENDCHAR
STARTCHAR U+00FC
ENCODING 252
SWIDTH 508 0
DWIDTH 9 0
BBX 9 17 0 -2
BITMAP
0000
0000
0006
6C06
6C00
0000
000C
C60C
C60C
C60C
C60C
C60C
C60C
CE07
7A00
0000
000E
ENDCHAR
STARTCHAR U+00FD
ENCODING 253
SWIDTH 508 0
DWIDTH 9 0
BBX 9 17 0 -2
BITMAP
0000
0000
0000
1C00
7000
0000
0000
C600
C600
C600
C600
C600
CE00
7600
0600
0600
7C00
ENDCHAR
STARTCHAR U+00FE
ENCODING 254
SWIDTH 508 0
DWIDTH 9 0
BBX 9 17 0 -2
BITMAP
0000
0000
0000
0000
0006
6006
6007
7C06
6606
6606
6606
6C06
6807
7006
6006
6006
600E
ENDCHAR
STARTCHAR U+00FF
ENCODING 255
SWIDTH 508 0
DWIDTH 9 0
BBX 9 17 0 -2
BITMAP
0000
0000
0000
6C00
6C00
0000
0000
C600
C600
C600
C600
C600
CE00
7600
0600
0600
7C00
ENDCHAR
STARTCHAR U+0100
ENCODING 256
SWIDTH 508 0
DWIDTH 9 0
BBX 9 17 0 -2
BITMAP
0000
0007
7C00
0000
0003
3806
6C06
6C0C
C60C
C60F
FE0C
C60C
C60C
C60C
C600
0000
000E
ENDCHAR
STARTCHAR U+0101
ENCODING 257
SWIDTH 508 0
DWIDTH 9 0
BBX 9 17 0 -2
BITMAP
0000
0000
0000
0007
7C00
0000
0007
7C0C
C600
0607
7E0C
C60C
C60C
CE07
7A00
0000
000E
ENDCHAR
STARTCHAR U+0102
ENCODING 258
SWIDTH 508 0
DWIDTH 9 0
BBX 9 17 0 -2
BITMAP
000C
C60C
C607
7C00
0003
3806
6C06
6C0C
C60C
C60F
FE0C
C60C
C60C
C60C
C600
0000
000E
ENDCHAR
STARTCHAR U+0103
ENCODING 259
SWIDTH 508 0
DWIDTH 9 0
BBX 9 17 0 -2
BITMAP
0000
000C
C60C
C607
7C00
0000
0007
7C0C
C600
0607
7E0C
C60C
C60C
CE07
7A00
0000
000E
ENDCHAR
STARTCHAR U+0104
ENCODING 260
SWIDTH 508 0
DWIDTH 9 0
BBX 9 17 0 -2
BITMAP
0000
0000
0000
0000
0003
3806
6C06
6C0C
C60C
C60F
FE0C
C60C
C60C
C60C
C600
0C00
070E
ENDCHAR
STARTCHAR U+0105
ENCODING 261
SWIDTH 508 0
DWIDTH 9 0
BBX 9 17 0 -2
BITMAP
0000
0000
0000
0000
0000
0000
0007
7C0C
C600
0607
7E0C
C60C
C60C
CE07
7A00
0C00
070E
ENDCHAR
STARTCHAR U+0106
ENCODING 262
SWIDTH 508 0
DWIDTH 9 0
BBX 9 17 0 -2
BITMAP
0001
1C07
7000
0000
0007
7C0C
C60C
C60C
C00C
C00C
C00C
C00C
C60C
C607
7C00
0000
000E
ENDCHAR
STARTCHAR U+0107
ENCODING 263
SWIDTH 508 0
DWIDTH 9 0
BBX 9 17 0 -2
BITMAP
0000
0000
0001
1C07
7000
0000
0007
7C0C
C60C
C00C
C00C
C00C
C00C
C607
7C00
0000
000E
ENDCHAR
STARTCHAR U+0108
ENCODING 264
SWIDTH 508 0
DWIDTH 9 0
BBX 9 17 0 -2
BITMAP
0003
3806
6C00
0000
0007
7C0C
C60C
C60C
C00C
C00C
C00C
C00C
C60C
C607
7C00
0000
000E
ENDCHAR
STARTCHAR U+0109
ENCODING 265
SWIDTH 508 0
DWIDTH 9 0
BBX 9 17 0 -2
BITMAP
0000
0000
0003
3806
6C00
0000
0007
7C0C
C60C
C00C
C00C
C00C
C00C
C607
7C00
0000
000E
ENDCHAR
STARTCHAR U+010A
ENCODING 266
SWIDTH 508 0
DWIDTH 9 0
BBX 9 17 0 -2
BITMAP
0003
3003
3000
0000
0007
7C0C
C60C
C60C
C00C
C00C
C00C
C00C
C60C
C607
7C00
0000
000E
ENDCHAR
STARTCHAR U+010B
ENCODING 267
SWIDTH 508 0
DWIDTH 9 0
BBX 9 17 0 -2
BITMAP
0000
0000
0003
3003
3000
0000
0007
7C0C
C60C
C00C
C00C
C00C
C00C
C607
7C00
0000
000E
ENDCHAR
STARTCHAR U+010C
ENCODING 268
SWIDTH 508 0
DWIDTH 9 0
BBX 9 17 0 -2
BITMAP
0006
6C03
3800
0000
0007
7C0C
C60C
C60C
C00C
C00C
C00C
C00C
C60C
C607
7C00
0000
000E
ENDCHAR
STARTCHAR U+010D
ENCODING 269
SWIDTH 508 0
DWIDTH 9 0
BBX 9 17 0 -2
BITMAP
0000
0000
0006
6C03
3800
0000
0007
7C0C
C60C
C00C
C00C
C00C
C00C
C607
7C00
0000
000E
ENDCHAR
STARTCHAR U+010E
ENCODING 270
SWIDTH 508 0
DWIDTH 9 0
BBX 9 17 0 -2
BITMAP
000D
D807
7000
0000
000F
F80C
CC0C
C60C
C60C
C60C
C60C
C60C
C60C
CC0F
F800
0000
000E
ENDCHAR
STARTCHAR U+010F
ENCODING 271
SWIDTH 508 0
DWIDTH 9 0
BBX 9 17 0 -2
BITMAP
0000
0000
0000
0701
1B01
1B01
1A07
780D
D80D
D80D
D80D
D80D
D80D
D806
6800
0000
000E
ENDCHAR
STARTCHAR U+0110
ENCODING 272
SWIDTH 508 0
DWIDTH 9 0
BBX 9 17 0 -2
BITMAP
0000
0000
0000
0000
000F
F80C
CC0C
C60C
C60F
F60C
C60C
C60C
C60C
CC0F
F800
0000
000E
ENDCHAR
STARTCHAR U+0111
ENCODING 273
SWIDTH 508 0
DWIDTH 9 0
BBX 9 17 0 -2
BITMAP
0000
0000
0000
0601
1F00
0600
0607
7A0C
CE0C
C60C
C60C
C60C
C60C
CE07
7A00
0000
000E
ENDCHAR
STARTCHAR U+0112
ENCODING 274
SWIDTH 508 0
DWIDTH 9 0
BBX 9 17 0 -2
BITMAP
0000
0007
7C00
0000
000F
FE0C
C00C
C00C
C00F
FC0C
C00C
C00C
C00C
C00F
FE00
0000
000E
ENDCHAR
STARTCHAR U+0113
ENCODING 275
SWIDTH 508 0
DWIDTH 9 0
BBX 9 17 0 -2
BITMAP
0000
0000
0000
0007
7C00
0000
0007
7C0C
C60C
C60F
FE0C
C00C
C00C
C607
7C00
0000
000E
ENDCHAR
STARTCHAR U+0114
ENCODING 276
SWIDTH 508 0
DWIDTH 9 0
BBX 9 17 0 -2
BITMAP
000C
C60C
C607
7C00
000F
FE0C
C00C
C00C
C00F
FC0C
C00C
C00C
C00C
C00F
FE00
0000
000E
ENDCHAR
STARTCHAR U+0115
ENCODING 277
SWIDTH 508 0
DWIDTH 9 0
BBX 9 17 0 -2
BITMAP
0000
0000
000C
C60C
C607
7C00
0007
7C0C
C60C
C60F
FE0C
C00C
C00C
C607
7C00
0000
000E
ENDCHAR
STARTCHAR U+0116
ENCODING 278
SWIDTH 508 0
DWIDTH 9 0
BBX 9 17 0 -2
BITMAP
0003
3003
3000
0000
000F
FE0C
C00C
C00C
C00F
FC0C
C00C
C00C
C00C
C00F
FE00
0000
000E
ENDCHAR
STARTCHAR U+0117
ENCODING 279
SWIDTH 508 0
DWIDTH 9 0
BBX 9 17 0 -2
BITMAP
0000
0000
0003
3003
3000
0000
0007
7C0C
C60C
C60F
FE0C
C00C
C00C
C607
7C00
0000
000E
ENDCHAR
STARTCHAR U+0118
ENCODING 280
SWIDTH 508 0
DWIDTH 9 0
BBX 9 17 0 -2
BITMAP
0000
0000
0000
0000
000F
FE0C
C00C
C00C
C00F
FC0C
C00C
C00C
C00C
C00F
FE01
1800
0E0E
ENDCHAR
STARTCHAR U+0119
ENCODING 281
SWIDTH 508 0
DWIDTH 9 0
BBX 9 17 0 -2
BITMAP
0000
0000
0000
0000
0000
0000
0007
7C0C
C60C
C60F
FE0C
C00C
C00C
C607
7C03
3001
1C0E
ENDCHAR
STARTCHAR U+011A
ENCODING 282
SWIDTH 508 0
DWIDTH 9 0
BBX 9 17 0 -2
BITMAP
0006
6C03
3800
0000
000F
FE0C
C00C
C00C
C00F
FC0C
C00C
C00C
C00C
C00F
FE00
0000
000E
ENDCHAR
STARTCHAR U+011B
ENCODING 283
SWIDTH 508 0
DWIDTH 9 0
BBX 9 17 0 -2
BITMAP
0000
0000
0006
6C03
3800
0000
0007
7C0C
C60C
C60F
FE0C
C00C
C00C
C607
7C00
0000
000E
ENDCHAR
STARTCHAR U+011C
ENCODING 284
SWIDTH 508 0
DWIDTH 9 0
BBX 9 17 0 -2
BITMAP
0003
3806
6C00
0000
0007
7C0C
C60C
C60C
C00C
C00D
DE0C
C60C
C60C
CE07
7A00
0000
000E
ENDCHAR
STARTCHAR U+011D
ENCODING 285
SWIDTH 508 0
DWIDTH 9 0
BBX 9 17 0 -2
BITMAP
0000
0000
0000
3800
6C00
0000
0600
7C00
CC00
CC00
CC00
7800
6000
7C00
C600
C600
7C00
ENDCHAR
STARTCHAR U+011E
ENCODING 286
SWIDTH 508 0
DWIDTH 9 0
BBX 9 17 0 -2
BITMAP
000C
C60C
C607
7C00
0007
7C0C
C60C
C60C
C00C
C00D
DE0C
C60C
C60C
CE07
7A00
0000
000E
ENDCHAR
STARTCHAR U+011F
ENCODING 287
SWIDTH 508 0
DWIDTH 9 0
BBX 9 17 0 -2
BITMAP
0000
0000
0000
C600
7C00
0000
0600
7C00
CC00
CC00
CC00
7800
6000
7C00
C600
C600
7C00
ENDCHAR
STARTCHAR U+0120
ENCODING 288
SWIDTH 508 0
DWIDTH 9 0
BBX 9 17 0 -2
BITMAP
0003
3003
3000
0000
0007
7C0C
C60C
C60C
C00C
C00D
DE0C
C60C
C60C
CE07
7A00
0000
000E
ENDCHAR
STARTCHAR U+0121
ENCODING 289
SWIDTH 508 0
DWIDTH 9 0
BBX 9 17 0 -2
BITMAP
0000
0000
0000
3000
3000
0000
0600
7C00
CC00
CC00
CC00
7800
6000
7C00
C600
C600
7C00
ENDCHAR
STARTCHAR U+0122
ENCODING 290
SWIDTH 508 0
DWIDTH 9 0
BBX 9 17 0 -2
BITMAP
0000
0000
0000
0000
0007
7C0C
C60C
C60C
C00C
C00D
DE0C
C60C
C60C
CE07
7A01
1807
700E
ENDCHAR
STARTCHAR U+0123
ENCODING 291
SWIDTH 508 0
DWIDTH 9 0
BBX 9 17 0 -2
BITMAP
0000
0000
0000
1C00
3000
0000
0600
7C00
CC00
CC00
CC00
7800
6000
7C00
C600
C600
7C00
ENDCHAR
STARTCHAR U+0124
ENCODING 292
SWIDTH 508 0
DWIDTH 9 0
BBX 9 17 0 -2
BITMAP
0003
3806
6C00
0000
000C
C60C
C60C
C60C
C60F
FE0C
C60C
C60C
C60C
C60C
C600
0000
000E
ENDCHAR
STARTCHAR U+0125
ENCODING 293
SWIDTH 508 0
DWIDTH 9 0
BBX 9 17 0 -2
BITMAP
0007
700D
D800
000C
C00C
C00C
C00D
DC0E
E60C
C60C
C60C
C60C
C60C
C60C
C600
0000
000E
ENDCHAR
STARTCHAR U+0126
ENCODING 294
SWIDTH 508 0
DWIDTH 9 0
BBX 9 17 0 -2
BITMAP
0000
0000
0000
0000
000C
C60C
C60F
FF0C
C60C
C60F
FE0C
C60C
C60C
C60C
C600
0000
000E
ENDCHAR
STARTCHAR U+0127
ENCODING 295
SWIDTH 508 0
DWIDTH 9 0
BBX 9 17 0 -2
BITMAP
0000
0000
000C
C00C
C00F
F00C
C00D
DC0E
E60C
C60C
C60C
C60C
C60C
C600
0000
0000
000E
ENDCHAR
STARTCHAR U+0128
ENCODING 296
SWIDTH 508 0
DWIDTH 9 0
BBX 9 17 0 -2
BITMAP
0007
760D
DC00
0000
0007
7E01
1801
1801
1801
1801
1801
1801
1801
1807
7E00
0000
000E
ENDCHAR
STARTCHAR U+0129
ENCODING 297
SWIDTH 508 0
DWIDTH 9 0
BBX 9 17 0 -2
BITMAP
0000
0000
0007
760D
DC00
0000
0003
3801
1801
1801
1801
1801
1801
1807
7E00
0000
000E
ENDCHAR
STARTCHAR U+012A
ENCODING 298
SWIDTH 508 0
DWIDTH 9 0
BBX 9 17 0 -2
BITMAP
0000
0007
7C00
0000
0007
7E01
1801
1801
1801
1801
1801
1801
1801
1807
7E00
0000
000E
ENDCHAR
STARTCHAR U+012B
ENCODING 299
SWIDTH 508 0
DWIDTH 9 0
BBX 9 17 0 -2
BITMAP
0000
0000
0000
0007
7C00
0000
0003
3801
1801
1801
1801
1801
1801
1807
7E00
0000
000E
ENDCHAR
STARTCHAR U+012C
ENCODING 300
SWIDTH 508 0
DWIDTH 9 0
BBX 9 17 0 -2
BITMAP
000C
C60C
C607
7C00
0007
7E01
1801
1801
1801
1801
1801
1801
1801
1807
7E00
0000
000E
ENDCHAR
STARTCHAR U+012D
ENCODING 301
SWIDTH 508 0
DWIDTH 9 0
BBX 9 17 0 -2
BITMAP
0000
0000
000C
C60C
C607
7C00
0003
3801
1801
1801
1801
1801
1801
1807
7E00
0000
000E
ENDCHAR
STARTCHAR U+012E
ENCODING 302
SWIDTH 508 0
DWIDTH 9 0
BBX 9 17 0 -2
BITMAP
0000
0000
0000
0000
0007
7E01
1801
1801
1801
1801
1801
1801
1801
1807
7E01
1800
0E0E
ENDCHAR
STARTCHAR U+012F
ENCODING 303
SWIDTH 508 0
DWIDTH 9 0
BBX 9 17 0 -2
BITMAP
0000
0000
0000
0001
1801
1800
0003
3801
1801
1801
1801
1801
1801
1807
7E01
1800
0E0E
ENDCHAR
STARTCHAR U+0130
ENCODING 304
SWIDTH 508 0
DWIDTH 9 0
BBX 9 17 0 -2
BITMAP
0001
1801
1800
0000
0007
7E01
1801
1801
1801
1801
1801
1801
1801
1807
7E00
0000
000E
ENDCHAR
STARTCHAR U+0131
ENCODING 305
SWIDTH 508 0
DWIDTH 9 0
BBX 9 17 0 -2
BITMAP
0000
0000
0000
0000
0000
0000
0003
3801
1801
1801
1801
1801
1801
1807
7E00
0000
000E
ENDCHAR
STARTCHAR U+0132
ENCODING 306
SWIDTH 508 0
DWIDTH 9 0
BBX 9 17 0 -2
BITMAP
0000
0000
0000
0000
000E
EF0C
C60C
C60C
C60C
C60C
C60C
C60D
D60D
D60E
EC00
0000
000E
ENDCHAR
STARTCHAR U+0133
ENCODING 307
SWIDTH 508 0
DWIDTH 9 0
BBX 9 17 0 -2
BITMAP
0000
0000
0000
0006
6606
6600
000E
EE06
6606
6606
6606
6606
6606
660F
F600
0601
1C0E
ENDCHAR
STARTCHAR U+0134
ENCODING 308
SWIDTH 508 0
DWIDTH 9 0
BBX 9 17 0 -2
BITMAP
0001
1C03
3600
0000
0003
3F00
0C00
0C00
0C00
0C00
0C00
0C0C
CC0C
CC07
7800
0000
000E
ENDCHAR
STARTCHAR U+0135
ENCODING 309
SWIDTH 508 0
DWIDTH 9 0
BBX 9 17 0 -2
BITMAP
0000
0000
0001
1C03
3600
0000
0001
1C00
0C00
0C00
0C00
0C00
0C00
0C00
0C0D
D807
700E
ENDCHAR
STARTCHAR U+0136
ENCODING 310
SWIDTH 508 0
DWIDTH 9 0
BBX 9 17 0 -2
BITMAP
0000
0000
0000
0000
0000
C600
CC00
D800
F000
E000
F000
D800
CC00
C600
C200
6000
C000
ENDCHAR
STARTCHAR U+0137
ENCODING 311
SWIDTH 508 0
DWIDTH 9 0
BBX 9 17 0 -2
BITMAP
0000
0000
0000
0000
000C
C00C
C00C
CC0D
D80D
D00E
E00D
D00D
D80C
CC0C
C606
600C
C00E
ENDCHAR
STARTCHAR U+0138
ENCODING 312
SWIDTH 508 0
DWIDTH 9 0
BBX 9 17 0 -2
BITMAP
0000
0000
0000
0000
0000
0000
000C
C60C
CC0D
D80F
F00F
F00D
D80C
CC0C
C600
0000
000E
ENDCHAR
STARTCHAR U+0139
ENCODING 313
SWIDTH 508 0
DWIDTH 9 0
BBX 9 17 0 -2
BITMAP
0003
380E
E000
0000
000C
C00C
C00C
C00C
C00C
C00C
C00C
C00C
C00C
C00F
FE00
0000
000E
ENDCHAR
STARTCHAR U+013A
ENCODING 314
SWIDTH 508 0
DWIDTH 9 0
BBX 9 17 0 -2
BITMAP
0001
1C07
7000
0000
0003
3801
1801
1801
1801
1801
1801
1801
1801
1807
7E00
0000
000E
ENDCHAR
STARTCHAR U+013B
ENCODING 315
SWIDTH 508 0
DWIDTH 9 0
BBX 9 17 0 -2
BITMAP
0000
0000
0000
0000
000C
C00C
C00C
C00C
C00C
C00C
C00C
C00C
C00C
C00F
FE01
1807
700E
ENDCHAR
STARTCHAR U+013C
ENCODING 316
SWIDTH 508 0
DWIDTH 9 0
BBX 9 17 0 -2
BITMAP
0000
0000
0000
0000
0003
3801
1801
1801
1801
1801
1801
1801
1801
1807
7E01
1807
700E
ENDCHAR
STARTCHAR U+013D
ENCODING 317
SWIDTH 508 0
DWIDTH 9 0
BBX 9 17 0 -2
BITMAP
0000
0000
0000
0003
380D
D80D
D80D
D00C
C00C
C00C
C00C
C00C
C00C
C00F
FE00
0000
000E
ENDCHAR
STARTCHAR U+013E
ENCODING 318
SWIDTH 508 0
DWIDTH 9 0
BBX 9 17 0 -2
BITMAP
0000
0000
0000
0000
0E07
7603
3603
3403
3003
3003
3003
3003
3003
300F
FC00
0000
000E
ENDCHAR
STARTCHAR U+013F
ENCODING 319
SWIDTH 508 0
DWIDTH 9 0
BBX 9 17 0 -2
BITMAP
0000
0000
0000
0000
000C
C00C
C00C
C00C
C00C
CC0C
CC0C
C00C
C00C
C00F
FE00
0000
000E
ENDCHAR
STARTCHAR U+0140
ENCODING 320
SWIDTH 508 0
DWIDTH 9 0
BBX 9 17 0 -2
BITMAP
0000
0000
0000
0000
0007
7003
3003
3003
3003
3403
3403
3003
3003
300F
FC00
0000
000E
ENDCHAR
STARTCHAR U+0141
ENCODING 321
SWIDTH 508 0
DWIDTH 9 0
BBX 9 17 0 -2
BITMAP
0000
0000
0000
0000
000C
C00C
C00D
D80D
D00E
E00C
C00C
C00C
C00C
C00F
FE00
0000
000E
ENDCHAR
STARTCHAR U+0142
ENCODING 322
SWIDTH 508 0
DWIDTH 9 0
BBX 9 17 0 -2
BITMAP
0000
0000
0000
0000
0003
3801
1801
1A01
1C03
3806
6801
1801
1801
1807
7E00
0000
000E
ENDCHAR
STARTCHAR U+0143
ENCODING 323
SWIDTH 508 0
DWIDTH 9 0
BBX 9 17 0 -2
BITMAP
0000
1C00
7000
0000
0000
C600
E600
E600
F600
D600
DE00
CE00
CE00
C600
C600
0000
0000
ENDCHAR
STARTCHAR U+0144
ENCODING 324
SWIDTH 508 0
DWIDTH 9 0
BBX 9 17 0 -2
BITMAP
0000
0000
0001
1C07
7000
0000
000D
DC0E
E60C
C60C
C60C
C60C
C60C
C60C
C600
0000
000E
ENDCHAR
STARTCHAR U+0145
ENCODING 325
SWIDTH 508 0
DWIDTH 9 0
BBX 9 17 0 -2
BITMAP
0000
0000
0000
0000
0000
C600
E600
E600
F600
D600
DE00
CE00
CE00
C600
C600
6000
C000
ENDCHAR
STARTCHAR U+0146
ENCODING 326
SWIDTH 508 0
DWIDTH 9 0
BBX 9 17 0 -2
BITMAP
0000
0000
0000
0000
0000
0000
000D
DC0E
E60C
C60C
C60C
C60C
C60C
C60C
C606
600C
C00E
ENDCHAR
STARTCHAR U+0147
ENCODING 327
SWIDTH 508 0
DWIDTH 9 0
BBX 9 17 0 -2
BITMAP
0000
6C00
3800
0000
0000
C600
E600
E600
F600
D600
D600
DE00
CE00
CE00
C600
0000
0000
ENDCHAR
STARTCHAR U+0148
ENCODING 328
SWIDTH 508 0
DWIDTH 9 0
BBX 9 17 0 -2
BITMAP
0000
0000
0006
6C03
3800
0000
000D
DC0E
E60C
C60C
C60C
C60C
C60C
C60C
C600
0000
000E
ENDCHAR
STARTCHAR U+0149
ENCODING 329
SWIDTH 508 0
DWIDTH 9 0
BBX 9 17 0 -2
BITMAP
0000
000E
E006
6006
600C
C000
000D
DC0E
E60C
C60C
C60C
C60C
C60C
C60C
C600
0000
000E
ENDCHAR
STARTCHAR U+014A
ENCODING 330
SWIDTH 508 0
DWIDTH 9 0
BBX 9 17 0 -2
BITMAP
0000
0000
0000
0000
000D
DC0E
E60C
C60C
C60C
C60C
C60C
C60C
C60C
C60D
DC00
0000
000E
ENDCHAR
STARTCHAR U+014B
ENCODING 331
SWIDTH 508 0
DWIDTH 9 0
BBX 9 17 0 -2
BITMAP
0000
0000
0000
0000
0000
0000
000D
DC0E
E60C
C60C
C60C
C60C
C60C
C60C
C600
0601
1C0E
ENDCHAR
STARTCHAR U+014C
ENCODING 332
SWIDTH 508 0
DWIDTH 9 0
BBX 9 17 0 -2
BITMAP
0000
0007
7C00
0000
0007
7C0C
C60C
C60C
C60C
C60C
C60C
C60C
C60C
C607
7C00
0000
000E
ENDCHAR
STARTCHAR U+014D
ENCODING 333
SWIDTH 508 0
DWIDTH 9 0
BBX 9 17 0 -2
BITMAP
0000
0000
0000
0007
7C00
0000
0007
7C0C
C60C
C60C
C60C
C60C
C60C
C607
7C00
0000
000E
ENDCHAR
STARTCHAR U+014E
ENCODING 334
SWIDTH 508 0
DWIDTH 9 0
BBX 9 17 0 -2
BITMAP
000C
C60C
C607
7C00
0007
7C0C
C60C
C60C
C60C
C60C
C60C
C60C
C60C
C607
7C00
0000
000E
ENDCHAR
STARTCHAR U+014F
ENCODING 335
SWIDTH 508 0
DWIDTH 9 0
BBX 9 17 0 -2
BITMAP
0000
0000
000C
C60C
C607
7C00
0007
7C0C
C60C
C60C
C60C
C60C
C60C
C607
7C00
0000
000E
ENDCHAR
STARTCHAR U+0150
ENCODING 336
SWIDTH 508 0
DWIDTH 9 0
BBX 9 17 0 -2
BITMAP
0007
770C
CC00
0000
0007
7C0C
C60C
C60C
C60C
C60C
C60C
C60C
C60C
C607
7C00
0000
000E
ENDCHAR
STARTCHAR U+0151
ENCODING 337
SWIDTH 508 0
DWIDTH 9 0
BBX 9 17 0 -2
BITMAP
0000
0000
0007
770C
CC00
0000
0007
7C0C
C60C
C60C
C60C
C60C
C60C
C607
7C00
0000
000E
ENDCHAR
STARTCHAR U+0152
ENCODING 338
SWIDTH 508 0
DWIDTH 9 0
BBX 9 17 0 -2
BITMAP
0000
0000
0000
0000
0007
770D
D80D
D80D
D80D
DE0D
D80D
D80D
D80D
D807
7700
0000
000E
ENDCHAR
STARTCHAR U+0153
ENCODING 339
SWIDTH 508 0
DWIDTH 9 0
BBX 9 17 0 -2
BITMAP
0000
0000
0000
0000
0000
0000
0007
760D
DB0D
DB0D
DF0D
D80D
D80D
DB07
7600
0000
000E
ENDCHAR
STARTCHAR U+0154
ENCODING 340
SWIDTH 508 0
DWIDTH 9 0
BBX 9 17 0 -2
BITMAP
0001
1C07
7000
0000
000F
FC0C
C60C
C60C
C60F
FC0D
D80C
CC0C
CC0C
C60C
C600
0000
000E
ENDCHAR
STARTCHAR U+0155
ENCODING 341
SWIDTH 508 0
DWIDTH 9 0
BBX 9 17 0 -2
BITMAP
0000
0000
0001
1C07
7000
0000
000D
DC0E
E60C
C60C
C00C
C00C
C00C
C00C
C000
0000
000E
ENDCHAR
STARTCHAR U+0156
ENCODING 342
SWIDTH 508 0
DWIDTH 9 0
BBX 9 17 0 -2
BITMAP
0000
0000
0000
0000
000F
FC0C
C60C
C60C
C60F
FC0D
D80C
CC0C
CC0C
C60C
C606
600C
C00E
ENDCHAR
STARTCHAR U+0157
ENCODING 343
SWIDTH 508 0
DWIDTH 9 0
BBX 9 17 0 -2
BITMAP
0000
0000
0000
0000
0000
0000
000D
DC0E
E60C
C60C
C00C
C00C
C00C
C00C
C006
600C
C00E
ENDCHAR
STARTCHAR U+0158
ENCODING 344
SWIDTH 508 0
DWIDTH 9 0
BBX 9 17 0 -2
BITMAP
0006
6C03
3800
0000
000F
FC0C
C60C
C60C
C60F
FC0D
D80C
CC0C
CC0C
C60C
C600
0000
000E
ENDCHAR
STARTCHAR U+0159
ENCODING 345
SWIDTH 508 0
DWIDTH 9 0
BBX 9 17 0 -2
BITMAP
0000
0000
0006
6C03
3800
0000
000D
DC0E
E60C
C60C
C00C
C00C
C00C
C00C
C000
0000
000E
ENDCHAR
STARTCHAR U+015A
ENCODING 346
SWIDTH 508 0
DWIDTH 9 0
BBX 9 17 0 -2
BITMAP
0001
1C07
7000
0000
0007
7C0C
C60C
C60C
C007
7001
1C00
060C
C60C
C607
7C00
0000
000E
ENDCHAR
STARTCHAR U+015B
ENCODING 347
SWIDTH 508 0
DWIDTH 9 0
BBX 9 17 0 -2
BITMAP
0000
0000
0001
1C07
7000
0000
0007
7C0C
C60C
C007
7001
1C0C
C60C
C607
7C00
0000
000E
ENDCHAR
STARTCHAR U+015C
ENCODING 348
SWIDTH 508 0
DWIDTH 9 0
BBX 9 17 0 -2
BITMAP
0003
3806
6C00
0000
0007
7C0C
C60C
C60C
C007
7001
1C00
060C
C60C
C607
7C00
0000
000E
ENDCHAR
STARTCHAR U+015D
ENCODING 349
SWIDTH 508 0
DWIDTH 9 0
BBX 9 17 0 -2
BITMAP
0000
0000
0003
3806
6C00
0000
0007
7C0C
C60C
C007
7001
1C00
060C
C607
7C00
0000
000E
ENDCHAR
STARTCHAR U+015E
ENCODING 350
SWIDTH 508 0
DWIDTH 9 0
BBX 9 17 0 -2
BITMAP
0000
0000
0000
0000
0007
7C0C
C60C
C60C
C007
7001
1C00
060C
C60C
C607
7C01
1807
700E
ENDCHAR
STARTCHAR U+015F
ENCODING 351
SWIDTH 508 0
DWIDTH 9 0
BBX 9 17 0 -2
BITMAP
0000
0000
0000
0000
0000
0000
0007
7C0C
C60C
C007
7001
1C00
060C
C607
7C01
1807
700E
ENDCHAR
STARTCHAR U+0160
ENCODING 352
SWIDTH 508 0
DWIDTH 9 0
BBX 9 17 0 -2
BITMAP
0006
6C03
3800
0000
0007
7C0C
C60C
C60C
C007
7001
1C00
060C
C60C
C607
7C00
0000
000E
ENDCHAR
STARTCHAR U+0161
ENCODING 353
SWIDTH 508 0
DWIDTH 9 0
BBX 9 17 0 -2
BITMAP
0000
0000
0006
6C03
3800
0000
0007
7C0C
C60C
C007
7001
1C00
060C
C607
7C00
0000
000E
ENDCHAR
STARTCHAR U+0162
ENCODING 354
SWIDTH 508 0
DWIDTH 9 0
BBX 9 17 0 -2
BITMAP
0000
0000
0000
0000
000F
FF01
1801
1801
1801
1801
1801
1801
1801
1801
1801
1807
700E
ENDCHAR
STARTCHAR U+0163
ENCODING 355
SWIDTH 508 0
DWIDTH 9 0
BBX 9 17 0 -2
BITMAP
0000
0000
0000
0000
0003
3003
300F
FC03
3003
3003
3003
3003
3003
3001
1C01
1807
700E
ENDCHAR
STARTCHAR U+0164
ENCODING 356
SWIDTH 508 0
DWIDTH 9 0
BBX 9 17 0 -2
BITMAP
0006
6C03
3800
0000
000F
FF01
1801
1801
1801
1801
1801
1801
1801
1801
1800
0000
000E
ENDCHAR
STARTCHAR U+0165
ENCODING 357
SWIDTH 508 0
DWIDTH 9 0
BBX 9 17 0 -2
BITMAP
0000
0000
0000
0E00
0603
3603
3403
300F
FC03
3003
3003
3003
3003
3001
1C00
0000
000E
ENDCHAR
STARTCHAR U+0166
ENCODING 358
SWIDTH 508 0
DWIDTH 9 0
BBX 9 17 0 -2
BITMAP
0000
0000
0000
0000
000F
FF01
1801
1801
1A01
1C03
3806
6801
1801
1801
1800
0000
000E
ENDCHAR
STARTCHAR U+0167
ENCODING 359
SWIDTH 508 0
DWIDTH 9 0
BBX 9 17 0 -2
BITMAP
0000
0000
0000
0000
0003
3003
300F
FC03
3003
3403
3807
700D
D003
3001
1C00
0000
000E
ENDCHAR
STARTCHAR U+0168
ENCODING 360
SWIDTH 508 0
DWIDTH 9 0
BBX 9 17 0 -2
BITMAP
0007
760D
DC00
0000
000C
C60C
C60C
C60C
C60C
C60C
C60C
C60C
C60C
C607
7C00
0000
000E
ENDCHAR
STARTCHAR U+0169
ENCODING 361
SWIDTH 508 0
DWIDTH 9 0
BBX 9 17 0 -2
BITMAP
0000
0000
0007
760D
DC00
0000
000C
C60C
C60C
C60C
C60C
C60C
C60C
CE07
7A00
0000
000E
ENDCHAR
STARTCHAR U+016A
ENCODING 362
SWIDTH 508 0
DWIDTH 9 0
BBX 9 17 0 -2
BITMAP
0000
0007
7C00
0000
000C
C60C
C60C
C60C
C60C
C60C
C60C
C60C
C60C
C607
7C00
0000
000E
ENDCHAR
STARTCHAR U+016B
ENCODING 363
SWIDTH 508 0
DWIDTH 9 0
BBX 9 17 0 -2
BITMAP
0000
0000
0000
0007
7C00
0000
000C
C60C
C60C
C60C
C60C
C60C
C60C
CE07
7A00
0000
000E
ENDCHAR
STARTCHAR U+016C
ENCODING 364
SWIDTH 508 0
DWIDTH 9 0
BBX 9 17 0 -2
BITMAP
000C
C60C
C607
7C00
000C
C60C
C60C
C60C
C60C
C60C
C60C
C60C
C60C
C607
7C00
0000
000E
ENDCHAR
STARTCHAR U+016D
ENCODING 365
SWIDTH 508 0
DWIDTH 9 0
BBX 9 17 0 -2
BITMAP
0000
000C
C60C
C607
7C00
0000
000C
C60C
C60C
C60C
C60C
C60C
C60C
CE07
7A00
0000
000E
ENDCHAR
STARTCHAR U+016E
ENCODING 366
SWIDTH 508 0
DWIDTH 9 0
BBX 9 17 0 -2
BITMAP
0003
3806
6C03
3800
000C
C60C
C60C
C60C
C60C
C60C
C60C
C60C
C60C
C607
7C00
0000
000E
ENDCHAR
STARTCHAR U+016F
ENCODING 367
SWIDTH 508 0
DWIDTH 9 0
BBX 9 17 0 -2
BITMAP
0000
0000
0003
3806
6C03
3800
000C
C60C
C60C
C60C
C60C
C60C
C60C
CE07
7A00
0000
000E
ENDCHAR
STARTCHAR U+0170
ENCODING 368
SWIDTH 508 0
DWIDTH 9 0
BBX 9 17 0 -2
BITMAP
0007
770C
CC00
0000
000C
C60C
C60C
C60C
C60C
C60C
C60C
C60C
C60C
C607
7C00
0000
000E
ENDCHAR
STARTCHAR U+0171
ENCODING 369
SWIDTH 508 0
DWIDTH 9 0
BBX 9 17 0 -2
BITMAP
0000
0000
0007
770C
CC00
0000
000C
C60C
C60C
C60C
C60C
C60C
C60C
CE07
7A00
0000
000E
ENDCHAR
STARTCHAR U+0172
ENCODING 370
SWIDTH 508 0
DWIDTH 9 0
BBX 9 17 0 -2
BITMAP
0000
0000
0000
0000
000C
C60C
C60C
C60C
C60C
C60C
C60C
C60C
C60C
C607
7C03
3001
1C0E
ENDCHAR
STARTCHAR U+0173
ENCODING 371
SWIDTH 508 0
DWIDTH 9 0
BBX 9 17 0 -2
BITMAP
0000
0000
0000
0000
0000
0000
000C
C60C
C60C
C60C
C60C
C60C
C60C
CE07
7A00
0C00
070E
ENDCHAR
STARTCHAR U+0174
ENCODING 372
SWIDTH 508 0
DWIDTH 9 0
BBX 9 17 0 -2
BITMAP
0000
3800
6C00
0000
0000
C300
C300
C300
C300
DB00
DB00
FF00
E700
C300
C300
0000
0000
ENDCHAR
STARTCHAR U+0175
ENCODING 373
SWIDTH 508 0
DWIDTH 9 0
BBX 9 17 0 -2
BITMAP
0000
0000
0003
3806
6C00
0000
000C
C30D
DB0D
DB0D
DB0D
DB0D
DB0D
DB07
7600
0000
000E
ENDCHAR
STARTCHAR U+0176
ENCODING 374
SWIDTH 508 0
DWIDTH 9 0
BBX 9 17 0 -2
BITMAP
0003
3806
6C00
0000
000C
C30C
C306
6606
6603
3401
1801
1801
1801
1801
1800
0000
000E
ENDCHAR
STARTCHAR U+0177
ENCODING 375
SWIDTH 508 0
DWIDTH 9 0
BBX 9 17 0 -2
BITMAP
0000
0000
0000
3800
6C00
0000
0000
C600
C600
C600
C600
C600
CE00
7600
0600
0600
7C00
ENDCHAR
STARTCHAR U+0178
ENCODING 376
SWIDTH 508 0
DWIDTH 9 0
BBX 9 17 0 -2
BITMAP
0000
6C00
6C00
0000
0000
C300
C300
6600
6600
3C00
1800
1800
1800
1800
1800
0000
0000
ENDCHAR
STARTCHAR U+0179
ENCODING 377
SWIDTH 508 0
DWIDTH 9 0
BBX 9 17 0 -2
BITMAP
0001
1C07
7000
0000
000F
FE00
0600
0600
0C01
1803
3006
600C
C00C
C00F
FE00
0000
000E
ENDCHAR
STARTCHAR U+017A
ENCODING 378
SWIDTH 508 0
DWIDTH 9 0
BBX 9 17 0 -2
BITMAP
0000
0000
0001
1C07
7000
0000
000F
FE00
0600
0C01
1803
3006
600C
C00F
FE00
0000
000E
ENDCHAR
STARTCHAR U+017B
ENCODING 379
SWIDTH 508 0
DWIDTH 9 0
BBX 9 17 0 -2
BITMAP
0003
3003
3000
0000
000F
FE00
0600
0600
0C01
1803
3006
600C
C00C
C00F
FE00
0000
000E
ENDCHAR
STARTCHAR U+017C
ENCODING 380
SWIDTH 508 0
DWIDTH 9 0
BBX 9 17 0 -2
BITMAP
0000
0000
0003
3003
3000
0000
000F
FE00
0600
0C01
1803
3006
600C
C00F
FE00
0000
000E
ENDCHAR
STARTCHAR U+017D
ENCODING 381
SWIDTH 508 0
DWIDTH 9 0
BBX 9 17 0 -2
BITMAP
0006
6C03
3800
0000
000F
FE00
0600
0600
0C01
1803
3006
600C
C00C
C00F
FE00
0000
000E
ENDCHAR
STARTCHAR U+017E
ENCODING 382
SWIDTH 508 0
DWIDTH 9 0
BBX 9 17 0 -2
BITMAP
0000
0000
0006
6C03
3800
0000
000F
FE00
0600
0C01
1803
3006
600C
C00F
FE00
0000
000E
ENDCHAR
STARTCHAR U+017F
ENCODING 383
SWIDTH 508 0
DWIDTH 9 0
BBX 9 17 0 -2
BITMAP
0000
0000
0000
0001
1C03
3003
3003
3007
7003
3003
3003
3003
3003
3003
3000
0000
000E
ENDCHAR
STARTCHAR U+0180
ENCODING 384
SWIDTH 508 0
DWIDTH 9 0
BBX 9 17 0 -2
BITMAP
0000
0000
0000
000C
C00F
F00C
C00D
DC0E
E60C
C60C
C60C
C60C
C60E
E60D
DC00
0000
000E
ENDCHAR
STARTCHAR U+0181
ENCODING 385
SWIDTH 508 0
DWIDTH 9 0
BBX 9 17 0 -2
BITMAP
0000
0000
0000
0000
000F
FC0A
A60A
A606
6607
7C06
6606
6606
6606
6607
7C00
0000
000E
ENDCHAR
STARTCHAR U+0182
ENCODING 386
SWIDTH 508 0
DWIDTH 9 0
BBX 9 17 0 -2
BITMAP
0000
0000
0000
0000
000F
FE0C
C00C
C00C
C00F
FC0C
C60C
C60C
C60C
C60F
FC00
0000
000E
ENDCHAR
STARTCHAR U+0183
ENCODING 387
SWIDTH 508 0
DWIDTH 9 0
BBX 9 17 0 -2
BITMAP
0000
0000
0000
0000
000F
FE0C
C00C
C00D
DC0E
E60C
C60C
C60C
C60E
E60D
DC00
0000
000E
ENDCHAR
STARTCHAR U+0184
ENCODING 388
SWIDTH 508 0
DWIDTH 9 0
BBX 9 17 0 -2
BITMAP
0000
0000
0000
0000
000E
E006
6006
6006
6007
7C06
6606
6606
6606
6607
7C00
0000
000E
ENDCHAR
STARTCHAR U+0185
ENCODING 389
SWIDTH 508 0
DWIDTH 9 0
BBX 9 17 0 -2
BITMAP
0000
0000
0000
0000
0000
0000
000E
E006
6006
6006
6007
7C06
6606
6607
7C00
0000
000E
ENDCHAR
STARTCHAR U+0186
ENCODING 390
SWIDTH 508 0
DWIDTH 9 0
BBX 9 17 0 -2
BITMAP
0000
0000
0000
0000
0007
7C0C
C60C
C600
0600
0600
0600
060C
C60C
C60F
FC00
0000
000E
ENDCHAR
STARTCHAR U+0187
ENCODING 391
SWIDTH 508 0
DWIDTH 9 0
BBX 9 17 0 -2
BITMAP
0000
0000
0000
0700
0C07
7C0C
CC0C
CC0C
C00C
C00C
C00C
C00C
CC0C
CC07
7800
0000
000E
ENDCHAR
STARTCHAR U+0188
ENCODING 392
SWIDTH 508 0
DWIDTH 9 0
BBX 9 17 0 -2
BITMAP
0000
0000
0000
0000
0000
0700
0C07
7C0C
CC0C
C00C
C00C
C00C
C00C
CC07
7800
0000
000E
ENDCHAR
STARTCHAR U+0189
ENCODING 393
SWIDTH 508 0
DWIDTH 9 0
BBX 9 17 0 -2
BITMAP
0000
0000
0000
0000
000F
F80C
CC0C
C60C
C60F
F60C
C60C
C60C
C60C
CC0F
F800
0000
000E
ENDCHAR
STARTCHAR U+018A
ENCODING 394
SWIDTH 508 0
DWIDTH 9 0
BBX 9 17 0 -2
BITMAP
0000
0000
0000
0000
000F
F80A
AC0A
A606
6606
6606
6606
6606
6606
6C07
7800
0000
000E
ENDCHAR
STARTCHAR U+018B
ENCODING 395
SWIDTH 508 0
DWIDTH 9 0
BBX 9 17 0 -2
BITMAP
0000
0000
0000
0000
000F
FE00
0600
0600
0607
7E0C
C60C
C60C
C60C
C607
7E00
0000
000E
ENDCHAR
STARTCHAR U+018C
ENCODING 396
SWIDTH 508 0
DWIDTH 9 0
BBX 9 17 0 -2
BITMAP
0000
0000
0000
0000
000F
FE00
0600
0607
7A0C
CE0C
C60C
C60C
C60C
CE07
7A00
0000
000E
ENDCHAR
STARTCHAR U+018D
ENCODING 397
SWIDTH 508 0
DWIDTH 9 0
BBX 9 17 0 -2
BITMAP
0000
0000
0000
0000
0000
0000
0007
7C0C
C60C
C60C
C60C
C606
6C03
3800
0C00
0C07
780E
ENDCHAR
STARTCHAR U+018E
ENCODING 398
SWIDTH 508 0
DWIDTH 9 0
BBX 9 17 0 -2
BITMAP
0000
0000
0000
0000
000F
FE00
0600
0600
0607
7E00
0600
0600
0600
060F
FE00
0000
000E
ENDCHAR
STARTCHAR U+018F
ENCODING 399
SWIDTH 508 0
DWIDTH 9 0
BBX 9 17 0 -2
BITMAP
0000
0000
0000
0000
0003
3806
6C0C
C600
0600
060F
FE0C
C60C
C606
6C03
3800
0000
000E
ENDCHAR
STARTCHAR U+0190
ENCODING 400
SWIDTH 508 0
DWIDTH 9 0
BBX 9 17 0 -2
BITMAP
0000
0000
0000
0000
0007
7C0C
C60C
C60C
C007
780C
C00C
C00C
C60C
C607
7C00
0000
000E
ENDCHAR
STARTCHAR U+0191
ENCODING 401
SWIDTH 508 0
DWIDTH 9 0
BBX 9 17 0 -2
BITMAP
0000
0000
0000
0000
0003
3F03
3003
3003
3003
3E03
3003
3003
3003
3003
300E
E000
000E
ENDCHAR
STARTCHAR U+0192
ENCODING 402
SWIDTH 508 0
DWIDTH 9 0
BBX 9 17 0 -2
BITMAP
0000
0000
0000
0001
1C03
3003
3003
300F
FC03
3003
3003
3003
3003
3003
300E
E000
000E
ENDCHAR
STARTCHAR U+0193
ENCODING 403
SWIDTH 508 0
DWIDTH 9 0
BBX 9 17 0 -2
BITMAP
0000
0000
0000
0000
0707
7C0C
CC0C
CC0C
C00C
C00D
DC0C
CC0C
CC0D
DC07
7400
0000
000E
ENDCHAR
STARTCHAR U+0194
ENCODING 404
SWIDTH 508 0
DWIDTH 9 0
BBX 9 17 0 -2
BITMAP
0000
0000
0000
0000
000C
C60C
C60C
C606
6C06
6C03
3803
3806
6C06
6C03
3800
0000
000E
ENDCHAR
STARTCHAR U+0195
ENCODING 405
SWIDTH 508 0
DWIDTH 9 0
BBX 9 17 0 -2
BITMAP
0000
0000
0000
000C
C00C
C00C
C00C
C00F
F30D
DB0D
DB0D
DB0D
DB0D
DB0C
CE00
0000
000E
ENDCHAR
STARTCHAR U+0196
ENCODING 406
SWIDTH 508 0
DWIDTH 9 0
BBX 9 17 0 -2
BITMAP
0000
0000
0000
0000
000F
F003
3003
3003
3003
3003
3003
3003
3003
3001
1C00
0000
000E
ENDCHAR
STARTCHAR U+0197
ENCODING 407
SWIDTH 508 0
DWIDTH 9 0
BBX 9 17 0 -2
BITMAP
0000
0000
0000
0000
0007
7E01
1801
1801
1807
7E01
1801
1801
1801
1807
7E00
0000
000E
ENDCHAR
STARTCHAR U+0198
ENCODING 408
SWIDTH 508 0
DWIDTH 9 0
BBX 9 17 0 -2
BITMAP
0000
0000
0000
0000
000C
CE0D
DA0D
D00D
D00E
E00E
E00D
D00D
D80C
CC0C
C600
0000
000E
ENDCHAR
STARTCHAR U+0199
ENCODING 409
SWIDTH 508 0
DWIDTH 9 0
BBX 9 17 0 -2
BITMAP
0000
0000
0000
0007
700C
C00C
C00C
CC0D
D80D
D00E
E00D
D00D
D80C
CC0C
C600
0000
000E
ENDCHAR
STARTCHAR U+019A
ENCODING 410
SWIDTH 508 0
DWIDTH 9 0
BBX 9 17 0 -2
BITMAP
0000
0000
0000
0000
0003
3801
1801
1801
1807
7E01
1801
1801
1801
1807
7E00
0000
000E
ENDCHAR
STARTCHAR U+019B
ENCODING 411
SWIDTH 508 0
DWIDTH 9 0
BBX 9 17 0 -2
BITMAP
0000
0000
0000
0000
0006
6C06
6803
3007
700D
D803
3806
6C06
6C0C
C60C
C600
0000
000E
ENDCHAR
STARTCHAR U+019C
ENCODING 412
SWIDTH 508 0
DWIDTH 9 0
BBX 9 17 0 -2
BITMAP
0000
0000
0000
0000
000D
DB0D
DB0D
DB0D
DB0D
DB0D
DB0D
DB0D
DB0D
DB07
7700
0000
000E
ENDCHAR
STARTCHAR U+019D
ENCODING 413
SWIDTH 508 0
DWIDTH 9 0
BBX 9 17 0 -2
BITMAP
0000
0000
0000
0000
0006
6606
6607
7607
7606
6A06
6A06
6E06
6E06
6606
660C
C000
000E
ENDCHAR
STARTCHAR U+019E
ENCODING 414
SWIDTH 508 0
DWIDTH 9 0
BBX 9 17 0 -2
BITMAP
0000
0000
0000
0000
0000
0000
000D
DC0E
E60C
C60C
C60C
C60C
C60C
C60C
C600
0600
060E
ENDCHAR
STARTCHAR U+019F
ENCODING 415
SWIDTH 508 0
DWIDTH 9 0
BBX 9 17 0 -2
BITMAP
0000
0000
0000
0000
0007
7C0C
C60C
C60C
C60F
FE0C
C60C
C60C
C60C
C607
7C00
0000
000E
ENDCHAR
STARTCHAR U+01A0
ENCODING 416
SWIDTH 508 0
DWIDTH 9 0
BBX 9 17 0 -2
BITMAP
0000
0000
0000
0000
0607
7A0C
CC0C
CC0C
CC0C
CC0C
CC0C
CC0C
CC0C
CC07
7800
0000
000E
ENDCHAR
STARTCHAR U+01A1
ENCODING 417
SWIDTH 508 0
DWIDTH 9 0
BBX 9 17 0 -2
BITMAP
0000
0000
0000
0000
0000
0000
0607
7A0C
CC0C
CC0C
CC0C
CC0C
CC0C
CC07
7800
0000
000E
ENDCHAR
STARTCHAR U+01A2
ENCODING 418
SWIDTH 508 0
DWIDTH 9 0
BBX 9 17 0 -2
BITMAP
0000
0000
0000
0000
0007
760D
DA0D
DA0D
DA0D
DA0D
DA0D
DA0D
DA0D
DA07
7600
0600
060E
ENDCHAR
STARTCHAR U+01A3
ENCODING 419
SWIDTH 508 0
DWIDTH 9 0
BBX 9 17 0 -2
BITMAP
0000
0000
0000
0000
0000
0000
0007
760D
DA0D
DA0D
DA0D
DA0D
DA0D
DA07
7600
0600
060E
ENDCHAR
STARTCHAR U+01A4
ENCODING 420
SWIDTH 508 0
DWIDTH 9 0
BBX 9 17 0 -2
BITMAP
0000
0000
0000
0000
0007
7E0D
D30D
D303
3303
3E03
3003
3003
3003
3003
3000
0000
000E
ENDCHAR
STARTCHAR U+01A5
ENCODING 421
SWIDTH 508 0
DWIDTH 9 0
BBX 9 17 0 -2
BITMAP
0000
0000
0000
0000
0000
0000
070D
DC0E
EC0C
CC0C
CC0C
CC0C
CC0E
EC0D
D80C
C00C
C00E
ENDCHAR
STARTCHAR U+01A6
ENCODING 422
SWIDTH 508 0
DWIDTH 9 0
BBX 9 17 0 -2
BITMAP
0000
0000
0000
0000
000F
F006
6007
7C06
6606
6607
7C06
6806
6C06
6606
6300
0000
000E
ENDCHAR
STARTCHAR U+01A7
ENCODING 423
SWIDTH 508 0
DWIDTH 9 0
BBX 9 17 0 -2
BITMAP
0000
0000
0000
0000
0007
7C0C
C60C
C600
0601
1C07
700C
C00C
C60C
C607
7C00
0000
000E
ENDCHAR
STARTCHAR U+01A8
ENCODING 424
SWIDTH 508 0
DWIDTH 9 0
BBX 9 17 0 -2
BITMAP
0000
0000
0000
0000
0000
0000
0007
7C0C
C600
0601
1C07
700C
C00C
C607
7C00
0000
000E
ENDCHAR
STARTCHAR U+01A9
ENCODING 425
SWIDTH 508 0
DWIDTH 9 0
BBX 9 17 0 -2
BITMAP
0000
0000
0000
0000
000F
FE0C
C006
6003
3001
1801
1803
3006
600C
C00F
FE00
0000
000E
ENDCHAR
STARTCHAR U+01AA
ENCODING 426
SWIDTH 508 0
DWIDTH 9 0
BBX 9 17 0 -2
BITMAP
0000
0000
0000
0006
600D
D00D
D007
7003
3003
3003
3003
3003
3003
3003
3001
1C00
000E
ENDCHAR
STARTCHAR U+01AB
ENCODING 427
SWIDTH 508 0
DWIDTH 9 0
BBX 9 17 0 -2
BITMAP
0000
0000
0000
0000
0003
3003
300F
FC03
3003
3003
3003
3003
3003
3001
1C00
0C03
380E
ENDCHAR
STARTCHAR U+01AC
ENCODING 428
SWIDTH 508 0
DWIDTH 9 0
BBX 9 17 0 -2
BITMAP
0000
0000
0000
0000
0007
7F0D
D80D
D801
1801
1801
1801
1801
1801
1801
1800
0000
000E
ENDCHAR
STARTCHAR U+01AD
ENCODING 429
SWIDTH 508 0
DWIDTH 9 0
BBX 9 17 0 -2
BITMAP
0000
0000
0000
0001
1C03
3003
3003
300F
FC03
3003
3003
3003
3003
3001
1C00
0000
000E
ENDCHAR
STARTCHAR U+01AE
ENCODING 430
SWIDTH 508 0
DWIDTH 9 0
BBX 9 17 0 -2
BITMAP
0000
0000
0000
0000
000F
FF01
1801
1801
1801
1801
1801
1801
1801
1801
1800
0E00
000E
ENDCHAR
STARTCHAR U+01AF
ENCODING 431
SWIDTH 508 0
DWIDTH 9 0
BBX 9 17 0 -2
BITMAP
0000
0000
0000
0300
030C
CE0C
CC0C
CC0C
CC0C
CC0C
CC0C
CC0C
CC0C
CC07
7800
0000
000E
ENDCHAR
STARTCHAR U+01B0
ENCODING 432
SWIDTH 508 0
DWIDTH 9 0
BBX 9 17 0 -2
BITMAP
0000
0000
0000
0000
0000
0300
030C
CE0C
CC0C
CC0C
CC0C
CC0C
CC0D
DC07
7400
0000
000E
ENDCHAR
STARTCHAR U+01B1
ENCODING 433
SWIDTH 508 0
DWIDTH 9 0
BBX 9 17 0 -2
BITMAP
0000
0000
0000
0000
000C
C606
6C06
6C0C
C60C
C60C
C60C
C60C
C606
6C03
3800
0000
000E
ENDCHAR
STARTCHAR U+01B2
ENCODING 434
SWIDTH 508 0
DWIDTH 9 0
BBX 9 17 0 -2
BITMAP
0000
0000
0000
0000
000D
DC0C
C60C
C60C
C60C
C60C
C60C
C60C
CC0D
D807
7000
0000
000E
ENDCHAR
STARTCHAR U+01B3
ENCODING 435
SWIDTH 508 0
DWIDTH 9 0
BBX 9 17 0 -2
BITMAP
0000
0000
0000
0000
0007
730D
D303
3301
1A01
1A00
0C00
0C00
0C00
0C00
0C00
0000
000E
ENDCHAR
STARTCHAR U+01B4
ENCODING 436
SWIDTH 508 0
DWIDTH 9 0
BBX 9 17 0 -2
BITMAP
0000
0000
0000
0000
0000
0000
070C
CC0C
CC0C
CC0C
CC0C
CC06
6C03
3C00
0C00
0C07
780E
ENDCHAR
STARTCHAR U+01B5
ENCODING 437
SWIDTH 508 0
DWIDTH 9 0
BBX 9 17 0 -2
BITMAP
0000
0000
0000
0000
000F
FE00
0600
0C01
1807
7C03
3006
600C
C00C
C00F
FE00
0000
000E
ENDCHAR
STARTCHAR U+01B6
ENCODING 438
SWIDTH 508 0
DWIDTH 9 0
BBX 9 17 0 -2
BITMAP
0000
0000
0000
0000
0000
0000
000F
FE00
0C01
1807
7C03
3006
600C
C00F
FE00
0000
000E
ENDCHAR
STARTCHAR U+01B7
ENCODING 439
SWIDTH 508 0
DWIDTH 9 0
BBX 9 17 0 -2
BITMAP
0000
0000
0000
0000
000F
FE00
0C01
1803
3003
3C00
0600
0600
060C
CE07
7C00
0000
000E
ENDCHAR
STARTCHAR U+01B8
ENCODING 440
SWIDTH 508 0
DWIDTH 9 0
BBX 9 17 0 -2
BITMAP
0000
0000
0000
0000
000F
FE06
6003
3001
1807
780C
C00C
C00C
C00E
E607
7C00
0000
000E
ENDCHAR
STARTCHAR U+01B9
ENCODING 441
SWIDTH 508 0
DWIDTH 9 0
BBX 9 17 0 -2
BITMAP
0000
0000
0000
0000
0000
0000
000F
FC06
6003
3001
1807
780C
C00C
C00C
C00C
C607
7C0E
ENDCHAR
STARTCHAR U+01BA
ENCODING 442
SWIDTH 508 0
DWIDTH 9 0
BBX 9 17 0 -2
BITMAP
0000
0000
0000
0000
0000
0000
0007
7E00
0C01
1803
3C00
0600
0607
7C0C
C00C
C607
7C0E
ENDCHAR
STARTCHAR U+01BB
ENCODING 443
SWIDTH 508 0
DWIDTH 9 0
BBX 9 17 0 -2
BITMAP
0000
0000
0000
0000
0007
7C0C
C60C
C600
0C01
180F
FE06
600C
C00C
C00F
FE00
0000
000E
ENDCHAR
STARTCHAR U+01BC
ENCODING 444
SWIDTH 508 0
DWIDTH 9 0
BBX 9 17 0 -2
BITMAP
0000
0000
0000
0000
000F
FE06
6006
6006
6007
7C00
0600
0600
060C
C607
7C00
0000
000E
ENDCHAR
STARTCHAR U+01BD
ENCODING 445
SWIDTH 508 0
DWIDTH 9 0
BBX 9 17 0 -2
BITMAP
0000
0000
0000
0000
0000
0000
000F
FE06
6006
6007
7C00
0600
060C
C607
7C00
0000
000E
ENDCHAR
STARTCHAR U+01BE
ENCODING 446
SWIDTH 508 0
DWIDTH 9 0
BBX 9 17 0 -2
BITMAP
0000
0000
0000
0000
0003
3003
300F
FC03
3003
3003
3800
0C00
0C0C
CC07
7800
0000
000E
ENDCHAR
STARTCHAR U+01BF
ENCODING 447
SWIDTH 508 0
DWIDTH 9 0
BBX 9 17 0 -2
BITMAP
0000
0000
0000
0000
0000
0000
000D
DC0E
E60C
C60C
C60C
CC0D
D80D
D00E
E00C
C00C
C00E
ENDCHAR
STARTCHAR U+01C0
ENCODING 448
SWIDTH 508 0
DWIDTH 9 0
BBX 9 17 0 -2
BITMAP
0000
0000
0000
0003
3003
3003
3003
3003
3003
3003
3003
3003
3003
3003
3000
0000
000E
ENDCHAR
STARTCHAR U+01C1
ENCODING 449
SWIDTH 508 0
DWIDTH 9 0
BBX 9 17 0 -2
BITMAP
0000
0000
0000
0006
6806
6806
6806
6806
6806
6806
6806
6806
6806
6806
6800
0000
000E
ENDCHAR
STARTCHAR U+01C2
ENCODING 450
SWIDTH 508 0
DWIDTH 9 0
BBX 9 17 0 -2
BITMAP
0000
0000
0000
0003
3003
3003
3003
300F
FC03
300F
FC03
3003
3003
3003
3000
0000
000E
ENDCHAR
STARTCHAR U+01C3
ENCODING 451
SWIDTH 508 0
DWIDTH 9 0
BBX 9 17 0 -2
BITMAP
0000
0000
0000
0000
0001
1801
1801
1801
1801
1801
1801
1800
0001
1801
1800
0000
000E
ENDCHAR
STARTCHAR U+01C4
ENCODING 452
SWIDTH 508 0
DWIDTH 9 0
BBX 9 17 0 -2
BITMAP
0000
0000
0D00
0600
000E
EF0D
D30D
D30D
D30D
D60D
D60D
D40D
D40D
D40E
EF00
0000
000E
ENDCHAR
STARTCHAR U+01C5
ENCODING 453
SWIDTH 508 0
DWIDTH 9 0
BBX 9 17 0 -2
BITMAP
0000
0000
0000
0000
0D0E
E60D
D00D
D70D
D30D
D30D
D60D
D60D
D40D
D40E
EF00
0000
000E
ENDCHAR
STARTCHAR U+01C6
ENCODING 454
SWIDTH 508 0
DWIDTH 9 0
BBX 9 17 0 -2
BITMAP
0000
0000
0000
0003
3503
3603
3007
770D
D30D
D30D
D60D
D60D
D40D
D407
7700
0000
000E
ENDCHAR
STARTCHAR U+01C7
ENCODING 455
SWIDTH 508 0
DWIDTH 9 0
BBX 9 17 0 -2
BITMAP
0000
0000
0000
0000
000C
CF0C
C30C
C30C
C30C
C30C
C30C
C30D
DB0D
DB0F
F600
0000
000E
ENDCHAR
STARTCHAR U+01C8
ENCODING 456
SWIDTH 508 0
DWIDTH 9 0
BBX 9 17 0 -2
BITMAP
0000
0000
0000
0000
030C
C30C
C00C
C70C
C30C
C30C
C30C
C30C
C30C
C30F
FB00
0601
1C0E
ENDCHAR
STARTCHAR U+01C9
ENCODING 457
SWIDTH 508 0
DWIDTH 9 0
BBX 9 17 0 -2
BITMAP
0000
0000
0000
0000
030E
E306
6006
6706
6306
6306
6306
6306
6306
630F
FB00
0601
1C0E
ENDCHAR
STARTCHAR U+01CA
ENCODING 458
SWIDTH 508 0
DWIDTH 9 0
BBX 9 17 0 -2
BITMAP
0000
0000
0000
0000
000D
DB0D
DB0D
DB0E
EB0E
EB0D
DB0D
DB0D
DD0D
DD0D
DA00
0000
000E
ENDCHAR
STARTCHAR U+01CB
ENCODING 459
SWIDTH 508 0
DWIDTH 9 0
BBX 9 17 0 -2
BITMAP
0000
0000
0000
0000
030D
DB0D
D80E
EB0E
EB0E
EB0D
DB0D
DB0D
DB0D
DB0D
DB03
3601
1C0E
ENDCHAR
STARTCHAR U+01CC
ENCODING 460
SWIDTH 508 0
DWIDTH 9 0
BBX 9 17 0 -2
BITMAP
0000
0000
0000
0000
0300
0300
000D
D70E
EB0D
DB0D
DB0D
DB0D
DB0D
DB0D
DB03
3601
1C0E
ENDCHAR
STARTCHAR U+01CD
ENCODING 461
SWIDTH 508 0
DWIDTH 9 0
BBX 9 17 0 -2
BITMAP
0006
6C03
3800
0000
0003
3806
6C06
6C0C
C60C
C60F
FE0C
C60C
C60C
C60C
C600
0000
000E
ENDCHAR
STARTCHAR U+01CE
ENCODING 462
SWIDTH 508 0
DWIDTH 9 0
BBX 9 17 0 -2
BITMAP
0000
0000
0006
6C03
3800
0000
0007
7C0C
C600
0607
7E0C
C60C
C60C
CE07
7A00
0000
000E
ENDCHAR
STARTCHAR U+01CF
ENCODING 463
SWIDTH 508 0
DWIDTH 9 0
BBX 9 17 0 -2
BITMAP
0006
6C03
3800
0000
0007
7E01
1801
1801
1801
1801
1801
1801
1801
1807
7E00
0000
000E
ENDCHAR
STARTCHAR U+01D0
ENCODING 464
SWIDTH 508 0
DWIDTH 9 0
BBX 9 17 0 -2
BITMAP
0000
0000
0006
6C03
3800
0000
0003
3801
1801
1801
1801
1801
1801
1807
7E00
0000
000E
ENDCHAR
STARTCHAR U+01D1
ENCODING 465
SWIDTH 508 0
DWIDTH 9 0
BBX 9 17 0 -2
BITMAP
0006
6C03
3800
0000
0007
7C0C
C60C
C60C
C60C
C60C
C60C
C60C
C60C
C607
7C00
0000
000E
ENDCHAR
STARTCHAR U+01D2
ENCODING 466
SWIDTH 508 0
DWIDTH 9 0
BBX 9 17 0 -2
BITMAP
0000
0000
0006
6C03
3800
0000
0007
7C0C
C60C
C60C
C60C
C60C
C60C
C607
7C00
0000
000E
ENDCHAR
STARTCHAR U+01D3
ENCODING 467
SWIDTH 508 0
DWIDTH 9 0
BBX 9 17 0 -2
BITMAP
0006
6C03
3800
0000
000C
C60C
C60C
C60C
C60C
C60C
C60C
C60C
C60C
C607
7C00
0000
000E
ENDCHAR
STARTCHAR U+01D4
ENCODING 468
SWIDTH 508 0
DWIDTH 9 0
BBX 9 17 0 -2
BITMAP
0000
0000
0006
6C03
3800
0000
000C
C60C
C60C
C60C
C60C
C60C
C60C
CE07
7A00
0000
000E
ENDCHAR
STARTCHAR U+01D5
ENCODING 469
SWIDTH 508 0
DWIDTH 9 0
BBX 9 17 0 -2
BITMAP
0007
7C00
0006
6C00
000C
C60C
C60C
C60C
C60C
C60C
C60C
C60C
C60C
C607
7C00
0000
000E
ENDCHAR
STARTCHAR U+01D6
ENCODING 470
SWIDTH 508 0
DWIDTH 9 0
BBX 9 17 0 -2
BITMAP
0000
0007
7C00
0006
6C06
6C00
000C
C60C
C60C
C60C
C60C
C60C
C60C
CE07
7A00
0000
000E
ENDCHAR
STARTCHAR U+01D7
ENCODING 471
SWIDTH 508 0
DWIDTH 9 0
BBX 9 17 0 -2
BITMAP
0001
1C07
7000
0006
6C00
000C
C60C
C60C
C60C
C60C
C60C
C60C
C60C
C607
7C00
0000
000E
ENDCHAR
STARTCHAR U+01D8
ENCODING 472
SWIDTH 508 0
DWIDTH 9 0
BBX 9 17 0 -2
BITMAP
0001
1C07
7000
0006
6C06
6C00
000C
C60C
C60C
C60C
C60C
C60C
C60C
CE07
7A00
0000
000E
ENDCHAR
STARTCHAR U+01D9
ENCODING 473
SWIDTH 508 0
DWIDTH 9 0
BBX 9 17 0 -2
BITMAP
0006
6C03
3800
0006
6C00
000C
C60C
C60C
C60C
C60C
C60C
C60C
C60C
C607
7C00
0000
000E
ENDCHAR
STARTCHAR U+01DA
ENCODING 474
SWIDTH 508 0
DWIDTH 9 0
BBX 9 17 0 -2
BITMAP
0006
6C03
3800
0006
6C06
6C00
000C
C60C
C60C
C60C
C60C
C60C
C60C
CE07
7A00
0000
000E
ENDCHAR
STARTCHAR U+01DB
ENCODING 475
SWIDTH 508 0
DWIDTH 9 0
BBX 9 17 0 -2
BITMAP
0007
7001
1C00
0006
6C00
000C
C60C
C60C
C60C
C60C
C60C
C60C
C60C
C607
7C00
0000
000E
ENDCHAR
STARTCHAR U+01DC
ENCODING 476
SWIDTH 508 0
DWIDTH 9 0
BBX 9 17 0 -2
BITMAP
0007
7001
1C00
0006
6C06
6C00
000C
C60C
C60C
C60C
C60C
C60C
C60C
CE07
7A00
0000
000E
ENDCHAR
STARTCHAR U+01DD
ENCODING 477
SWIDTH 508 0
DWIDTH 9 0
BBX 9 17 0 -2
BITMAP
0000
0000
0000
0000
0000
0000
0007
7C0C
C600
0600
060F
FE0C
C60C
C607
7C00
0000
000E
ENDCHAR
STARTCHAR U+01DE
ENCODING 478
SWIDTH 508 0
DWIDTH 9 0
BBX 9 17 0 -2
BITMAP
0007
7C00
0006
6C00
0003
3806
6C06
6C0C
C60C
C60F
FE0C
C60C
C60C
C60C
C600
0000
000E
ENDCHAR
STARTCHAR U+01DF
ENCODING 479
SWIDTH 508 0
DWIDTH 9 0
BBX 9 17 0 -2
BITMAP
0000
0007
7C00
0006
6C06
6C00
0007
7C0C
C600
0607
7E0C
C60C
C60C
CE07
7A00
0000
000E
ENDCHAR
STARTCHAR U+01E0
ENCODING 480
SWIDTH 508 0
DWIDTH 9 0
BBX 9 17 0 -2
BITMAP
0007
7C00
0003
3800
0003
3806
6C06
6C0C
C60C
C60F
FE0C
C60C
C60C
C60C
C600
0000
000E
ENDCHAR
STARTCHAR U+01E1
ENCODING 481
SWIDTH 508 0
DWIDTH 9 0
BBX 9 17 0 -2
BITMAP
0000
0007
7C00
0003
3003
3000
0007
7C0C
C600
0607
7E0C
C60C
C60C
CE07
7A00
0000
000E
ENDCHAR
STARTCHAR U+01E2
ENCODING 482
SWIDTH 508 0
DWIDTH 9 0
BBX 9 17 0 -2
BITMAP
0000
0007
7C00
0000
0003
3F06
680D
D80D
D80F
FF0D
D80D
D80D
D80D
D80D
DF00
0000
000E
ENDCHAR
STARTCHAR U+01E3
ENCODING 483
SWIDTH 508 0
DWIDTH 9 0
BBX 9 17 0 -2
BITMAP
0000
0000
0000
0007
7C00
0000
0007
7E0D
DB01
1B07
7F0D
D80D
D80D
DB07
7E00
0000
000E
ENDCHAR
STARTCHAR U+01E4
ENCODING 484
SWIDTH 508 0
DWIDTH 9 0
BBX 9 17 0 -2
BITMAP
0000
0000
0000
0000
0007
7C0C
C60C
C60C
C00C
C00D
DE0C
C60D
DF0C
C607
7E00
0000
000E
ENDCHAR
STARTCHAR U+01E5
ENCODING 485
SWIDTH 508 0
DWIDTH 9 0
BBX 9 17 0 -2
BITMAP
0000
0000
0000
0000
0000
0000
0607
7A0C
CC0C
CC0C
CC07
7806
6007
7C0D
DF0C
C607
7C0E
ENDCHAR
STARTCHAR U+01E6
ENCODING 486
SWIDTH 508 0
DWIDTH 9 0
BBX 9 17 0 -2
BITMAP
0006
6C03
3800
0000
0007
7C0C
C60C
C60C
C00C
C00D
DE0C
C60C
C60C
CE07
7A00
0000
000E
ENDCHAR
STARTCHAR U+01E7
ENCODING 487
SWIDTH 508 0
DWIDTH 9 0
BBX 9 17 0 -2
BITMAP
0000
0000
0006
6C03
3800
0000
0607
7A0C
CC0C
CC0C
CC07
7806
6007
7C0C
C60C
C607
7C0E
ENDCHAR
STARTCHAR U+01E8
ENCODING 488
SWIDTH 508 0
DWIDTH 9 0
BBX 9 17 0 -2
BITMAP
0006
6C03
3800
0000
000C
C60C
CC0D
D80D
D00E
E00E
E00D
D00D
D80C
CC0C
C600
0000
000E
ENDCHAR
STARTCHAR U+01E9
ENCODING 489
SWIDTH 508 0
DWIDTH 9 0
BBX 9 17 0 -2
BITMAP
000D
D807
7000
0000
000C
C00C
C00C
CC0D
D80D
D00E
E00D
D00D
D80C
CC0C
C600
0000
000E
ENDCHAR
STARTCHAR U+01EA
ENCODING 490
SWIDTH 508 0
DWIDTH 9 0
BBX 9 17 0 -2
BITMAP
0000
0000
0000
0000
0007
7C0C
C60C
C60C
C60C
C60C
C60C
C60C
C60C
C607
7C03
3001
1C0E
ENDCHAR
STARTCHAR U+01EB
ENCODING 491
SWIDTH 508 0
DWIDTH 9 0
BBX 9 17 0 -2
BITMAP
0000
0000
0000
0000
0000
0000
0007
7C0C
C60C
C60C
C60C
C60C
C60C
C607
7C03
3001
1C0E
ENDCHAR
STARTCHAR U+01EC
ENCODING 492
SWIDTH 508 0
DWIDTH 9 0
BBX 9 17 0 -2
BITMAP
0000
0007
7C00
0000
0007
7C0C
C60C
C60C
C60C
C60C
C60C
C60C
C60C
C607
7C03
3001
1C0E
ENDCHAR
STARTCHAR U+01ED
ENCODING 493
SWIDTH 508 0
DWIDTH 9 0
BBX 9 17 0 -2
BITMAP
0000
0000
0000
0007
7C00
0000
0007
7C0C
C60C
C60C
C60C
C60C
C60C
C607
7C03
3001
1C0E
ENDCHAR
STARTCHAR U+01EE
ENCODING 494
SWIDTH 508 0
DWIDTH 9 0
BBX 9 17 0 -2
BITMAP
0006
6C03
3800
0000
000F
FE00
0C01
1803
3003
3C00
0600
0600
060C
CE07
7C00
0000
000E
ENDCHAR
STARTCHAR U+01EF
ENCODING 495
SWIDTH 508 0
DWIDTH 9 0
BBX 9 17 0 -2
BITMAP
0000
0000
0006
6C03
3800
0000
0007
7E00
0C01
1803
3003
3C00
0600
0600
060C
C607
7C0E
ENDCHAR
STARTCHAR U+01F0
ENCODING 496
SWIDTH 508 0
DWIDTH 9 0
BBX 9 17 0 -2
BITMAP
0000
0000
0003
3601
1C00
0000
0001
1C00
0C00
0C00
0C00
0C00
0C00
0C00
0C0D
D807
700E
ENDCHAR
STARTCHAR U+01F1
ENCODING 497
SWIDTH 508 0
DWIDTH 9 0
BBX 9 17 0 -2
BITMAP
0000
0000
0000
0000
000E
EF0D
D30D
D30D
D30D
D60D
D60D
D40D
D40D
D40E
EF00
0000
000E
ENDCHAR
STARTCHAR U+01F2
ENCODING 498
SWIDTH 508 0
DWIDTH 9 0
BBX 9 17 0 -2
BITMAP
0000
0000
0000
0000
000E
E00D
D00D
D70D
D30D
D30D
D60D
D60D
D40D
D40E
EF00
0000
000E
ENDCHAR
STARTCHAR U+01F3
ENCODING 499
SWIDTH 508 0
DWIDTH 9 0
BBX 9 17 0 -2
BITMAP
0000
0000
0000
0003
3003
3003
3007
770D
D30D
D30D
D60D
D60D
D40D
D407
7700
0000
000E
ENDCHAR
STARTCHAR U+01F4
ENCODING 500
SWIDTH 508 0
DWIDTH 9 0
BBX 9 17 0 -2
BITMAP
0001
1C07
7000
0000
0007
7C0C
C60C
C60C
C00C
C00D
DE0C
C60C
C60C
CE07
7A00
0000
000E
ENDCHAR
STARTCHAR U+01F5
ENCODING 501
SWIDTH 508 0
DWIDTH 9 0
BBX 9 17 0 -2
BITMAP
0000
0000
0000
1C00
7000
0000
0600
7C00
CC00
CC00
CC00
7800
6000
7C00
C600
C600
7C00
ENDCHAR
STARTCHAR U+01F6
ENCODING 502
SWIDTH 508 0
DWIDTH 9 0
BBX 9 17 0 -2
BITMAP
0000
0000
0000
000D
D80D
D80D
D80D
D80F
FB0D
DB0D
DB0D
DB0D
DB0D
DB0C
CE00
0000
000E
ENDCHAR
STARTCHAR U+01F7
ENCODING 503
SWIDTH 508 0
DWIDTH 9 0
BBX 9 17 0 -2
BITMAP
0000
0000
0000
0000
000D
DE0E
E30C
C30C
C30C
C60C
CC0D
D80D
D00E
E00C
C00C
C00C
C00E
ENDCHAR
STARTCHAR U+01F8
ENCODING 504
SWIDTH 508 0
DWIDTH 9 0
BBX 9 17 0 -2
BITMAP
0007
7001
1C00
0000
000C
C60E
E60E
E60D
D60D
D60D
DA0D
DA0C
CE0C
CE0C
C600
0000
000E
ENDCHAR
STARTCHAR U+01F9
ENCODING 505
SWIDTH 508 0
DWIDTH 9 0
BBX 9 17 0 -2
BITMAP
0000
0000
0007
7001
1C00
0000
000D
DC0E
E60C
C60C
C60C
C60C
C60C
C60C
C600
0000
000E
ENDCHAR
STARTCHAR U+01FA
ENCODING 506
SWIDTH 508 0
DWIDTH 9 0
BBX 9 17 0 -2
BITMAP
0001
1C07
7003
3806
6C03
3803
3806
6C06
6C0C
C60F
FE0C
C60C
C60C
C60C
C600
0000
000E
ENDCHAR
STARTCHAR U+01FB
ENCODING 507
SWIDTH 508 0
DWIDTH 9 0
BBX 9 17 0 -2
BITMAP
0001
1C07
7000
0003
3806
6C03
3800
0007
7C0C
C600
0607
7E0C
C60C
CE07
7A00
0000
000E
ENDCHAR
STARTCHAR U+01FC
ENCODING 508
SWIDTH 508 0
DWIDTH 9 0
BBX 9 17 0 -2
BITMAP
0000
0E03
3800
0000
0003
3F06
680D
D80D
D80F
FF0D
D80D
D80D
D80D
D80D
DF00
0000
000E
ENDCHAR
STARTCHAR U+01FD
ENCODING 509
SWIDTH 508 0
DWIDTH 9 0
BBX 9 17 0 -2
BITMAP
0000
0000
0000
0E03
3800
0000
0007
7E0D
DB01
1B07
7F0D
D80D
D80D
DB07
7E00
0000
000E
ENDCHAR
STARTCHAR U+01FE
ENCODING 510
SWIDTH 508 0
DWIDTH 9 0
BBX 9 17 0 -2
BITMAP
0001
1C07
7000
0000
0607
7A0C
CC0C
CE0D
DA0D
DA0D
D60D
D60E
E606
660D
DC0C
C000
000E
ENDCHAR
STARTCHAR U+01FF
ENCODING 511
SWIDTH 508 0
DWIDTH 9 0
BBX 9 17 0 -2
BITMAP
0000
0000
0001
1C07
7000
0000
0607
7C0C
CE0D
DA0D
DA0D
D60D
D60E
E607
7C0C
C000
000E
ENDCHAR
STARTCHAR U+0200
ENCODING 512
SWIDTH 508 0
DWIDTH 9 0
BBX 9 17 0 -2
BITMAP
000D
DC06
6600
0000
0003
3806
6C06
6C0C
C60C
C60F
FE0C
C60C
C60C
C60C
C600
0000
000E
ENDCHAR
STARTCHAR U+0201
ENCODING 513
SWIDTH 508 0
DWIDTH 9 0
BBX 9 17 0 -2
BITMAP
0000
0000
000D
DC06
6600
0000
0007
7C0C
C600
0607
7E0C
C60C
C60C
CE07
7A00
0000
000E
ENDCHAR
STARTCHAR U+0202
ENCODING 514
SWIDTH 508 0
DWIDTH 9 0
BBX 9 17 0 -2
BITMAP
0007
7C0C
C60C
C600
0003
3806
6C06
6C0C
C60C
C60F
FE0C
C60C
C60C
C60C
C600
0000
000E
ENDCHAR
STARTCHAR U+0203
ENCODING 515
SWIDTH 508 0
DWIDTH 9 0
BBX 9 17 0 -2
BITMAP
0000
0000
0007
7C0C
C60C
C600
0007
7C0C
C600
0607
7E0C
C60C
C60C
CE07
7A00
0000
000E
ENDCHAR
STARTCHAR U+0204
ENCODING 516
SWIDTH 508 0
DWIDTH 9 0
BBX 9 17 0 -2
BITMAP
000D
DC06
6600
0000
000F
FE0C
C00C
C00C
C00F
FC0C
C00C
C00C
C00C
C00F
FE00
0000
000E
ENDCHAR
STARTCHAR U+0205
ENCODING 517
SWIDTH 508 0
DWIDTH 9 0
BBX 9 17 0 -2
BITMAP
0000
0000
000D
DC06
6600
0000
0007
7C0C
C60C
C60F
FE0C
C00C
C00C
C607
7C00
0000
000E
ENDCHAR
STARTCHAR U+0206
ENCODING 518
SWIDTH 508 0
DWIDTH 9 0
BBX 9 17 0 -2
BITMAP
0007
7C0C
C60C
C600
000F
FE0C
C00C
C00C
C00F
FC0C
C00C
C00C
C00C
C00F
FE00
0000
000E
ENDCHAR
STARTCHAR U+0207
ENCODING 519
SWIDTH 508 0
DWIDTH 9 0
BBX 9 17 0 -2
BITMAP
0000
0000
0007
7C0C
C60C
C600
0007
7C0C
C60C
C60F
FE0C
C00C
C00C
C607
7C00
0000
000E
ENDCHAR
STARTCHAR U+0208
ENCODING 520
SWIDTH 508 0
DWIDTH 9 0
BBX 9 17 0 -2
BITMAP
000D
DC06
6600
0000
0007
7E01
1801
1801
1801
1801
1801
1801
1801
1807
7E00
0000
000E
ENDCHAR
STARTCHAR U+0209
ENCODING 521
SWIDTH 508 0
DWIDTH 9 0
BBX 9 17 0 -2
BITMAP
0000
0000
000D
DC06
6600
0000
0003
3801
1801
1801
1801
1801
1801
1807
7E00
0000
000E
ENDCHAR
STARTCHAR U+020A
ENCODING 522
SWIDTH 508 0
DWIDTH 9 0
BBX 9 17 0 -2
BITMAP
0007
7C0C
C60C
C600
0007
7E01
1801
1801
1801
1801
1801
1801
1801
1807
7E00
0000
000E
ENDCHAR
STARTCHAR U+020B
ENCODING 523
SWIDTH 508 0
DWIDTH 9 0
BBX 9 17 0 -2
BITMAP
0000
0000
0007
7C0C
C60C
C600
0003
3801
1801
1801
1801
1801
1801
1807
7E00
0000
000E
ENDCHAR
STARTCHAR U+020C
ENCODING 524
SWIDTH 508 0
DWIDTH 9 0
BBX 9 17 0 -2
BITMAP
000D
DC06
6600
0000
0007
7C0C
C60C
C60C
C60C
C60C
C60C
C60C
C60C
C607
7C00
0000
000E
ENDCHAR
STARTCHAR U+020D
ENCODING 525
SWIDTH 508 0
DWIDTH 9 0
BBX 9 17 0 -2
BITMAP
0000
0000
000D
DC06
6600
0000
0007
7C0C
C60C
C60C
C60C
C60C
C60C
C607
7C00
0000
000E
ENDCHAR
STARTCHAR U+020E
ENCODING 526
SWIDTH 508 0
DWIDTH 9 0
BBX 9 17 0 -2
BITMAP
0007
7C0C
C60C
C600
0007
7C0C
C60C
C60C
C60C
C60C
C60C
C60C
C60C
C607
7C00
0000
000E
ENDCHAR
STARTCHAR U+020F
ENCODING 527
SWIDTH 508 0
DWIDTH 9 0
BBX 9 17 0 -2
BITMAP
0000
0000
0007
7C0C
C60C
C600
0007
7C0C
C60C
C60C
C60C
C60C
C60C
C607
7C00
0000
000E
ENDCHAR
STARTCHAR U+0210
ENCODING 528
SWIDTH 508 0
DWIDTH 9 0
BBX 9 17 0 -2
BITMAP
000D
DC06
6600
0000
000F
FC0C
C60C
C60C
C60F
FC0D
D80C
CC0C
CC0C
C60C
C600
0000
000E
ENDCHAR
STARTCHAR U+0211
ENCODING 529
SWIDTH 508 0
DWIDTH 9 0
BBX 9 17 0 -2
BITMAP
0000
0000
000D
DC06
6600
0000
000D
DC0E
E60C
C60C
C00C
C00C
C00C
C00C
C000
0000
000E
ENDCHAR
STARTCHAR U+0212
ENCODING 530
SWIDTH 508 0
DWIDTH 9 0
BBX 9 17 0 -2
BITMAP
0007
7C0C
C60C
C600
000F
FC0C
C60C
C60C
C60F
FC0D
D80C
CC0C
CC0C
C60C
C600
0000
000E
ENDCHAR
STARTCHAR U+0213
ENCODING 531
SWIDTH 508 0
DWIDTH 9 0
BBX 9 17 0 -2
BITMAP
0000
0000
0007
7C0C
C60C
C600
000D
DC0E
E60C
C60C
C00C
C00C
C00C
C00C
C000
0000
000E
ENDCHAR
STARTCHAR U+0214
ENCODING 532
SWIDTH 508 0
DWIDTH 9 0
BBX 9 17 0 -2
BITMAP
000D
DC06
6600
0000
000C
C60C
C60C
C60C
C60C
C60C
C60C
C60C
C60C
C607
7C00
0000
000E
ENDCHAR
STARTCHAR U+0215
ENCODING 533
SWIDTH 508 0
DWIDTH 9 0
BBX 9 17 0 -2
BITMAP
0000
0000
000D
DC06
6600
0000
000C
C60C
C60C
C60C
C60C
C60C
C60C
CE07
7A00
0000
000E
ENDCHAR
STARTCHAR U+0216
ENCODING 534
SWIDTH 508 0
DWIDTH 9 0
BBX 9 17 0 -2
BITMAP
0007
7C0C
C60C
C600
000C
C60C
C60C
C60C
C60C
C60C
C60C
C60C
C60C
C607
7C00
0000
000E
ENDCHAR
STARTCHAR U+0217
ENCODING 535
SWIDTH 508 0
DWIDTH 9 0
BBX 9 17 0 -2
BITMAP
0000
0000
0007
7C0C
C60C
C600
000C
C60C
C60C
C60C
C60C
C60C
C60C
CE07
7A00
0000
000E
ENDCHAR
STARTCHAR U+0218
ENCODING 536
SWIDTH 508 0
DWIDTH 9 0
BBX 9 17 0 -2
BITMAP
0000
0000
0000
0000
0007
7C0C
C60C
C607
7001
1C0C
C60C
C607
7C00
0003
3801
1803
300E
ENDCHAR
STARTCHAR U+0219
ENCODING 537
SWIDTH 508 0
DWIDTH 9 0
BBX 9 17 0 -2
BITMAP
0000
0000
0000
0000
0000
0000
0007
7C0C
C607
7001
1C0C
C607
7C00
0003
3801
1803
300E
ENDCHAR
STARTCHAR U+021A
ENCODING 538
SWIDTH 508 0
DWIDTH 9 0
BBX 9 17 0 -2
BITMAP
0000
0000
0000
0000
000F
FF01
1801
1801
1801
1801
1801
1801
1800
0003
3801
1803
300E
ENDCHAR
STARTCHAR U+021B
ENCODING 539
SWIDTH 508 0
DWIDTH 9 0
BBX 9 17 0 -2
BITMAP
0000
0000
0000
0000
0003
3003
300F
FC03
3003
3003
3003
3001
1C00
0003
3801
1803
300E
ENDCHAR
STARTCHAR U+021C
ENCODING 540
SWIDTH 508 0
DWIDTH 9 0
BBX 9 17 0 -2
BITMAP
0000
0000
0000
0000
000F
F80C
CC00
0C01
1803
3C0E
E600
0600
0601
1C0F
F000
0000
000E
ENDCHAR
STARTCHAR U+021D
ENCODING 541
SWIDTH 508 0
DWIDTH 9 0
BBX 9 17 0 -2
BITMAP
0000
0000
0000
0000
0000
0000
000F
F001
1801
1803
3007
780C
CC00
0C00
0C03
380E
E00E
ENDCHAR
STARTCHAR U+021E
ENCODING 542
SWIDTH 508 0
DWIDTH 9 0
BBX 9 17 0 -2
BITMAP
0006
6C03
3800
0000
000C
C60C
C60C
C60C
C60F
FE0C
C60C
C60C
C60C
C60C
C600
0000
000E
ENDCHAR
STARTCHAR U+021F
ENCODING 543
SWIDTH 508 0
DWIDTH 9 0
BBX 9 17 0 -2
BITMAP
000D
D807
7000
000C
C00C
C00C
C00D
DC0E
E60C
C60C
C60C
C60C
C60C
C60C
C600
0000
000E
ENDCHAR
STARTCHAR U+0222
ENCODING 546
SWIDTH 508 0
DWIDTH 9 0
BBX 9 17 0 -2
BITMAP
0000
0000
0000
0001
1C0C
C608
8608
860C
CC0F
FC08
8608
8608
8608
860F
FC00
0000
000E
ENDCHAR
STARTCHAR U+0223
ENCODING 547
SWIDTH 508 0
DWIDTH 9 0
BBX 9 17 0 -2
BITMAP
0000
0000
0000
0000
0006
6C0C
C60C
C606
6C07
7C0C
C60C
C60C
C60C
C607
7C00
0000
000E
ENDCHAR
STARTCHAR U+0224
ENCODING 548
SWIDTH 508 0
DWIDTH 9 0
BBX 9 17 0 -2
BITMAP
0000
0000
0000
0000
000F
FE00
0600
0600
0C01
1803
3006
600C
C00C
C00F
FE00
0600
0C0E
ENDCHAR
STARTCHAR U+0225
ENCODING 549
SWIDTH 508 0
DWIDTH 9 0
BBX 9 17 0 -2
BITMAP
0000
0000
0000
0000
0000
0000
000F
FE00
0600
0C01
1803
3006
600C
C00F
FE00
0600
0C0E
ENDCHAR
STARTCHAR U+0226
ENCODING 550
SWIDTH 508 0
DWIDTH 9 0
BBX 9 17 0 -2
BITMAP
0003
3003
3000
0000
0003
3806
6C06
6C0C
C60C
C60F
FE0C
C60C
C60C
C60C
C600
0000
000E
ENDCHAR
STARTCHAR U+0227
ENCODING 551
SWIDTH 508 0
DWIDTH 9 0
BBX 9 17 0 -2
BITMAP
0000
0000
0003
3003
3000
0000
0007
7C0C
C600
0607
7E0C
C60C
C60C
CE07
7A00
0000
000E
ENDCHAR
STARTCHAR U+0228
ENCODING 552
SWIDTH 508 0
DWIDTH 9 0
BBX 9 17 0 -2
BITMAP
0000
0000
0000
0000
000F
FE0C
C00C
C00C
C00F
FC0C
C00C
C00C
C00C
C00F
FE01
1807
700E
ENDCHAR
STARTCHAR U+0229
ENCODING 553
SWIDTH 508 0
DWIDTH 9 0
BBX 9 17 0 -2
BITMAP
0000
0000
0000
0000
0000
0000
0007
7C0C
C60C
C60F
FE0C
C00C
C00C
C607
7C01
1807
700E
ENDCHAR
STARTCHAR U+022A
ENCODING 554
SWIDTH 508 0
DWIDTH 9 0
BBX 9 17 0 -2
BITMAP
0007
7C00
0006
6C00
0007
7C0C
C60C
C60C
C60C
C60C
C60C
C60C
C60C
C607
7C00
0000
000E
ENDCHAR
STARTCHAR U+022B
ENCODING 555
SWIDTH 508 0
DWIDTH 9 0
BBX 9 17 0 -2
BITMAP
0000
0000
0007
7C00
0006
6C00
0007
7C0C
C60C
C60C
C60C
C60C
C60C
C607
7C00
0000
000E
ENDCHAR
STARTCHAR U+022C
ENCODING 556
SWIDTH 508 0
DWIDTH 9 0
BBX 9 17 0 -2
BITMAP
0007
7C00
0007
760D
DC00
0007
7C0C
C60C
C60C
C60C
C60C
C60C
C60C
C607
7C00
0000
000E
ENDCHAR
STARTCHAR U+022D
ENCODING 557
SWIDTH 508 0
DWIDTH 9 0
BBX 9 17 0 -2
BITMAP
0000
0000
0007
7C00
0007
760D
DC00
0007
7C0C
C60C
C60C
C60C
C60C
C607
7C00
0000
000E
ENDCHAR
STARTCHAR U+022E
ENCODING 558
SWIDTH 508 0
DWIDTH 9 0
BBX 9 17 0 -2
BITMAP
0000
0003
3003
3000
0007
7C0C
C60C
C60C
C60C
C60C
C60C
C60C
C60C
C607
7C00
0000
000E
ENDCHAR
STARTCHAR U+022F
ENCODING 559
SWIDTH 508 0
DWIDTH 9 0
BBX 9 17 0 -2
BITMAP
0000
0000
0000
0003
3003
3000
0007
7C0C
C60C
C60C
C60C
C60C
C60C
C607
7C00
0000
000E
ENDCHAR
STARTCHAR U+0230
ENCODING 560
SWIDTH 508 0
DWIDTH 9 0
BBX 9 17 0 -2
BITMAP
0007
7C00
0003
3800
0007
7C0C
C60C
C60C
C60C
C60C
C60C
C60C
C60C
C607
7C00
0000
000E
ENDCHAR
STARTCHAR U+0231
ENCODING 561
SWIDTH 508 0
DWIDTH 9 0
BBX 9 17 0 -2
BITMAP
0000
0000
0007
7C00
0003
3800
0007
7C0C
C60C
C60C
C60C
C60C
C60C
C607
7C00
0000
000E
ENDCHAR
STARTCHAR U+0232
ENCODING 562
SWIDTH 508 0
DWIDTH 9 0
BBX 9 17 0 -2
BITMAP
0000
0007
7C00
0000
000C
C30C
C306
6606
6603
3401
1801
1801
1801
1801
1800
0000
000E
ENDCHAR
STARTCHAR U+0233
ENCODING 563
SWIDTH 508 0
DWIDTH 9 0
BBX 9 17 0 -2
BITMAP
0000
0000
0000
0007
7C00
0000
000C
C60C
C60C
C60C
C60C
C606
6E03
3A00
0600
0607
7C0E
ENDCHAR
STARTCHAR U+0250
ENCODING 592
SWIDTH 508 0
DWIDTH 9 0
BBX 9 17 0 -2
BITMAP
0000
0000
0000
0000
0000
0000
000D
DC0E
E60C
C60C
C60F
FC0C
C00C
C607
7C00
0000
000E
ENDCHAR
STARTCHAR U+0251
ENCODING 593
SWIDTH 508 0
DWIDTH 9 0
BBX 9 17 0 -2
BITMAP
0000
0000
0000
0000
0000
0000
0007
7A0C
CE0C
C60C
C60C
C60C
CE0D
DA07
7600
0000
000E
ENDCHAR
STARTCHAR U+0252
ENCODING 594
SWIDTH 508 0
DWIDTH 9 0
BBX 9 17 0 -2
BITMAP
0000
0000
0000
0000
0000
0000
000D
DC0D
D60E
E60C
C60C
C60C
C60E
E60D
DC00
0000
000E
ENDCHAR
STARTCHAR U+0253
ENCODING 595
SWIDTH 508 0
DWIDTH 9 0
BBX 9 17 0 -2
BITMAP
0000
0000
0000
0007
780C
C00C
C00D
DC0E
E60C
C60C
C60C
C60C
C60E
E60D
DC00
0000
000E
ENDCHAR
STARTCHAR U+0254
ENCODING 596
SWIDTH 508 0
DWIDTH 9 0
BBX 9 17 0 -2
BITMAP
0000
0000
0000
0000
0000
0000
0007
7C0C
C600
0600
0600
0600
060C
C607
7C00
0000
000E
ENDCHAR
STARTCHAR U+0255
ENCODING 597
SWIDTH 508 0
DWIDTH 9 0
BBX 9 17 0 -2
BITMAP
0000
0000
0000
0000
0000
0000
0007
7C0C
C60C
C00C
C00C
C00D
DC0D
D607
7C0C
C000
000E
ENDCHAR
STARTCHAR U+0256
ENCODING 598
SWIDTH 508 0
DWIDTH 9 0
BBX 9 17 0 -2
BITMAP
0000
0000
0000
0000
0C00
0C00
0C07
740D
DC0C
CC0C
CC0C
CC0C
CC0D
DC07
7400
0700
000E
ENDCHAR
STARTCHAR U+0257
ENCODING 599
SWIDTH 508 0
DWIDTH 9 0
BBX 9 17 0 -2
BITMAP
0000
0000
0000
0000
0700
0C00
0C07
740D
DC0C
CC0C
CC0C
CC0C
CC0D
DC07
7400
0000
000E
ENDCHAR
STARTCHAR U+0258
ENCODING 600
SWIDTH 508 0
DWIDTH 9 0
BBX 9 17 0 -2
BITMAP
0000
0000
0000
0000
0000
0000
0007
7C0C
C60C
C60F
FE00
0600
060C
C607
7C00
0000
000E
ENDCHAR
STARTCHAR U+0259
ENCODING 601
SWIDTH 508 0
DWIDTH 9 0
BBX 9 17 0 -2
BITMAP
0000
0000
0000
0000
0000
0000
0007
7C0C
C600
0600
060F
FE0C
C60C
C607
7C00
0000
000E
ENDCHAR
STARTCHAR U+025A
ENCODING 602
SWIDTH 508 0
DWIDTH 9 0
BBX 9 17 0 -2
BITMAP
0000
0000
0000
0000
0000
0000
0007
780C
CE01
1D07
750C
CC0C
CC0C
CC07
7800
0000
000E
ENDCHAR
STARTCHAR U+025B
ENCODING 603
SWIDTH 508 0
DWIDTH 9 0
BBX 9 17 0 -2
BITMAP
0000
0000
0000
0000
0000
0000
0007
7C0C
C60C
C007
7C0C
C00C
C00C
C607
7C00
0000
000E
ENDCHAR
STARTCHAR U+025C
ENCODING 604
SWIDTH 508 0
DWIDTH 9 0
BBX 9 17 0 -2
BITMAP
0000
0000
0000
0000
0000
0000
0007
7C0C
C600
0607
7C00
0600
060C
C607
7C00
0000
000E
ENDCHAR
STARTCHAR U+025D
ENCODING 605
SWIDTH 508 0
DWIDTH 9 0
BBX 9 17 0 -2
BITMAP
0000
0000
0000
0000
0000
0000
000F
F409
9D01
1A0F
F001
1801
1809
980F
F000
0000
000E
ENDCHAR
STARTCHAR U+025E
ENCODING 606
SWIDTH 508 0
DWIDTH 9 0
BBX 9 17 0 -2
BITMAP
0000
0000
0000
0000
0000
0000
0007
7C0C
C60C
C60D
DC0C
C60C
C60C
C607
7C00
0000
000E
ENDCHAR
STARTCHAR U+025F
ENCODING 607
SWIDTH 508 0
DWIDTH 9 0
BBX 9 17 0 -2
BITMAP
0000
0000
0000
0000
0000
0000
0001
1C00
0C00
0C00
0C03
3F00
0C00
0C00
0C0D
D807
700E
ENDCHAR
STARTCHAR U+0260
ENCODING 608
SWIDTH 508 0
DWIDTH 9 0
BBX 9 17 0 -2
BITMAP
0000
0000
0000
0000
0000
0000
0707
7D0C
CC0C
CC0C
CC07
7806
6007
7C0C
C60C
C607
7C0E
ENDCHAR
STARTCHAR U+0261
ENCODING 609
SWIDTH 508 0
DWIDTH 9 0
BBX 9 17 0 -2
BITMAP
0000
0000
0000
0000
0000
0000
0007
7A0C
CE0C
C60C
C60C
C60C
CE07
7A00
060C
C607
7C0E
ENDCHAR
STARTCHAR U+0262
ENCODING 610
SWIDTH 508 0
DWIDTH 9 0
BBX 9 17 0 -2
BITMAP
0000
0000
0000
0000
0000
0000
0007
7C0C
C60C
C00C
C00D
DE0C
C60C
C607
7E00
0000
000E
ENDCHAR
STARTCHAR U+0263
ENCODING 611
SWIDTH 508 0
DWIDTH 9 0
BBX 9 17 0 -2
BITMAP
0000
0000
0000
0000
0000
0000
000C
C60C
C60C
C606
6C06
6C03
3803
3806
6C06
6C03
380E
ENDCHAR
STARTCHAR U+0264
ENCODING 612
SWIDTH 508 0
DWIDTH 9 0
BBX 9 17 0 -2
BITMAP
0000
0000
0000
0000
0000
0000
000C
C60C
C606
6C06
6C03
3803
3806
6C03
3800
0000
000E
ENDCHAR
STARTCHAR U+0265
ENCODING 613
SWIDTH 508 0
DWIDTH 9 0
BBX 9 17 0 -2
BITMAP
0000
0000
0000
0000
0000
000C
C60C
C60C
C60C
C60C
C60C
C60C
CE07
7A00
0600
0600
060E
ENDCHAR
STARTCHAR U+0266
ENCODING 614
SWIDTH 508 0
DWIDTH 9 0
BBX 9 17 0 -2
BITMAP
0000
0000
0000
0007
780C
C00C
C00D
DC0E
E60C
C60C
C60C
C60C
C60C
C60C
C600
0000
000E
ENDCHAR
STARTCHAR U+0267
ENCODING 615
SWIDTH 508 0
DWIDTH 9 0
BBX 9 17 0 -2
BITMAP
0000
0000
0000
0007
780C
C00C
C00D
DC0E
E60C
C60C
C60C
C60C
C60C
C60D
DC00
0000
000E
ENDCHAR
STARTCHAR U+0268
ENCODING 616
SWIDTH 508 0
DWIDTH 9 0
BBX 9 17 0 -2
BITMAP
0000
0000
0000
0001
1801
1800
0003
3801
1801
1807
7E01
1801
1801
1807
7E00
0000
000E
ENDCHAR
STARTCHAR U+0269
ENCODING 617
SWIDTH 508 0
DWIDTH 9 0
BBX 9 17 0 -2
BITMAP
0000
0000
0000
0000
0000
0000
0003
3003
3003
3003
3003
3003
3003
3001
1C00
0000
000E
ENDCHAR
STARTCHAR U+026A
ENCODING 618
SWIDTH 508 0
DWIDTH 9 0
BBX 9 17 0 -2
BITMAP
0000
0000
0000
0000
0000
0000
0007
7E01
1801
1801
1801
1801
1801
1807
7E00
0000
000E
ENDCHAR
STARTCHAR U+026B
ENCODING 619
SWIDTH 508 0
DWIDTH 9 0
BBX 9 17 0 -2
BITMAP
0000
0000
0000
0000
0003
3801
1801
1801
1807
7A0D
DC01
1801
1801
1807
7E00
0000
000E
ENDCHAR
STARTCHAR U+026C
ENCODING 620
SWIDTH 508 0
DWIDTH 9 0
BBX 9 17 0 -2
BITMAP
0000
0000
0000
0000
0003
3801
1801
1807
780D
D807
7E01
1801
1801
1807
7E00
0000
000E
ENDCHAR
STARTCHAR U+026D
ENCODING 621
SWIDTH 508 0
DWIDTH 9 0
BBX 9 17 0 -2
BITMAP
0000
0000
0000
0000
0003
3801
1801
1801
1801
1801
1801
1801
1801
1801
1800
0E00
000E
ENDCHAR
STARTCHAR U+026E
ENCODING 622
SWIDTH 508 0
DWIDTH 9 0
BBX 9 17 0 -2
BITMAP
0000
0000
0000
0000
0007
7003
3003
3F03
3303
3603
3403
3603
3303
330F
FD01
1B00
0E0E
ENDCHAR
STARTCHAR U+026F
ENCODING 623
SWIDTH 508 0
DWIDTH 9 0
BBX 9 17 0 -2
BITMAP
0000
0000
0000
0000
0000
0000
000D
DB0D
DB0D
DB0D
DB0D
DB0D
DB0D
DB07
7700
0000
000E
ENDCHAR
STARTCHAR U+0270
ENCODING 624
SWIDTH 508 0
DWIDTH 9 0
BBX 9 17 0 -2
BITMAP
0000
0000
0000
0000
0000
0000
000D
DB0D
DB0D
DB0D
DB0D
DB0D
DB0D
DB07
7700
0300
030E
ENDCHAR
STARTCHAR U+0271
ENCODING 625
SWIDTH 508 0
DWIDTH 9 0
BBX 9 17 0 -2
BITMAP
0000
0000
0000
0000
0000
0000
000F
F60D
DB0D
DB0D
DB0D
DB0D
DB0D
DB0C
C300
0E00
000E
ENDCHAR
STARTCHAR U+0272
ENCODING 626
SWIDTH 508 0
DWIDTH 9 0
BBX 9 17 0 -2
BITMAP
0000
0000
0000
0000
0000
0000
0003
3603
3B03
3303
3303
3303
3303
3303
330E
E000
000E
ENDCHAR
STARTCHAR U+0273
ENCODING 627
SWIDTH 508 0
DWIDTH 9 0
BBX 9 17 0 -2
BITMAP
0000
0000
0000
0000
0000
0000
000D
D80E
EC0C
CC0C
CC0C
CC0C
CC0C
CC0C
CC00
0700
000E
ENDCHAR
STARTCHAR U+0274
ENCODING 628
SWIDTH 508 0
DWIDTH 9 0
BBX 9 17 0 -2
BITMAP
0000
0000
0000
0000
0000
0000
000C
C60C
C60E
E60D
D60D
DA0C
CE0C
C60C
C600
0000
000E
ENDCHAR
STARTCHAR U+0275
ENCODING 629
SWIDTH 508 0
DWIDTH 9 0
BBX 9 17 0 -2
BITMAP
0000
0000
0000
0000
0000
0000
0007
7C0C
C60C
C60F
FE0C
C60C
C60C
C607
7C00
0000
000E
ENDCHAR
STARTCHAR U+0276
ENCODING 630
SWIDTH 508 0
DWIDTH 9 0
BBX 9 17 0 -2
BITMAP
0000
0000
0000
0000
0000
0000
0007
770D
D80D
D80D
DE0D
D80D
D80D
D807
7700
0000
000E
ENDCHAR
STARTCHAR U+0277
ENCODING 631
SWIDTH 508 0
DWIDTH 9 0
BBX 9 17 0 -2
BITMAP
0000
0000
0000
0000
0000
0000
0007
7E0C
C30C
C30D
DB0D
DB0D
DB0D
DB07
7600
0000
000E
ENDCHAR
STARTCHAR U+0278
ENCODING 632
SWIDTH 508 0
DWIDTH 9 0
BBX 9 17 0 -2
BITMAP
0000
0000
0000
0000
0001
1801
1807
7E0D
DB0D
DB0D
DB0D
DB0D
DB0D
DB07
7E01
1801
180E
ENDCHAR
STARTCHAR U+0279
ENCODING 633
SWIDTH 508 0
DWIDTH 9 0
BBX 9 17 0 -2
BITMAP
0000
0000
0000
0000
0000
0000
0000
0600
0600
0600
0600
060C
C60C
CE07
7A00
0000
000E
ENDCHAR
STARTCHAR U+027A
ENCODING 634
SWIDTH 508 0
DWIDTH 9 0
BBX 9 17 0 -2
BITMAP
0000
0000
0000
0000
0000
0600
0600
0600
0600
0600
0600
060C
C60C
CE07
7A00
0000
000E
ENDCHAR
STARTCHAR U+027B
ENCODING 635
SWIDTH 508 0
DWIDTH 9 0
BBX 9 17 0 -2
BITMAP
0000
0000
0000
0000
0000
0000
0000
0C00
0C00
0C00
0C00
0C0C
CC0D
DC07
7400
0700
000E
ENDCHAR
STARTCHAR U+027C
ENCODING 636
SWIDTH 508 0
DWIDTH 9 0
BBX 9 17 0 -2
BITMAP
0000
0000
0000
0000
0000
0000
000D
DC0E
E60C
C60C
C00C
C00C
C00C
C00C
C00C
C00C
C00E
ENDCHAR
STARTCHAR U+027D
ENCODING 637
SWIDTH 508 0
DWIDTH 9 0
BBX 9 17 0 -2
BITMAP
0000
0000
0000
0000
0000
0000
000D
DC0E
E60C
C60C
C00C
C00C
C00C
C00C
C007
7000
000E
ENDCHAR
STARTCHAR U+027E
ENCODING 638
SWIDTH 508 0
DWIDTH 9 0
BBX 9 17 0 -2
BITMAP
0000
0000
0000
0000
0000
0000
0007
7C0C
C60C
C60C
C00C
C00C
C00C
C00C
C000
0000
000E
ENDCHAR
STARTCHAR U+027F
ENCODING 639
SWIDTH 508 0
DWIDTH 9 0
BBX 9 17 0 -2
BITMAP
0000
0000
0000
0000
0000
0000
0007
7C0C
C60C
C600
0600
0600
0600
0600
0600
0000
000E
ENDCHAR
STARTCHAR U+0280
ENCODING 640
SWIDTH 508 0
DWIDTH 9 0
BBX 9 17 0 -2
BITMAP
0000
0000
0000
0000
0000
0000
000F
FC0C
C60C
C60F
FC0C
CC0C
C60C
C60C
C600
0000
000E
ENDCHAR
STARTCHAR U+0281
ENCODING 641
SWIDTH 508 0
DWIDTH 9 0
BBX 9 17 0 -2
BITMAP
0000
0000
0000
0000
0000
0000
000C
C60C
C60C
C60C
CC0F
FC0C
C60C
C60F
FC00
0000
000E
ENDCHAR
STARTCHAR U+0282
ENCODING 642
SWIDTH 508 0
DWIDTH 9 0
BBX 9 17 0 -2
BITMAP
0000
0000
0000
0000
0000
0000
0007
7C0C
C60C
C007
7001
1C00
060C
C60F
FC0C
C007
700E
ENDCHAR
STARTCHAR U+0283
ENCODING 643
SWIDTH 508 0
DWIDTH 9 0
BBX 9 17 0 -2
BITMAP
0000
0000
0000
0001
1C03
3003
3003
3003
3003
3003
3003
3003
3003
3003
300E
E000
000E
ENDCHAR
STARTCHAR U+0284
ENCODING 644
SWIDTH 508 0
DWIDTH 9 0
BBX 9 17 0 -2
BITMAP
0000
0000
0000
0001
1C03
3003
3003
300F
FC03
3003
300F
FC03
3003
3003
300E
E000
000E
ENDCHAR
STARTCHAR U+0285
ENCODING 645
SWIDTH 508 0
DWIDTH 9 0
BBX 9 17 0 -2
BITMAP
0000
0000
0000
0000
0000
0000
000E
E003
3003
3003
3003
3003
3003
3003
3001
1C00
000E
ENDCHAR
STARTCHAR U+0286
ENCODING 646
SWIDTH 508 0
DWIDTH 9 0
BBX 9 17 0 -2
BITMAP
0000
0000
0000
0000
0E01
1801
1801
1801
1801
1801
1801
1801
1807
780D
DE07
7000
000E
ENDCHAR
STARTCHAR U+0287
ENCODING 647
SWIDTH 508 0
DWIDTH 9 0
BBX 9 17 0 -2
BITMAP
0000
0000
0000
0000
000E
E003
3003
3003
3003
3003
3003
300F
FC03
3003
3000
0000
000E
ENDCHAR
STARTCHAR U+0288
ENCODING 648
SWIDTH 508 0
DWIDTH 9 0
BBX 9 17 0 -2
BITMAP
0000
0000
0000
0000
0003
3003
300F
FC03
3003
3003
3003
3003
3003
3003
3001
1E00
000E
ENDCHAR
STARTCHAR U+0289
ENCODING 649
SWIDTH 508 0
DWIDTH 9 0
BBX 9 17 0 -2
BITMAP
0000
0000
0000
0000
0000
0000
0006
6606
6606
660F
FF06
6606
6606
6E03
3A00
0000
000E
ENDCHAR
STARTCHAR U+028A
ENCODING 650
SWIDTH 508 0
DWIDTH 9 0
BBX 9 17 0 -2
BITMAP
0000
0000
0000
0000
0000
0000
000C
C606
6C0C
C60C
C60C
C60C
C606
6C03
3800
0000
000E
ENDCHAR
STARTCHAR U+028B
ENCODING 651
SWIDTH 508 0
DWIDTH 9 0
BBX 9 17 0 -2
BITMAP
0000
0000
0000
0000
0000
0000
000D
DC0C
C60C
C60C
C60C
C60C
CC0D
D807
7000
0000
000E
ENDCHAR
STARTCHAR U+028C
ENCODING 652
SWIDTH 508 0
DWIDTH 9 0
BBX 9 17 0 -2
BITMAP
0000
0000
0000
0000
0000
0000
0003
3803
3806
6C06
6C06
6C0C
C60C
C60C
C600
0000
000E
ENDCHAR
STARTCHAR U+028D
ENCODING 653
SWIDTH 508 0
DWIDTH 9 0
BBX 9 17 0 -2
BITMAP
0000
0000
0000
0000
0000
0000
0007
760D
DB0D
DB0D
DB0D
DB0D
DB0D
DB0C
C300
0000
000E
ENDCHAR
STARTCHAR U+028E
ENCODING 654
SWIDTH 508 0
DWIDTH 9 0
BBX 9 17 0 -2
BITMAP
0000
0000
0000
0000
0000
0000
0007
7C0C
C00C
C00D
D80E
EC0C
C60C
C60C
C60C
C60C
C60E
ENDCHAR
STARTCHAR U+028F
ENCODING 655
SWIDTH 508 0
DWIDTH 9 0
BBX 9 17 0 -2
BITMAP
0000
0000
0000
0000
0000
0000
000C
C30C
C306
6603
3401
1801
1801
1801
1800
0000
000E
ENDCHAR
STARTCHAR U+0290
ENCODING 656
SWIDTH 508 0
DWIDTH 9 0
BBX 9 17 0 -2
BITMAP
0000
0000
0000
0000
0000
0000
000F
FC01
1801
1803
3003
3006
6006
600F
FC00
0C00
070E
ENDCHAR
STARTCHAR U+0291
ENCODING 657
SWIDTH 508 0
DWIDTH 9 0
BBX 9 17 0 -2
BITMAP
0000
0000
0000
0000
0000
0000
000F
FE00
0600
0C01
1803
3006
6E0D
DB0F
FE03
3000
000E
ENDCHAR
STARTCHAR U+0292
ENCODING 658
SWIDTH 508 0
DWIDTH 9 0
BBX 9 17 0 -2
BITMAP
0000
0000
0000
0000
0000
0000
0007
7E00
0C01
1803
3003
3C00
0600
0600
060C
C607
7C0E
ENDCHAR
STARTCHAR U+0293
ENCODING 659
SWIDTH 508 0
DWIDTH 9 0
BBX 9 17 0 -2
BITMAP
0000
0000
0000
0000
0000
0000
0007
7E00
0C01
1803
3003
3C00
0600
0607
760D
DA07
7C0E
ENDCHAR
STARTCHAR U+0294
ENCODING 660
SWIDTH 508 0
DWIDTH 9 0
BBX 9 17 0 -2
BITMAP
0000
0000
0000
0000
0007
7C0C
C60C
C600
0600
0C01
1801
1801
1801
1801
1800
0000
000E
ENDCHAR
STARTCHAR U+0295
ENCODING 661
SWIDTH 508 0
DWIDTH 9 0
BBX 9 17 0 -2
BITMAP
0000
0000
0000
0000
0007
7C0C
C60C
C60C
C006
6003
3003
3003
3003
3003
3000
0000
000E
ENDCHAR
STARTCHAR U+0296
ENCODING 662
SWIDTH 508 0
DWIDTH 9 0
BBX 9 17 0 -2
BITMAP
0000
0000
0000
0000
0001
1801
1801
1801
1801
1800
0C00
060C
C60C
C607
7C00
0000
000E
ENDCHAR
STARTCHAR U+0297
ENCODING 663
SWIDTH 508 0
DWIDTH 9 0
BBX 9 17 0 -2
BITMAP
0000
0000
0000
0000
0000
0000
0007
7C0C
C60C
C00C
C00C
C00C
C00C
C00C
C00C
C607
7C0E
ENDCHAR
STARTCHAR U+0298
ENCODING 664
SWIDTH 508 0
DWIDTH 9 0
BBX 9 17 0 -2
BITMAP
0000
0000
0000
0000
0000
0000
0007
7C0C
C60C
C60D
DA0D
DA0C
C60C
C607
7C00
0000
000E
ENDCHAR
STARTCHAR U+0299
ENCODING 665
SWIDTH 508 0
DWIDTH 9 0
BBX 9 17 0 -2
BITMAP
0000
0000
0000
0000
0000
0000
000F
FC0C
C60C
C60F
FC0C
C60C
C60C
C60F
FC00
0000
000E
ENDCHAR
STARTCHAR U+029A
ENCODING 666
SWIDTH 508 0
DWIDTH 9 0
BBX 9 17 0 -2
BITMAP
0000
0000
0000
0000
0000
0000
0007
7C0C
C60C
C607
7A0C
C60C
C60C
C607
7C00
0000
000E
ENDCHAR
STARTCHAR U+029B
ENCODING 667
SWIDTH 508 0
DWIDTH 9 0
BBX 9 17 0 -2
BITMAP
0000
0000
0000
0000
0000
0000
0007
7B0C
CC0C
C00C
C00D
DC0C
CC0C
CC07
7C00
0000
000E
ENDCHAR
STARTCHAR U+029C
ENCODING 668
SWIDTH 508 0
DWIDTH 9 0
BBX 9 17 0 -2
BITMAP
0000
0000
0000
0000
0000
0000
0006
6606
6606
6607
7E06
6606
6606
6606
6600
0000
000E
ENDCHAR
STARTCHAR U+029D
ENCODING 669
SWIDTH 508 0
DWIDTH 9 0
BBX 9 17 0 -2
BITMAP
0000
0000
0000
0000
0C00
0C00
0001
1C00
0C00
0C00
0C00
0C00
0C00
0C07
7E0D
D807
700E
ENDCHAR
STARTCHAR U+029E
ENCODING 670
SWIDTH 508 0
DWIDTH 9 0
BBX 9 17 0 -2
BITMAP
0000
0000
0000
0000
0000
0000
000C
C606
6603
3601
1A00
0E01
1A03
3606
6600
0600
060E
ENDCHAR
STARTCHAR U+029F
ENCODING 671
SWIDTH 508 0
DWIDTH 9 0
BBX 9 17 0 -2
BITMAP
0000
0000
0000
0000
0000
0000
000C
C00C
C00C
C00C
C00C
C00C
C00C
C00F
FE00
0000
000E
ENDCHAR
STARTCHAR U+02A0
ENCODING 672
SWIDTH 508 0
DWIDTH 9 0
BBX 9 17 0 -2
BITMAP
0000
0000
0000
0000
0000
0000
0707
740D
DC0C
CC0C
CC0C
CC0C
CC0D
DC07
7400
0C00
0C0E
ENDCHAR
STARTCHAR U+02A1
ENCODING 673
SWIDTH 508 0
DWIDTH 9 0
BBX 9 17 0 -2
BITMAP
0000
0000
0000
0000
0007
7C0C
C60C
C600
0600
0C01
1801
1807
7E01
1801
1800
0000
000E
ENDCHAR
STARTCHAR U+02A2
ENCODING 674
SWIDTH 508 0
DWIDTH 9 0
BBX 9 17 0 -2
BITMAP
0000
0000
0000
0000
0007
7C0C
C60C
C60C
C006
6003
3003
300F
FC03
3003
3000
0000
000E
ENDCHAR
STARTCHAR U+02A3
ENCODING 675
SWIDTH 508 0
DWIDTH 9 0
BBX 9 17 0 -2
BITMAP
0000
0000
0000
0003
3003
3003
3007
7F0D
D30D
D60D
D60D
D40D
D40D
D807
7F00
0000
000E
ENDCHAR
STARTCHAR U+02A4
ENCODING 676
SWIDTH 508 0
DWIDTH 9 0
BBX 9 17 0 -2
BITMAP
0000
0000
0000
0003
3003
3003
3007
7F0D
D30D
D60D
D40D
D60D
D30D
D307
7301
1B00
0E0E
ENDCHAR
STARTCHAR U+02A5
ENCODING 677
SWIDTH 508 0
DWIDTH 9 0
BBX 9 17 0 -2
BITMAP
0000
0000
0000
0003
3003
3003
3007
7F0D
D30D
D60D
D40D
D80D
DA0D
D507
7E00
0C00
000E
ENDCHAR
STARTCHAR U+02A6
ENCODING 678
SWIDTH 508 0
DWIDTH 9 0
BBX 9 17 0 -2
BITMAP
0000
0000
0000
0000
0006
6006
600F
F606
6806
6806
6C06
6606
6306
6303
3E00
0000
000E
ENDCHAR
STARTCHAR U+02A7
ENCODING 679
SWIDTH 508 0
DWIDTH 9 0
BBX 9 17 0 -2
BITMAP
0000
0000
0000
0000
0706
6C06
6C0F
FC06
6C06
6C06
6C06
6C06
6C06
6C03
3C00
0C03
380E
ENDCHAR
STARTCHAR U+02A8
ENCODING 680
SWIDTH 508 0
DWIDTH 9 0
BBX 9 17 0 -2
BITMAP
0000
0000
0000
0000
0006
6006
600F
F606
6B06
6806
6806
6806
6A06
6D03
3E00
0C00
000E
ENDCHAR
STARTCHAR U+02A9
ENCODING 681
SWIDTH 508 0
DWIDTH 9 0
BBX 9 17 0 -2
BITMAP
0000
0000
0000
0003
3806
6006
6006
600F
FB06
6D06
6B06
6B06
6B06
6B06
6B00
0300
0E0E
ENDCHAR
STARTCHAR U+02AA
ENCODING 682
SWIDTH 508 0
DWIDTH 9 0
BBX 9 17 0 -2
BITMAP
0000
0000
0000
0000
000E
E006
6006
6E06
6B06
6806
6C06
6606
6306
6B0F
F600
0000
000E
ENDCHAR
STARTCHAR U+02AB
ENCODING 683
SWIDTH 508 0
DWIDTH 9 0
BBX 9 17 0 -2
BITMAP
0000
0000
0000
0000
000E
E006
6006
6F06
6306
6606
6606
6C06
6C06
680F
FF00
0000
000E
ENDCHAR
STARTCHAR U+02AC
ENCODING 684
SWIDTH 508 0
DWIDTH 9 0
BBX 9 17 0 -2
BITMAP
0000
0000
0000
000C
C30D
DB0D
DB0D
DB07
7600
000C
C30D
DB0D
DB0D
DB07
7600
0000
000E
ENDCHAR
STARTCHAR U+02AD
ENCODING 685
SWIDTH 508 0
DWIDTH 9 0
BBX 9 17 0 -2
BITMAP
0000
0000
0000
0000
000F
FF0C
C30C
C30C
C300
0000
000F
FF0C
C30C
C30C
C300
0000
000E
ENDCHAR
STARTCHAR U+02B0
ENCODING 688
SWIDTH 508 0
DWIDTH 9 0
BBX 9 17 0 -2
BITMAP
0000
0000
0000
0000
0006
6006
6807
7406
6C06
6C00
0000
0000
0000
0000
0000
0000
000E
ENDCHAR
STARTCHAR U+02B1
ENCODING 689
SWIDTH 508 0
DWIDTH 9 0
BBX 9 17 0 -2
BITMAP
0000
0000
0000
0003
3806
6006
6807
7406
6C06
6C00
0000
0000
0000
0000
0000
0000
000E
ENDCHAR
STARTCHAR U+02B2
ENCODING 690
SWIDTH 508 0
DWIDTH 9 0
BBX 9 17 0 -2
BITMAP
0000
0000
0000
0001
1800
0001
1801
1806
6803
3000
0000
0000
0000
0000
0000
0000
000E
ENDCHAR
STARTCHAR U+02B3
ENCODING 691
SWIDTH 508 0
DWIDTH 9 0
BBX 9 17 0 -2
BITMAP
0000
0000
0000
0000
0006
6807
7406
6006
6006
6000
0000
0000
0000
0000
0000
0000
000E
ENDCHAR
STARTCHAR U+02B4
ENCODING 692
SWIDTH 508 0
DWIDTH 9 0
BBX 9 17 0 -2
BITMAP
0000
0000
0000
0000
0001
1801
1801
180D
D806
6800
0000
0000
0000
0000
0000
0000
000E
ENDCHAR
STARTCHAR U+02B5
ENCODING 693
SWIDTH 508 0
DWIDTH 9 0
BBX 9 17 0 -2
BITMAP
0000
0000
0000
0000
0001
1801
1801
180D
D806
6A00
0C00
0000
0000
0000
0000
0000
000E
ENDCHAR
STARTCHAR U+02B6
ENCODING 694
SWIDTH 508 0
DWIDTH 9 0
BBX 9 17 0 -2
BITMAP
0000
0000
0000
0000
000C
CC0D
D80F
F00D
D80F
F000
0000
0000
0000
0000
0000
0000
000E
ENDCHAR
STARTCHAR U+02B7
ENCODING 695
SWIDTH 508 0
DWIDTH 9 0
BBX 9 17 0 -2
BITMAP
0000
0000
0000
0000
0008
860B
B60B
B60E
EC00
0000
0000
0000
0000
0000
0000
0000
000E
ENDCHAR
STARTCHAR U+02B8
ENCODING 696
SWIDTH 508 0
DWIDTH 9 0
BBX 9 17 0 -2
BITMAP
0000
0000
0000
0000
000C
CC06
6803
3006
600C
C000
0000
0000
0000
0000
0000
0000
000E
ENDCHAR
STARTCHAR U+02B9
ENCODING 697
SWIDTH 508 0
DWIDTH 9 0
BBX 9 17 0 -2
BITMAP
0000
0000
0000
0000
0003
3003
3006
6000
0000
0000
0000
0000
0000
0000
0000
0000
000E
ENDCHAR
STARTCHAR U+02BA
ENCODING 698
SWIDTH 508 0
DWIDTH 9 0
BBX 9 17 0 -2
BITMAP
0000
0000
0000
0000
0003
3403
3406
6800
0000
0000
0000
0000
0000
0000
0000
0000
000E
ENDCHAR
STARTCHAR U+02BB
ENCODING 699
SWIDTH 508 0
DWIDTH 9 0
BBX 9 17 0 -2
BITMAP
0000
0000
0001
1803
3003
3003
3800
0000
0000
0000
0000
0000
0000
0000
0000
0000
000E
ENDCHAR
STARTCHAR U+02BC
ENCODING 700
SWIDTH 508 0
DWIDTH 9 0
BBX 9 17 0 -2
BITMAP
0000
0000
0003
3801
1801
1803
3000
0000
0000
0000
0000
0000
0000
0000
0000
0000
000E
ENDCHAR
STARTCHAR U+02BD
ENCODING 701
SWIDTH 508 0
DWIDTH 9 0
BBX 9 17 0 -2
BITMAP
0000
0000
0003
3803
3003
3001
1800
0000
0000
0000
0000
0000
0000
0000
0000
0000
000E
ENDCHAR
STARTCHAR U+02BE
ENCODING 702
SWIDTH 508 0
DWIDTH 9 0
BBX 9 17 0 -2
BITMAP
0000
0000
0000
0003
3800
0C00
0C03
3800
0000
0000
0000
0000
0000
0000
0000
0000
000E
ENDCHAR
STARTCHAR U+02BF
ENCODING 703
SWIDTH 508 0
DWIDTH 9 0
BBX 9 17 0 -2
BITMAP
0000
0000
0000
0003
3806
6006
6003
3800
0000
0000
0000
0000
0000
0000
0000
0000
000E
ENDCHAR
STARTCHAR U+02C0
ENCODING 704
SWIDTH 508 0
DWIDTH 9 0
BBX 9 17 0 -2
BITMAP
000F
F009
9809
9801
1807
7006
6006
6006
6000
0000
0000
0000
0000
0000
0000
0000
000E
ENDCHAR
STARTCHAR U+02C1
ENCODING 705
SWIDTH 508 0
DWIDTH 9 0
BBX 9 17 0 -2
BITMAP
000F
F009
9809
9808
800E
E006
6006
6006
6000
0000
0000
0000
0000
0000
0000
0000
000E
ENDCHAR
STARTCHAR U+02C2
ENCODING 706
SWIDTH 508 0
DWIDTH 9 0
BBX 9 17 0 -2
BITMAP
0000
0000
0000
0001
1803
3006
6003
3001
1800
0000
0000
0000
0000
0000
0000
0000
000E
ENDCHAR
STARTCHAR U+02C3
ENCODING 707
SWIDTH 508 0
DWIDTH 9 0
BBX 9 17 0 -2
BITMAP
0000
0000
0000
0006
6003
3001
1803
3006
6000
0000
0000
0000
0000
0000
0000
0000
000E
ENDCHAR
STARTCHAR U+02C4
ENCODING 708
SWIDTH 508 0
DWIDTH 9 0
BBX 9 17 0 -2
BITMAP
0000
0000
0000
0003
3006
680C
CC00
0000
0000
0000
0000
0000
0000
0000
0000
0000
000E
ENDCHAR
STARTCHAR U+02C5
ENCODING 709
SWIDTH 508 0
DWIDTH 9 0
BBX 9 17 0 -2
BITMAP
0000
0000
0000
000C
CC06
6803
3000
0000
0000
0000
0000
0000
0000
0000
0000
0000
000E
ENDCHAR
STARTCHAR U+02C6
ENCODING 710
SWIDTH 508 0
DWIDTH 9 0
BBX 9 17 0 -2
BITMAP
0003
3806
6C00
0000
0000
0000
0000
0000
0000
0000
0000
0000
0000
0000
0000
0000
000E
ENDCHAR
STARTCHAR U+02C7
ENCODING 711
SWIDTH 508 0
DWIDTH 9 0
BBX 9 17 0 -2
BITMAP
0000
0000
0000
0006
6C03
3800
0000
0000
0000
0000
0000
0000
0000
0000
0000
0000
000E
ENDCHAR
STARTCHAR U+02C8
ENCODING 712
SWIDTH 508 0
DWIDTH 9 0
BBX 9 17 0 -2
BITMAP
0000
0000
0000
0001
1801
1801
1800
0000
0000
0000
0000
0000
0000
0000
0000
0000
000E
ENDCHAR
STARTCHAR U+02C9
ENCODING 713
SWIDTH 508 0
DWIDTH 9 0
BBX 9 17 0 -2
BITMAP
0000
0000
0000
0007
7C00
0000
0000
0000
0000
0000
0000
0000
0000
0000
0000
0000
000E
ENDCHAR
STARTCHAR U+02CA
ENCODING 714
SWIDTH 508 0
DWIDTH 9 0
BBX 9 17 0 -2
BITMAP
0000
0000
0000
0001
1C07
7000
0000
0000
0000
0000
0000
0000
0000
0000
0000
0000
000E
ENDCHAR
STARTCHAR U+02CB
ENCODING 715
SWIDTH 508 0
DWIDTH 9 0
BBX 9 17 0 -2
BITMAP
0000
0000
0000
0007
7001
1C00
0000
0000
0000
0000
0000
0000
0000
0000
0000
0000
000E
ENDCHAR
STARTCHAR U+02CC
ENCODING 716
SWIDTH 508 0
DWIDTH 9 0
BBX 9 17 0 -2
BITMAP
0000
0000
0000
0000
0000
0000
0000
0000
0000
0000
0006
6006
6006
6000
0000
0000
000E
ENDCHAR
STARTCHAR U+02CD
ENCODING 717
SWIDTH 508 0
DWIDTH 9 0
BBX 9 17 0 -2
BITMAP
0000
0000
0000
0000
0000
0000
0000
0000
0000
0000
0000
0000
0000
0000
0007
7800
000E
ENDCHAR
STARTCHAR U+02CE
ENCODING 718
SWIDTH 508 0
DWIDTH 9 0
BBX 9 17 0 -2
BITMAP
0000
0000
0000
0000
0000
0000
0000
0000
0000
0000
0000
0000
0000
0003
3001
1800
000E
ENDCHAR
STARTCHAR U+02CF
ENCODING 719
SWIDTH 508 0
DWIDTH 9 0
BBX 9 17 0 -2
BITMAP
0000
0000
0000
0000
0000
0000
0000
0000
0000
0000
0000
0000
0000
0003
3006
6000
000E
ENDCHAR
STARTCHAR U+02D0
ENCODING 720
SWIDTH 508 0
DWIDTH 9 0
BBX 9 17 0 -2
BITMAP
0000
0000
0000
0000
0000
0000
0007
7803
3000
0000
0000
0003
3007
7800
0000
0000
000E
ENDCHAR
STARTCHAR U+02D1
ENCODING 721
SWIDTH 508 0
DWIDTH 9 0
BBX 9 17 0 -2
BITMAP
0000
0000
0000
0000
0000
0000
0007
7803
3000
0000
0000
0000
0000
0000
0000
0000
000E
ENDCHAR
STARTCHAR U+02D2
ENCODING 722
SWIDTH 508 0
DWIDTH 9 0
BBX 9 17 0 -2
BITMAP
0000
0000
0000
0000
0000
0000
0000
0003
3001
1801
1803
3000
0000
0000
0000
0000
000E
ENDCHAR
STARTCHAR U+02D3
ENCODING 723
SWIDTH 508 0
DWIDTH 9 0
BBX 9 17 0 -2
BITMAP
0000
0000
0000
0000
0000
0000
0000
0003
3006
6006
6003
3000
0000
0000
0000
0000
000E
ENDCHAR
STARTCHAR U+02D4
ENCODING 724
SWIDTH 508 0
DWIDTH 9 0
BBX 9 17 0 -2
BITMAP
0000
0000
0000
0000
0000
0000
0003
3003
300F
FC00
0000
0000
0000
0000
0000
0000
000E
ENDCHAR
STARTCHAR U+02D5
ENCODING 725
SWIDTH 508 0
DWIDTH 9 0
BBX 9 17 0 -2
BITMAP
0000
0000
0000
0000
0000
0000
0000
0000
000F
FC03
3003
3000
0000
0000
0000
0000
000E
ENDCHAR
STARTCHAR U+02D6
ENCODING 726
SWIDTH 508 0
DWIDTH 9 0
BBX 9 17 0 -2
BITMAP
0000
0000
0000
0000
0000
0000
0000
0003
3003
300F
FC03
3003
3000
0000
0000
0000
000E
ENDCHAR
STARTCHAR U+02D7
ENCODING 727
SWIDTH 508 0
DWIDTH 9 0
BBX 9 17 0 -2
BITMAP
0000
0000
0000
0000
0000
0000
0000
000C
CC0F
FC0C
CC00
0000
0000
0000
0000
0000
000E
ENDCHAR
STARTCHAR U+02D8
ENCODING 728
SWIDTH 508 0
DWIDTH 9 0
BBX 9 17 0 -2
BITMAP
000C
C60C
C607
7C00
0000
0000
0000
0000
0000
0000
0000
0000
0000
0000
0000
0000
000E
ENDCHAR
STARTCHAR U+02D9
ENCODING 729
SWIDTH 508 0
DWIDTH 9 0
BBX 9 17 0 -2
BITMAP
0003
3003
3000
0000
0000
0000
0000
0000
0000
0000
0000
0000
0000
0000
0000
0000
000E
ENDCHAR
STARTCHAR U+02DA
ENCODING 730
SWIDTH 508 0
DWIDTH 9 0
BBX 9 17 0 -2
BITMAP
0003
3806
6C03
3800
0000
0000
0000
0000
0000
0000
0000
0000
0000
0000
0000
0000
000E
ENDCHAR
STARTCHAR U+02DB
ENCODING 731
SWIDTH 508 0
DWIDTH 9 0
BBX 9 17 0 -2
BITMAP
0000
0000
0000
0000
0000
0000
0000
0000
0000
0000
0000
0000
0000
0000
0001
1800
0E0E
ENDCHAR
STARTCHAR U+02DC
ENCODING 732
SWIDTH 508 0
DWIDTH 9 0
BBX 9 17 0 -2
BITMAP
0007
760D
DC00
0000
0000
0000
0000
0000
0000
0000
0000
0000
0000
0000
0000
0000
000E
ENDCHAR
STARTCHAR U+02DD
ENCODING 733
SWIDTH 508 0
DWIDTH 9 0
BBX 9 17 0 -2
BITMAP
0007
770C
CC00
0000
0000
0000
0000
0000
0000
0000
0000
0000
0000
0000
0000
0000
000E
ENDCHAR
STARTCHAR U+02DE
ENCODING 734
SWIDTH 508 0
DWIDTH 9 0
BBX 9 17 0 -2
BITMAP
0000
0000
0000
0000
0000
0000
0000
000E
E00B
B601
1C00
0000
0000
0000
0000
0000
000E
ENDCHAR
STARTCHAR U+02DF
ENCODING 735
SWIDTH 508 0
DWIDTH 9 0
BBX 9 17 0 -2
BITMAP
0000
0000
0000
0000
0000
0000
0000
0006
6603
3401
1803
3406
6600
0000
0000
0000
000E
ENDCHAR
STARTCHAR U+02E0
ENCODING 736
SWIDTH 508 0
DWIDTH 9 0
BBX 9 17 0 -2
BITMAP
0000
0000
0000
0000
000C
CC06
6803
3006
6803
3000
0000
0000
0000
0000
0000
0000
000E
ENDCHAR
STARTCHAR U+02E1
ENCODING 737
SWIDTH 508 0
DWIDTH 9 0
BBX 9 17 0 -2
BITMAP
0000
0000
0000
0007
7003
3003
3003
3007
7800
0000
0000
0000
0000
0000
0000
0000
000E
ENDCHAR
STARTCHAR U+02E2
ENCODING 738
SWIDTH 508 0
DWIDTH 9 0
BBX 9 17 0 -2
BITMAP
0000
0000
0000
0000
0003
3806
6003
3001
1807
7000
0000
0000
0000
0000
0000
0000
000E
ENDCHAR
STARTCHAR U+02E3
ENCODING 739
SWIDTH 508 0
DWIDTH 9 0
BBX 9 17 0 -2
BITMAP
0000
0000
0000
0000
0006
6C03
3803
3806
6C00
0000
0000
0000
0000
0000
0000
0000
000E
ENDCHAR
STARTCHAR U+02E4
ENCODING 740
SWIDTH 508 0
DWIDTH 9 0
BBX 9 17 0 -2
BITMAP
0000
0000
0000
0000
0007
780C
CC0C
C00C
C007
7003
3003
3000
0000
0000
0000
0000
000E
ENDCHAR
STARTCHAR U+02E5
ENCODING 741
SWIDTH 508 0
DWIDTH 9 0
BBX 9 17 0 -2
BITMAP
0000
0000
0000
0000
000F
F801
1801
1801
1801
1801
1801
1801
1801
1801
1801
1800
000E
ENDCHAR
STARTCHAR U+02E6
ENCODING 742
SWIDTH 508 0
DWIDTH 9 0
BBX 9 17 0 -2
BITMAP
0000
0000
0000
0000
0001
1801
180F
F801
1801
1801
1801
1801
1801
1801
1801
1800
000E
ENDCHAR
STARTCHAR U+02E7
ENCODING 743
SWIDTH 508 0
DWIDTH 9 0
BBX 9 17 0 -2
BITMAP
0000
0000
0000
0000
0001
1801
1801
1801
1801
180F
F801
1801
1801
1801
1801
1800
000E
ENDCHAR
STARTCHAR U+02E8
ENCODING 744
SWIDTH 508 0
DWIDTH 9 0
BBX 9 17 0 -2
BITMAP
0000
0000
0000
0000
0001
1801
1801
1801
1801
1801
1801
1801
180F
F801
1801
1800
000E
ENDCHAR
STARTCHAR U+02E9
ENCODING 745
SWIDTH 508 0
DWIDTH 9 0
BBX 9 17 0 -2
BITMAP
0000
0000
0000
0000
0001
1801
1801
1801
1801
1801
1801
1801
1801
1801
180F
F800
000E
ENDCHAR
STARTCHAR U+02EA
ENCODING 746
SWIDTH 508 0
DWIDTH 9 0
BBX 9 17 0 -2
BITMAP
0000
0000
0000
0000
0000
0000
0000
000C
C00C
C00C
C00C
C00C
C00C
C00F
F800
0000
000E
ENDCHAR
STARTCHAR U+02EB
ENCODING 747
SWIDTH 508 0
DWIDTH 9 0
BBX 9 17 0 -2
BITMAP
0000
0000
0000
0000
0000
0000
0000
000C
C00C
C00C
C00F
F80C
C00C
C00C
C000
0000
000E
ENDCHAR
STARTCHAR U+02EC
ENCODING 748
SWIDTH 508 0
DWIDTH 9 0
BBX 9 17 0 -2
BITMAP
0000
0000
0000
0000
0000
0000
0000
0000
0000
0000
0000
0000
0006
6603
3401
1800
000E
ENDCHAR
STARTCHAR U+02ED
ENCODING 749
SWIDTH 508 0
DWIDTH 9 0
BBX 9 17 0 -2
BITMAP
0000
0000
000F
FE00
0000
000F
FE00
0000
0000
0000
0000
0000
0000
0000
0000
0000
000E
ENDCHAR
STARTCHAR U+02EE
ENCODING 750
SWIDTH 508 0
DWIDTH 9 0
BBX 9 17 0 -2
BITMAP
0000
0000
0000
0000
0007
7603
3603
3606
6C00
0000
0000
0000
0000
0000
0000
0000
000E
ENDCHAR
STARTCHAR U+0300
ENCODING 768
SWIDTH 508 0
DWIDTH 9 0
BBX 9 17 0 -2
BITMAP
0007
7001
1C00
0000
0000
0000
0000
0000
0000
0000
0000
0000
0000
0000
0000
0000
000E
ENDCHAR
STARTCHAR U+0301
ENCODING 769
SWIDTH 508 0
DWIDTH 9 0
BBX 9 17 0 -2
BITMAP
0001
1C07
7000
0000
0000
0000
0000
0000
0000
0000
0000
0000
0000
0000
0000
0000
000E
ENDCHAR
STARTCHAR U+0302
ENCODING 770
SWIDTH 508 0
DWIDTH 9 0
BBX 9 17 0 -2
BITMAP
0003
3806
6C0C
C600
0000
0000
0000
0000
0000
0000
0000
0000
0000
0000
0000
0000
000E
ENDCHAR
STARTCHAR U+0303
ENCODING 771
SWIDTH 508 0
DWIDTH 9 0
BBX 9 17 0 -2
BITMAP
0007
760D
DC00
0000
0000
0000
0000
0000
0000
0000
0000
0000
0000
0000
0000
0000
000E
ENDCHAR
STARTCHAR U+0304
ENCODING 772
SWIDTH 508 0
DWIDTH 9 0
BBX 9 17 0 -2
BITMAP
0000
0007
7C00
0000
0000
0000
0000
0000
0000
0000
0000
0000
0000
0000
0000
0000
000E
ENDCHAR
STARTCHAR U+0305
ENCODING 773
SWIDTH 508 0
DWIDTH 9 0
BBX 9 17 0 -2
BITMAP
0000
000F
FF00
0000
0000
0000
0000
0000
0000
0000
0000
0000
0000
0000
0000
0000
000E
ENDCHAR
STARTCHAR U+0306
ENCODING 774
SWIDTH 508 0
DWIDTH 9 0
BBX 9 17 0 -2
BITMAP
000C
C60C
C607
7C00
0000
0000
0000
0000
0000
0000
0000
0000
0000
0000
0000
0000
000E
ENDCHAR
STARTCHAR U+0307
ENCODING 775
SWIDTH 508 0
DWIDTH 9 0
BBX 9 17 0 -2
BITMAP
0003
3003
3000
0000
0000
0000
0000
0000
0000
0000
0000
0000
0000
0000
0000
0000
000E
ENDCHAR
STARTCHAR U+0308
ENCODING 776
SWIDTH 508 0
DWIDTH 9 0
BBX 9 17 0 -2
BITMAP
0006
6C06
6C00
0000
0000
0000
0000
0000
0000
0000
0000
0000
0000
0000
0000
0000
000E
ENDCHAR
STARTCHAR U+0309
ENCODING 777
SWIDTH 508 0
DWIDTH 9 0
BBX 9 17 0 -2
BITMAP
0003
3801
1800
0000
0000
0000
0000
0000
0000
0000
0000
0000
0000
0000
0000
0000
000E
ENDCHAR
STARTCHAR U+030A
ENCODING 778
SWIDTH 508 0
DWIDTH 9 0
BBX 9 17 0 -2
BITMAP
0003
3806
6C03
3800
0000
0000
0000
0000
0000
0000
0000
0000
0000
0000
0000
0000
000E
ENDCHAR
STARTCHAR U+030B
ENCODING 779
SWIDTH 508 0
DWIDTH 9 0
BBX 9 17 0 -2
BITMAP
0007
770C
CC00
0000
0000
0000
0000
0000
0000
0000
0000
0000
0000
0000
0000
0000
000E
ENDCHAR
STARTCHAR U+030C
ENCODING 780
SWIDTH 508 0
DWIDTH 9 0
BBX 9 17 0 -2
BITMAP
0006
6603
3401
1800
0000
0000
0000
0000
0000
0000
0000
0000
0000
0000
0000
0000
000E
ENDCHAR
STARTCHAR U+030D
ENCODING 781
SWIDTH 508 0
DWIDTH 9 0
BBX 9 17 0 -2
BITMAP
0001
1801
1801
1801
1800
0000
0000
0000
0000
0000
0000
0000
0000
0000
0000
0000
000E
ENDCHAR
STARTCHAR U+030E
ENCODING 782
SWIDTH 508 0
DWIDTH 9 0
BBX 9 17 0 -2
BITMAP
0003
3403
3403
3403
3400
0000
0000
0000
0000
0000
0000
0000
0000
0000
0000
0000
000E
ENDCHAR
STARTCHAR U+030F
ENCODING 783
SWIDTH 508 0
DWIDTH 9 0
BBX 9 17 0 -2
BITMAP
000D
DC06
6600
0000
0000
0000
0000
0000
0000
0000
0000
0000
0000
0000
0000
0000
000E
ENDCHAR
STARTCHAR U+0310
ENCODING 784
SWIDTH 508 0
DWIDTH 9 0
BBX 9 17 0 -2
BITMAP
0003
380D
DA0C
C607
7C00
0000
0000
0000
0000
0000
0000
0000
0000
0000
0000
0000
000E
ENDCHAR
STARTCHAR U+0311
ENCODING 785
SWIDTH 508 0
DWIDTH 9 0
BBX 9 17 0 -2
BITMAP
0007
7C0C
C60C
C600
0000
0000
0000
0000
0000
0000
0000
0000
0000
0000
0000
0000
000E
ENDCHAR
STARTCHAR U+0312
ENCODING 786
SWIDTH 508 0
DWIDTH 9 0
BBX 9 17 0 -2
BITMAP
0000
0000
0003
3006
6007
7000
0000
0000
0000
0000
0000
0000
0000
0000
0000
0000
000E
ENDCHAR
STARTCHAR U+0313
ENCODING 787
SWIDTH 508 0
DWIDTH 9 0
BBX 9 17 0 -2
BITMAP
0000
0000
0007
7003
3006
6000
0000
0000
0000
0000
0000
0000
0000
0000
0000
0000
000E
ENDCHAR
STARTCHAR U+0314
ENCODING 788
SWIDTH 508 0
DWIDTH 9 0
BBX 9 17 0 -2
BITMAP
0000
0000
0007
7006
6003
3000
0000
0000
0000
0000
0000
0000
0000
0000
0000
0000
000E
ENDCHAR
STARTCHAR U+0315
ENCODING 789
SWIDTH 508 0
DWIDTH 9 0
BBX 9 17 0 -2
BITMAP
0000
0000
0000
0E00
0600
0C00
0000
0000
0000
0000
0000
0000
0000
0000
0000
0000
000E
ENDCHAR
STARTCHAR U+0316
ENCODING 790
SWIDTH 508 0
DWIDTH 9 0
BBX 9 17 0 -2
BITMAP
0000
0000
0000
0000
0000
0000
0000
0000
0000
0000
0000
0000
0000
0000
0007
7001
1C0E
ENDCHAR
STARTCHAR U+0317
ENCODING 791
SWIDTH 508 0
DWIDTH 9 0
BBX 9 17 0 -2
BITMAP
0000
0000
0000
0000
0000
0000
0000
0000
0000
0000
0000
0000
0000
0000
0001
1C07
700E
ENDCHAR
STARTCHAR U+0318
ENCODING 792
SWIDTH 508 0
DWIDTH 9 0
BBX 9 17 0 -2
BITMAP
0000
0000
0000
0000
0000
0000
0000
0000
0000
0000
0000
0000
0C00
0C07
7C00
0C00
0C0E
ENDCHAR
STARTCHAR U+0319
ENCODING 793
SWIDTH 508 0
DWIDTH 9 0
BBX 9 17 0 -2
BITMAP
0000
0000
0000
0000
0000
0000
0000
0000
0000
0000
0000
0006
6006
6007
7C06
6006
600E
ENDCHAR
STARTCHAR U+031A
ENCODING 794
SWIDTH 508 0
DWIDTH 9 0
BBX 9 17 0 -2
BITMAP
0000
0007
7C00
0C00
0C00
0000
0000
0000
0000
0000
0000
0000
0000
0000
0000
0000
000E
ENDCHAR
STARTCHAR U+031B
ENCODING 795
SWIDTH 508 0
DWIDTH 9 0
BBX 9 17 0 -2
BITMAP
0000
0000
0000
0300
0300
0E00
0000
0000
0000
0000
0000
0000
0000
0000
0000
0000
000E
ENDCHAR
STARTCHAR U+031C
ENCODING 796
SWIDTH 508 0
DWIDTH 9 0
BBX 9 17 0 -2
BITMAP
0000
0000
0000
0000
0000
0000
0000
0000
0000
0000
0000
0000
0000
0003
3806
6003
380E
ENDCHAR
STARTCHAR U+031D
ENCODING 797
SWIDTH 508 0
DWIDTH 9 0
BBX 9 17 0 -2
BITMAP
0000
0000
0000
0000
0000
0000
0000
0000
0000
0000
0000
0000
0001
1801
1803
3C00
000E
ENDCHAR
STARTCHAR U+031E
ENCODING 798
SWIDTH 508 0
DWIDTH 9 0
BBX 9 17 0 -2
BITMAP
0000
0000
0000
0000
0000
0000
0000
0000
0000
0000
0000
0000
0000
0003
3C01
1801
180E
ENDCHAR
STARTCHAR U+031F
ENCODING 799
SWIDTH 508 0
DWIDTH 9 0
BBX 9 17 0 -2
BITMAP
0000
0000
0000
0000
0000
0000
0000
0000
0000
0000
0000
0001
1801
1807
7E01
1801
180E
ENDCHAR
STARTCHAR U+0320
ENCODING 800
SWIDTH 508 0
DWIDTH 9 0
BBX 9 17 0 -2
BITMAP
0000
0000
0000
0000
0000
0000
0000
0000
0000
0000
0000
0000
0000
0000
0007
7C00
000E
ENDCHAR
STARTCHAR U+0321
ENCODING 801
SWIDTH 508 0
DWIDTH 9 0
BBX 9 17 0 -2
BITMAP
0000
0000
0000
0000
0000
0000
0000
0000
0000
0000
0000
0000
0000
0600
0601
1A00
0C0E
ENDCHAR
STARTCHAR U+0322
ENCODING 802
SWIDTH 508 0
DWIDTH 9 0
BBX 9 17 0 -2
BITMAP
0000
0000
0000
0000
0000
0000
0000
0000
0000
0000
0000
0000
0000
0C00
0C00
0D00
060E
ENDCHAR
STARTCHAR U+0323
ENCODING 803
SWIDTH 508 0
DWIDTH 9 0
BBX 9 17 0 -2
BITMAP
0000
0000
0000
0000
0000
0000
0000
0000
0000
0000
0000
0000
0000
0000
0003
3803
380E
ENDCHAR
STARTCHAR U+0324
ENCODING 804
SWIDTH 508 0
DWIDTH 9 0
BBX 9 17 0 -2
BITMAP
0000
0000
0000
0000
0000
0000
0000
0000
0000
0000
0000
0000
0000
0000
0006
6C06
6C0E
ENDCHAR
STARTCHAR U+0325
ENCODING 805
SWIDTH 508 0
DWIDTH 9 0
BBX 9 17 0 -2
BITMAP
0000
0000
0000
0000
0000
0000
0000
0000
0000
0000
0000
0000
0000
0003
3806
6C03
380E
ENDCHAR
STARTCHAR U+0326
ENCODING 806
SWIDTH 508 0
DWIDTH 9 0
BBX 9 17 0 -2
BITMAP
0000
0000
0000
0000
0000
0000
0000
0000
0000
0000
0000
0000
0003
3801
1803
3000
000E
ENDCHAR
STARTCHAR U+0327
ENCODING 807
SWIDTH 508 0
DWIDTH 9 0
BBX 9 17 0 -2
BITMAP
0000
0000
0000
0000
0000
0000
0000
0000
0000
0000
0000
0000
0003
3003
300D
D807
700E
ENDCHAR
STARTCHAR U+0328
ENCODING 808
SWIDTH 508 0
DWIDTH 9 0
BBX 9 17 0 -2
BITMAP
0000
0000
0000
0000
0000
0000
0000
0000
0000
0000
0000
0000
0000
0000
0C01
1B00
0E0E
ENDCHAR
STARTCHAR U+0329
ENCODING 809
SWIDTH 508 0
DWIDTH 9 0
BBX 9 17 0 -2
BITMAP
0000
0000
0000
0000
0000
0000
0000
0000
0000
0000
0000
0000
0000
0003
3003
3003
300E
ENDCHAR
STARTCHAR U+032A
ENCODING 810
SWIDTH 508 0
DWIDTH 9 0
BBX 9 17 0 -2
BITMAP
0000
0000
0000
0000
0000
0000
0000
0000
0000
0000
0000
0000
0000
000F
FE0C
C60C
C60E
ENDCHAR
STARTCHAR U+032B
ENCODING 811
SWIDTH 508 0
DWIDTH 9 0
BBX 9 17 0 -2
BITMAP
0000
0000
0000
0000
0000
0000
0000
0000
0000
0000
0000
0000
0000
000D
D40D
D406
680E
ENDCHAR
STARTCHAR U+032C
ENCODING 812
SWIDTH 508 0
DWIDTH 9 0
BBX 9 17 0 -2
BITMAP
0000
0000
0000
0000
0000
0000
0000
0000
0000
0000
0000
0000
0000
0006
6603
3401
180E
ENDCHAR
STARTCHAR U+032D
ENCODING 813
SWIDTH 508 0
DWIDTH 9 0
BBX 9 17 0 -2
BITMAP
0000
0000
0000
0000
0000
0000
0000
0000
0000
0000
0000
0000
0000
0003
3806
6C0C
C60E
ENDCHAR
STARTCHAR U+032E
ENCODING 814
SWIDTH 508 0
DWIDTH 9 0
BBX 9 17 0 -2
BITMAP
0000
0000
0000
0000
0000
0000
0000
0000
0000
0000
0000
0000
0000
000C
C60C
C607
7C0E
ENDCHAR
STARTCHAR U+032F
ENCODING 815
SWIDTH 508 0
DWIDTH 9 0
BBX 9 17 0 -2
BITMAP
0000
0000
0000
0000
0000
0000
0000
0000
0000
0000
0000
0000
0000
0007
7C0C
C60C
C60E
ENDCHAR
STARTCHAR U+0330
ENCODING 816
SWIDTH 508 0
DWIDTH 9 0
BBX 9 17 0 -2
BITMAP
0000
0000
0000
0000
0000
0000
0000
0000
0000
0000
0000
0000
0000
0000
0007
760D
DC0E
ENDCHAR
STARTCHAR U+0331
ENCODING 817
SWIDTH 508 0
DWIDTH 9 0
BBX 9 17 0 -2
BITMAP
0000
0000
0000
0000
0000
0000
0000
0000
0000
0000
0000
0000
0000
0000
000F
FE00
000E
ENDCHAR
STARTCHAR U+0332
ENCODING 818
SWIDTH 508 0
DWIDTH 9 0
BBX 9 17 0 -2
BITMAP
0000
0000
0000
0000
0000
0000
0000
0000
0000
0000
0000
0000
0000
0000
000F
FF00
000E
ENDCHAR
STARTCHAR U+0333
ENCODING 819
SWIDTH 508 0
DWIDTH 9 0
BBX 9 17 0 -2
BITMAP
0000
0000
0000
0000
0000
0000
0000
0000
0000
0000
0000
0000
0000
000F
FF00
000F
FF0E
ENDCHAR
STARTCHAR U+0334
ENCODING 820
SWIDTH 508 0
DWIDTH 9 0
BBX 9 17 0 -2
BITMAP
0000
0000
0000
0000
0000
0000
0007
760D
DA0D
DC00
0000
0000
0000
0000
0000
0000
000E
ENDCHAR
STARTCHAR U+0335
ENCODING 821
SWIDTH 508 0
DWIDTH 9 0
BBX 9 17 0 -2
BITMAP
0000
0000
0000
0000
0000
0000
0000
0007
7C00
0000
0000
0000
0000
0000
0000
0000
000E
ENDCHAR
STARTCHAR U+0336
ENCODING 822
SWIDTH 508 0
DWIDTH 9 0
BBX 9 17 0 -2
BITMAP
0000
0000
0000
0000
0000
0000
0000
000F
FF00
0000
0000
0000
0000
0000
0000
0000
000E
ENDCHAR
STARTCHAR U+0337
ENCODING 823
SWIDTH 508 0
DWIDTH 9 0
BBX 9 17 0 -2
BITMAP
0000
0000
0000
0000
0000
0000
0000
0600
0C01
1803
3006
600C
C000
0000
0000
0000
000E
ENDCHAR
STARTCHAR U+0338
ENCODING 824
SWIDTH 508 0
DWIDTH 9 0
BBX 9 17 0 -2
BITMAP
0000
0000
0000
0000
0600
0C00
0C01
1801
1803
3003
3006
6006
600C
C000
0000
0000
000E
ENDCHAR
STARTCHAR U+0339
ENCODING 825
SWIDTH 508 0
DWIDTH 9 0
BBX 9 17 0 -2
BITMAP
0000
0000
0000
0000
0000
0000
0000
0000
0000
0000
0000
0000
0000
0003
3800
0C03
380E
ENDCHAR
STARTCHAR U+033A
ENCODING 826
SWIDTH 508 0
DWIDTH 9 0
BBX 9 17 0 -2
BITMAP
0000
0000
0000
0000
0000
0000
0000
0000
0000
0000
0000
0000
0000
000C
C60C
C60F
FE0E
ENDCHAR
STARTCHAR U+033B
ENCODING 827
SWIDTH 508 0
DWIDTH 9 0
BBX 9 17 0 -2
BITMAP
0000
0000
0000
0000
0000
0000
0000
0000
0000
0000
0000
0000
0000
0007
7806
6807
780E
ENDCHAR
STARTCHAR U+033C
ENCODING 828
SWIDTH 508 0
DWIDTH 9 0
BBX 9 17 0 -2
BITMAP
0000
0000
0000
0000
0000
0000
0000
0000
0000
0000
0000
0000
0000
000E
EC0B
B600
000E
ENDCHAR
STARTCHAR U+033D
ENCODING 829
SWIDTH 508 0
DWIDTH 9 0
BBX 9 17 0 -2
BITMAP
0000
000E
EE03
380E
EE00
0000
0000
0000
0000
0000
0000
0000
0000
0000
0000
0000
000E
ENDCHAR
STARTCHAR U+033E
ENCODING 830
SWIDTH 508 0
DWIDTH 9 0
BBX 9 17 0 -2
BITMAP
0001
1C03
3801
1801
1C03
3800
0000
0000
0000
0000
0000
0000
0000
0000
0000
0000
000E
ENDCHAR
STARTCHAR U+033F
ENCODING 831
SWIDTH 508 0
DWIDTH 9 0
BBX 9 17 0 -2
BITMAP
000F
FE00
000F
FE00
0000
0000
0000
0000
0000
0000
0000
0000
0000
0000
0000
0000
000E
ENDCHAR
STARTCHAR U+0340
ENCODING 832
SWIDTH 508 0
DWIDTH 9 0
BBX 9 17 0 -2
BITMAP
0007
7001
1C00
0000
0000
0000
0000
0000
0000
0000
0000
0000
0000
0000
0000
0000
000E
ENDCHAR
STARTCHAR U+0341
ENCODING 833
SWIDTH 508 0
DWIDTH 9 0
BBX 9 17 0 -2
BITMAP
0001
1C07
7000
0000
0000
0000
0000
0000
0000
0000
0000
0000
0000
0000
0000
0000
000E
ENDCHAR
STARTCHAR U+0342
ENCODING 834
SWIDTH 508 0
DWIDTH 9 0
BBX 9 17 0 -2
BITMAP
000E
EC0B
B800
0000
0000
0000
0000
0000
0000
0000
0000
0000
0000
0000
0000
0000
000E
ENDCHAR
STARTCHAR U+0343
ENCODING 835
SWIDTH 508 0
DWIDTH 9 0
BBX 9 17 0 -2
BITMAP
0000
0000
0007
7003
3006
6000
0000
0000
0000
0000
0000
0000
0000
0000
0000
0000
000E
ENDCHAR
STARTCHAR U+0344
ENCODING 836
SWIDTH 508 0
DWIDTH 9 0
BBX 9 17 0 -2
BITMAP
0003
300D
D403
3000
0000
0000
0000
0000
0000
0000
0000
0000
0000
0000
0000
0000
000E
ENDCHAR
STARTCHAR U+0345
ENCODING 837
SWIDTH 508 0
DWIDTH 9 0
BBX 9 17 0 -2
BITMAP
0000
0000
0000
0000
0000
0000
0000
0000
0000
0000
0000
0000
0000
0000
0003
3003
380E
ENDCHAR
STARTCHAR U+0346
ENCODING 838
SWIDTH 508 0
DWIDTH 9 0
BBX 9 17 0 -2
BITMAP
0007
7C06
6C06
6C00
0000
0000
0000
0000
0000
0000
0000
0000
0000
0000
0000
0000
000E
ENDCHAR
STARTCHAR U+0347
ENCODING 839
SWIDTH 508 0
DWIDTH 9 0
BBX 9 17 0 -2
BITMAP
0000
0000
0000
0000
0000
0000
0000
0000
0000
0000
0000
0000
0000
0007
7C00
0007
7C0E
ENDCHAR
STARTCHAR U+0348
ENCODING 840
SWIDTH 508 0
DWIDTH 9 0
BBX 9 17 0 -2
BITMAP
0000
0000
0000
0000
0000
0000
0000
0000
0000
0000
0000
0000
0000
0003
3403
3403
340E
ENDCHAR
STARTCHAR U+0349
ENCODING 841
SWIDTH 508 0
DWIDTH 9 0
BBX 9 17 0 -2
BITMAP
0000
0000
0000
0000
0000
0000
0000
0000
0000
0000
0000
0000
0000
0007
7C00
0C00
0C0E
ENDCHAR
STARTCHAR U+034A
ENCODING 842
SWIDTH 508 0
DWIDTH 9 0
BBX 9 17 0 -2
BITMAP
0000
0C0F
FB0B
BE06
6000
0000
0000
0000
0000
0000
0000
0000
0000
0000
0000
0000
000E
ENDCHAR
STARTCHAR U+034B
ENCODING 843
SWIDTH 508 0
DWIDTH 9 0
BBX 9 17 0 -2
BITMAP
0000
0C0F
F309
9E07
7000
0000
0000
0000
0000
0000
0000
0000
0000
0000
0000
0000
000E
ENDCHAR
STARTCHAR U+034C
ENCODING 844
SWIDTH 508 0
DWIDTH 9 0
BBX 9 17 0 -2
BITMAP
0007
760D
DC07
760D
DC00
0000
0000
0000
0000
0000
0000
0000
0000
0000
0000
0000
000E
ENDCHAR
STARTCHAR U+034D
ENCODING 845
SWIDTH 508 0
DWIDTH 9 0
BBX 9 17 0 -2
BITMAP
0000
0000
0000
0000
0000
0000
0000
0000
0000
0000
0000
0006
6C0C
C60F
FF0C
C606
6C0E
ENDCHAR
STARTCHAR U+034E
ENCODING 846
SWIDTH 508 0
DWIDTH 9 0
BBX 9 17 0 -2
BITMAP
0000
0000
0000
0000
0000
0000
0000
0000
0000
0000
0000
0000
0003
3007
780D
D403
300E
ENDCHAR
STARTCHAR U+0360
ENCODING 864
SWIDTH 508 0
DWIDTH 9 0
BBX 9 17 0 -2
BITMAP
0000
0000
0007
730D
DE00
0000
0000
0000
0000
0000
0000
0000
0000
0000
0000
0000
000E
ENDCHAR
STARTCHAR U+0361
ENCODING 865
SWIDTH 508 0
DWIDTH 9 0
BBX 9 17 0 -2
BITMAP
0000
0000
0007
7E0C
C300
0000
0000
0000
0000
0000
0000
0000
0000
0000
0000
0000
000E
ENDCHAR
STARTCHAR U+0362
ENCODING 866
SWIDTH 508 0
DWIDTH 9 0
BBX 9 17 0 -2
BITMAP
0000
0000
0000
0000
0000
0000
0000
0000
0000
0000
0000
0000
060F
FF00
0600
0000
000E
ENDCHAR
STARTCHAR U+0374
ENCODING 884
SWIDTH 508 0
DWIDTH 9 0
BBX 9 17 0 -2
BITMAP
0000
0000
0000
0000
0001
1C03
3803
3006
6000
0000
0000
0000
0000
0000
0000
0000
000E
ENDCHAR
STARTCHAR U+0375
ENCODING 885
SWIDTH 508 0
DWIDTH 9 0
BBX 9 17 0 -2
BITMAP
0000
0000
0000
0000
0000
0000
0000
0000
0000
0000
0000
0000
0001
1C03
3803
3006
600E
ENDCHAR
STARTCHAR U+037A
ENCODING 890
SWIDTH 508 0
DWIDTH 9 0
BBX 9 17 0 -2
BITMAP
0000
0000
0000
0000
0000
0000
0000
0000
0000
0000
0000
0000
0000
0000
0003
3003
380E
ENDCHAR
STARTCHAR U+037E
ENCODING 894
SWIDTH 508 0
DWIDTH 9 0
BBX 9 17 0 -2
BITMAP
0000
0000
0000
0000
0000
0000
0000
0000
0003
3803
3800
0000
0003
3801
1801
1803
300E
ENDCHAR
STARTCHAR U+0384
ENCODING 900
SWIDTH 508 0
DWIDTH 9 0
BBX 9 17 0 -2
BITMAP
0003
3003
3003
3000
0000
0000
0000
0000
0000
0000
0000
0000
0000
0000
0000
0000
000E
ENDCHAR
STARTCHAR U+0385
ENCODING 901
SWIDTH 508 0
DWIDTH 9 0
BBX 9 17 0 -2
BITMAP
0003
3003
3003
300C
CC0C
CC00
0000
0000
0000
0000
0000
0000
0000
0000
0000
0000
000E
ENDCHAR
STARTCHAR U+0386
ENCODING 902
SWIDTH 508 0
DWIDTH 9 0
BBX 9 17 0 -2
BITMAP
000C
C00C
C00C
C000
0003
3806
6C06
6C0C
C60C
C60F
FE0C
C60C
C60C
C60C
C600
0000
000E
ENDCHAR
STARTCHAR U+0387
ENCODING 903
SWIDTH 508 0
DWIDTH 9 0
BBX 9 17 0 -2
BITMAP
0000
0000
0000
0000
0000
0000
0000
0000
0001
1803
3C01
1800
0000
0000
0000
0000
000E
ENDCHAR
STARTCHAR U+0388
ENCODING 904
SWIDTH 508 0
DWIDTH 9 0
BBX 9 17 0 -2
BITMAP
000C
C00C
C00C
C000
000F
FE0C
C00C
C00C
C00F
FC0C
C00C
C00C
C00C
C00F
FE00
0000
000E
ENDCHAR
STARTCHAR U+0389
ENCODING 905
SWIDTH 508 0
DWIDTH 9 0
BBX 9 17 0 -2
BITMAP
000C
C00C
C00C
C000
000C
C60C
C60C
C60C
C60F
FE0C
C60C
C60C
C60C
C60C
C600
0000
000E
ENDCHAR
STARTCHAR U+038A
ENCODING 906
SWIDTH 508 0
DWIDTH 9 0
BBX 9 17 0 -2
BITMAP
000C
C00C
C00C
C000
0007
7E01
1801
1801
1801
1801
1801
1801
1801
1807
7E00
0000
000E
ENDCHAR
STARTCHAR U+038C
ENCODING 908
SWIDTH 508 0
DWIDTH 9 0
BBX 9 17 0 -2
BITMAP
000C
C00C
C00C
C000
0007
7C0C
C60C
C60C
C60C
C60C
C60C
C60C
C60C
C607
7C00
0000
000E
ENDCHAR
STARTCHAR U+038E
ENCODING 910
SWIDTH 508 0
DWIDTH 9 0
BBX 9 17 0 -2
BITMAP
000C
C00C
C00C
C000
000C
C30C
C306
6606
6603
3401
1801
1801
1801
1801
1800
0000
000E
ENDCHAR
STARTCHAR U+038F
ENCODING 911
SWIDTH 508 0
DWIDTH 9 0
BBX 9 17 0 -2
BITMAP
000C
C00C
C00C
C000
0007
7E0C
C30C
C30C
C30C
C30C
C30C
C306
6603
3403
340F
F700
000E
ENDCHAR
STARTCHAR U+0390
ENCODING 912
SWIDTH 508 0
DWIDTH 9 0
BBX 9 17 0 -2
BITMAP
0003
3003
3003
300C
CC0C
CC00
0003
3003
3003
3003
3003
3003
3003
3001
1C00
0000
000E
ENDCHAR
STARTCHAR U+0391
ENCODING 913
SWIDTH 508 0
DWIDTH 9 0
BBX 9 17 0 -2
BITMAP
0000
0000
0000
0000
0003
3806
6C06
6C0C
C60C
C60F
FE0C
C60C
C60C
C60C
C600
0000
000E
ENDCHAR
STARTCHAR U+0392
ENCODING 914
SWIDTH 508 0
DWIDTH 9 0
BBX 9 17 0 -2
BITMAP
0000
0000
0000
0000
000F
FC0C
C60C
C60C
C60F
FC0C
C60C
C60C
C60C
C60F
FC00
0000
000E
ENDCHAR
STARTCHAR U+0393
ENCODING 915
SWIDTH 508 0
DWIDTH 9 0
BBX 9 17 0 -2
BITMAP
0000
0000
0000
0000
000F
FE0C
C00C
C00C
C00C
C00C
C00C
C00C
C00C
C00C
C000
0000
000E
ENDCHAR
STARTCHAR U+0394
ENCODING 916
SWIDTH 508 0
DWIDTH 9 0
BBX 9 17 0 -2
BITMAP
0000
0000
0000
0000
0001
1801
1803
3403
3406
6606
6606
660C
C30C
C30F
FF00
0000
000E
ENDCHAR
STARTCHAR U+0395
ENCODING 917
SWIDTH 508 0
DWIDTH 9 0
BBX 9 17 0 -2
BITMAP
0000
0000
0000
0000
000F
FE0C
C00C
C00C
C00F
FC0C
C00C
C00C
C00C
C00F
FE00
0000
000E
ENDCHAR
STARTCHAR U+0396
ENCODING 918
SWIDTH 508 0
DWIDTH 9 0
BBX 9 17 0 -2
BITMAP
0000
0000
0000
0000
000F
FE00
0600
0600
0C01
1803
3006
600C
C00C
C00F
FE00
0000
000E
ENDCHAR
STARTCHAR U+0397
ENCODING 919
SWIDTH 508 0
DWIDTH 9 0
BBX 9 17 0 -2
BITMAP
0000
0000
0000
0000
000C
C60C
C60C
C60C
C60F
FE0C
C60C
C60C
C60C
C60C
C600
0000
000E
ENDCHAR
STARTCHAR U+0398
ENCODING 920
SWIDTH 508 0
DWIDTH 9 0
BBX 9 17 0 -2
BITMAP
0000
0000
0000
0000
0007
7C0C
C60C
C60C
C60F
FE0C
C60C
C60C
C60C
C607
7C00
0000
000E
ENDCHAR
STARTCHAR U+0399
ENCODING 921
SWIDTH 508 0
DWIDTH 9 0
BBX 9 17 0 -2
BITMAP
0000
0000
0000
0000
0007
7E01
1801
1801
1801
1801
1801
1801
1801
1807
7E00
0000
000E
ENDCHAR
STARTCHAR U+039A
ENCODING 922
SWIDTH 508 0
DWIDTH 9 0
BBX 9 17 0 -2
BITMAP
0000
0000
0000
0000
000C
C60C
CC0D
D80D
D00E
E00E
E00D
D00D
D80C
CC0C
C600
0000
000E
ENDCHAR
STARTCHAR U+039B
ENCODING 923
SWIDTH 508 0
DWIDTH 9 0
BBX 9 17 0 -2
BITMAP
0000
0000
0000
0000
0001
1801
1803
3403
3406
6606
6606
660C
C30C
C30C
C300
0000
000E
ENDCHAR
STARTCHAR U+039C
ENCODING 924
SWIDTH 508 0
DWIDTH 9 0
BBX 9 17 0 -2
BITMAP
0000
0000
0000
0000
000C
C60C
C60E
EE0E
EE0D
DA0D
DA0C
C60C
C60C
C60C
C600
0000
000E
ENDCHAR
STARTCHAR U+039D
ENCODING 925
SWIDTH 508 0
DWIDTH 9 0
BBX 9 17 0 -2
BITMAP
0000
0000
0000
0000
000C
C60E
E60E
E60D
D60D
D60D
DA0D
DA0C
CE0C
CE0C
C600
0000
000E
ENDCHAR
STARTCHAR U+039E
ENCODING 926
SWIDTH 508 0
DWIDTH 9 0
BBX 9 17 0 -2
BITMAP
0000
0000
0000
0000
000F
FE00
0000
0000
0007
7C00
0000
0000
0000
000F
FE00
0000
000E
ENDCHAR
STARTCHAR U+039F
ENCODING 927
SWIDTH 508 0
DWIDTH 9 0
BBX 9 17 0 -2
BITMAP
0000
0000
0000
0000
0007
7C0C
C60C
C60C
C60C
C60C
C60C
C60C
C60C
C607
7C00
0000
000E
ENDCHAR
STARTCHAR U+03A0
ENCODING 928
SWIDTH 508 0
DWIDTH 9 0
BBX 9 17 0 -2
BITMAP
0000
0000
0000
0000
000F
FF06
6606
6606
6606
6606
6606
6606
6606
6606
6600
0000
000E
ENDCHAR
STARTCHAR U+03A1
ENCODING 929
SWIDTH 508 0
DWIDTH 9 0
BBX 9 17 0 -2
BITMAP
0000
0000
0000
0000
000F
FC0C
C60C
C60C
C60F
FC0C
C00C
C00C
C00C
C00C
C000
0000
000E
ENDCHAR
STARTCHAR U+03A3
ENCODING 931
SWIDTH 508 0
DWIDTH 9 0
BBX 9 17 0 -2
BITMAP
0000
0000
0000
0000
000F
FE0C
C006
6003
3001
1801
1803
3006
600C
C00F
FE00
0000
000E
ENDCHAR
STARTCHAR U+03A4
ENCODING 932
SWIDTH 508 0
DWIDTH 9 0
BBX 9 17 0 -2
BITMAP
0000
0000
0000
0000
000F
FF01
1801
1801
1801
1801
1801
1801
1801
1801
1800
0000
000E
ENDCHAR
STARTCHAR U+03A5
ENCODING 933
SWIDTH 508 0
DWIDTH 9 0
BBX 9 17 0 -2
BITMAP
0000
0000
0000
0000
000C
C30C
C306
6606
6603
3401
1801
1801
1801
1801
1800
0000
000E
ENDCHAR
STARTCHAR U+03A6
ENCODING 934
SWIDTH 508 0
DWIDTH 9 0
BBX 9 17 0 -2
BITMAP
0000
0000
0000
0000
000F
FF01
1807
7E0D
DB0D
DB0D
DB0D
DB07
7E01
180F
FF00
0000
000E
ENDCHAR
STARTCHAR U+03A7
ENCODING 935
SWIDTH 508 0
DWIDTH 9 0
BBX 9 17 0 -2
BITMAP
0000
0000
0000
0000
000C
C60C
C606
6C06
6C03
3803
3806
6C06
6C0C
C60C
C600
0000
000E
ENDCHAR
STARTCHAR U+03A8
ENCODING 936
SWIDTH 508 0
DWIDTH 9 0
BBX 9 17 0 -2
BITMAP
0000
0000
0000
0000
000D
DB0D
DB0D
DB0D
DB0D
DB07
7E01
1801
1801
1801
1800
0000
000E
ENDCHAR
STARTCHAR U+03A9
ENCODING 937
SWIDTH 508 0
DWIDTH 9 0
BBX 9 17 0 -2
BITMAP
0000
0000
0000
0000
0007
7E0C
C30C
C30C
C30C
C30C
C306
6603
3403
340F
F700
0000
000E
ENDCHAR
STARTCHAR U+03AA
ENCODING 938
SWIDTH 508 0
DWIDTH 9 0
BBX 9 17 0 -2
BITMAP
0006
6C06
6C00
0000
0007
7E01
1801
1801
1801
1801
1801
1801
1801
1807
7E00
0000
000E
ENDCHAR
STARTCHAR U+03AB
ENCODING 939
SWIDTH 508 0
DWIDTH 9 0
BBX 9 17 0 -2
BITMAP
0006
6C06
6C00
0000
000C
C30C
C306
6606
6603
3401
1801
1801
1801
1801
1800
0000
000E
ENDCHAR
STARTCHAR U+03AC
ENCODING 940
SWIDTH 508 0
DWIDTH 9 0
BBX 9 17 0 -2
BITMAP
0000
0003
3003
3003
3000
0000
0007
760D
DA0C
CC0C
CC0C
CC0C
CC0D
DA07
7600
0000
000E
ENDCHAR
STARTCHAR U+03AD
ENCODING 941
SWIDTH 508 0
DWIDTH 9 0
BBX 9 17 0 -2
BITMAP
0000
0003
3003
3003
3000
0000
0007
7E0C
C00C
C007
7C0C
C00C
C00C
C007
7E00
0000
000E
ENDCHAR
STARTCHAR U+03AE
ENCODING 942
SWIDTH 508 0
DWIDTH 9 0
BBX 9 17 0 -2
BITMAP
0000
0003
3003
3003
3000
0000
000D
DC0E
E60C
C60C
C60C
C60C
C60C
C60C
C600
0600
060E
ENDCHAR
STARTCHAR U+03AF
ENCODING 943
SWIDTH 508 0
DWIDTH 9 0
BBX 9 17 0 -2
BITMAP
0000
0003
3003
3003
3000
0000
0003
3003
3003
3003
3003
3003
3003
3001
1C00
0000
000E
ENDCHAR
STARTCHAR U+03B0
ENCODING 944
SWIDTH 508 0
DWIDTH 9 0
BBX 9 17 0 -2
BITMAP
0003
3003
3003
300C
CC0C
CC00
000C
C60C
C60C
C60C
C60C
C60C
C60C
C607
7C00
0000
000E
ENDCHAR
STARTCHAR U+03B1
ENCODING 945
SWIDTH 508 0
DWIDTH 9 0
BBX 9 17 0 -2
BITMAP
0000
0000
0000
0000
0000
0000
0007
760D
DA0C
CC0C
CC0C
CC0C
CC0D
DA07
7600
0000
000E
ENDCHAR
STARTCHAR U+03B2
ENCODING 946
SWIDTH 508 0
DWIDTH 9 0
BBX 9 17 0 -2
BITMAP
0000
0000
0000
0000
0007
780C
CC0C
CC0C
CC0F
FC0C
C60C
C60C
C60E
E60D
DC0C
C00C
C00E
ENDCHAR
STARTCHAR U+03B3
ENCODING 947
SWIDTH 508 0
DWIDTH 9 0
BBX 9 17 0 -2
BITMAP
0000
0000
0000
0000
0000
0000
0007
730D
DB01
1A00
0C01
1801
1803
3003
3000
0000
000E
ENDCHAR
STARTCHAR U+03B4
ENCODING 948
SWIDTH 508 0
DWIDTH 9 0
BBX 9 17 0 -2
BITMAP
0000
0000
0000
0000
0003
3C06
6006
6006
6003
3806
6C0C
C60C
C60C
C607
7C00
0000
000E
ENDCHAR
STARTCHAR U+03B5
ENCODING 949
SWIDTH 508 0
DWIDTH 9 0
BBX 9 17 0 -2
BITMAP
0000
0000
0000
0000
0000
0000
0007
7C0C
C60C
C007
7C0C
C00C
C00C
C607
7C00
0000
000E
ENDCHAR
STARTCHAR U+03B6
ENCODING 950
SWIDTH 508 0
DWIDTH 9 0
BBX 9 17 0 -2
BITMAP
0000
0000
0000
0000
0006
6006
6003
3C01
1803
3006
6006
6006
6006
6003
3C00
0603
3C0E
ENDCHAR
STARTCHAR U+03B7
ENCODING 951
SWIDTH 508 0
DWIDTH 9 0
BBX 9 17 0 -2
BITMAP
0000
0000
0000
0000
0000
0000
000D
DC0E
E60C
C60C
C60C
C60C
C60C
C60C
C600
0600
060E
ENDCHAR
STARTCHAR U+03B8
ENCODING 952
SWIDTH 508 0
DWIDTH 9 0
BBX 9 17 0 -2
BITMAP
0000
0000
0000
0000
0003
3806
6C06
6C0C
C60F
FE0C
C60C
C606
6C06
6C03
3800
0000
000E
ENDCHAR
STARTCHAR U+03B9
ENCODING 953
SWIDTH 508 0
DWIDTH 9 0
BBX 9 17 0 -2
BITMAP
0000
0000
0000
0000
0000
0000
0003
3003
3003
3003
3003
3003
3003
3001
1C00
0000
000E
ENDCHAR
STARTCHAR U+03BA
ENCODING 954
SWIDTH 508 0
DWIDTH 9 0
BBX 9 17 0 -2
BITMAP
0000
0000
0000
0000
0000
0000
0006
6606
6C06
6807
7007
7006
6806
6C06
6600
0000
000E
ENDCHAR
STARTCHAR U+03BB
ENCODING 955
SWIDTH 508 0
DWIDTH 9 0
BBX 9 17 0 -2
BITMAP
0000
0000
0000
0000
0006
6006
6003
3003
3001
1803
3806
6C06
6C0C
C60C
C600
0000
000E
ENDCHAR
STARTCHAR U+03BC
ENCODING 956
SWIDTH 508 0
DWIDTH 9 0
BBX 9 17 0 -2
BITMAP
0000
0000
0000
0000
0000
0000
000C
C60C
C60C
C60C
C60E
EE0E
EE0D
DA0C
C60C
C00C
C00E
ENDCHAR
STARTCHAR U+03BD
ENCODING 957
SWIDTH 508 0
DWIDTH 9 0
BBX 9 17 0 -2
BITMAP
0000
0000
0000
0000
0000
0000
000C
C60C
C60C
C60C
CC0C
CC0D
D80D
D00E
E000
0000
000E
ENDCHAR
STARTCHAR U+03BE
ENCODING 958
SWIDTH 508 0
DWIDTH 9 0
BBX 9 17 0 -2
BITMAP
0000
0000
0000
0000
000C
C00C
C007
7C0C
C00C
C007
7C0C
C00C
C007
7C00
0600
0607
7C0E
ENDCHAR
STARTCHAR U+03BF
ENCODING 959
SWIDTH 508 0
DWIDTH 9 0
BBX 9 17 0 -2
BITMAP
0000
0000
0000
0000
0000
0000
0007
7C0C
C60C
C60C
C60C
C60C
C60C
C607
7C00
0000
000E
ENDCHAR
STARTCHAR U+03C0
ENCODING 960
SWIDTH 508 0
DWIDTH 9 0
BBX 9 17 0 -2
BITMAP
0000
0000
0000
0000
0000
0000
000F
FE06
6C06
6C06
6C06
6C06
6C06
6C06
6C00
0000
000E
ENDCHAR
STARTCHAR U+03C1
ENCODING 961
SWIDTH 508 0
DWIDTH 9 0
BBX 9 17 0 -2
BITMAP
0000
0000
0000
0000
0000
0000
0007
7C0C
C60C
C60C
C60C
C60C
C60E
E60D
DC0C
C00C
C00E
ENDCHAR
STARTCHAR U+03C2
ENCODING 962
SWIDTH 508 0
DWIDTH 9 0
BBX 9 17 0 -2
BITMAP
0000
0000
0000
0000
0000
0000
0003
3E06
600C
C00C
C00C
C006
6003
3C00
0600
0603
3C0E
ENDCHAR
STARTCHAR U+03C3
ENCODING 963
SWIDTH 508 0
DWIDTH 9 0
BBX 9 17 0 -2
BITMAP
0000
0000
0000
0000
0000
0000
0007
7F0D
D80C
CC0C
CC0C
CC0C
CC0C
CC07
7800
0000
000E
ENDCHAR
STARTCHAR U+03C4
ENCODING 964
SWIDTH 508 0
DWIDTH 9 0
BBX 9 17 0 -2
BITMAP
0000
0000
0000
0000
0000
0000
000F
FE03
3003
3003
3003
3003
3003
3001
1C00
0000
000E
ENDCHAR
STARTCHAR U+03C5
ENCODING 965
SWIDTH 508 0
DWIDTH 9 0
BBX 9 17 0 -2
BITMAP
0000
0000
0000
0000
0000
0000
000C
C60C
C60C
C60C
C60C
C60C
C60C
C607
7C00
0000
000E
ENDCHAR
STARTCHAR U+03C6
ENCODING 966
SWIDTH 508 0
DWIDTH 9 0
BBX 9 17 0 -2
BITMAP
0000
0000
0000
0000
0000
0000
0007
7E0D
DB0D
DB0D
DB0D
DB0D
DB0D
DB07
7E01
1801
180E
ENDCHAR
STARTCHAR U+03C7
ENCODING 967
SWIDTH 508 0
DWIDTH 9 0
BBX 9 17 0 -2
BITMAP
0000
0000
0000
0000
0000
0000
000C
C60C
C606
6C06
6C03
3803
3806
6C06
6C0C
C60C
C60E
ENDCHAR
STARTCHAR U+03C8
ENCODING 968
SWIDTH 508 0
DWIDTH 9 0
BBX 9 17 0 -2
BITMAP
0000
0000
0000
0000
0000
0000
0000
0000
000D
DB0D
DB0D
DB0D
DB0D
DB07
7E01
1801
180E
ENDCHAR
STARTCHAR U+03C9
ENCODING 969
SWIDTH 508 0
DWIDTH 9 0
BBX 9 17 0 -2
BITMAP
0000
0000
0000
0000
0000
0000
0006
660C
C30C
C30D
DB0D
DB0D
DB0D
DB07
7600
0000
000E
ENDCHAR
STARTCHAR U+03CA
ENCODING 970
SWIDTH 508 0
DWIDTH 9 0
BBX 9 17 0 -2
BITMAP
0000
0000
0006
6C06
6C00
0000
0003
3003
3003
3003
3003
3003
3003
3001
1C00
0000
000E
ENDCHAR
STARTCHAR U+03CB
ENCODING 971
SWIDTH 508 0
DWIDTH 9 0
BBX 9 17 0 -2
BITMAP
0000
0000
0006
6C06
6C00
0000
000C
C60C
C60C
C60C
C60C
C60C
C60C
C607
7C00
0000
000E
ENDCHAR
STARTCHAR U+03CC
ENCODING 972
SWIDTH 508 0
DWIDTH 9 0
BBX 9 17 0 -2
BITMAP
0000
0003
3003
3003
3000
0000
0007
7C0C
C60C
C60C
C60C
C60C
C60C
C607
7C00
0000
000E
ENDCHAR
STARTCHAR U+03CD
ENCODING 973
SWIDTH 508 0
DWIDTH 9 0
BBX 9 17 0 -2
BITMAP
0000
0003
3003
3003
3000
0000
000C
C60C
C60C
C60C
C60C
C60C
C60C
C607
7C00
0000
000E
ENDCHAR
STARTCHAR U+03CE
ENCODING 974
SWIDTH 508 0
DWIDTH 9 0
BBX 9 17 0 -2
BITMAP
0000
0001
1801
1801
1800
0000
0006
660C
C30C
C30D
DB0D
DB0D
DB0D
DB07
7600
0000
000E
ENDCHAR
STARTCHAR U+03D0
ENCODING 976
SWIDTH 508 0
DWIDTH 9 0
BBX 9 17 0 -2
BITMAP
0000
0000
0000
0000
0003
3806
6C0C
CC0D
D80D
DC0E
E60C
C60C
C607
7C00
0000
0000
000E
ENDCHAR
STARTCHAR U+03D1
ENCODING 977
SWIDTH 508 0
DWIDTH 9 0
BBX 9 17 0 -2
BITMAP
0000
0000
0000
0000
0007
780C
CC0C
CC07
7E00
0C0C
CC0C
CC0C
CC07
7800
0000
0000
000E
ENDCHAR
STARTCHAR U+03D2
ENCODING 978
SWIDTH 508 0
DWIDTH 9 0
BBX 9 17 0 -2
BITMAP
0000
0000
0000
0000
000C
CC0A
AA06
6806
6803
3003
3003
3003
3003
3000
0000
0000
000E
ENDCHAR
STARTCHAR U+03D3
ENCODING 979
SWIDTH 508 0
DWIDTH 9 0
BBX 9 17 0 -2
BITMAP
0000
0000
0000
0000
000A
AC0A
AA06
6806
6803
3003
3003
3003
3003
3000
0000
0000
000E
ENDCHAR
STARTCHAR U+03D4
ENCODING 980
SWIDTH 508 0
DWIDTH 9 0
BBX 9 17 0 -2
BITMAP
0000
0000
0000
000C
CC0C
CC00
000C
CC0A
AA06
6803
3003
3003
3003
3000
0000
0000
000E
ENDCHAR
STARTCHAR U+03D5
ENCODING 981
SWIDTH 508 0
DWIDTH 9 0
BBX 9 17 0 -2
BITMAP
0000
0000
0000
0000
0000
0003
3003
300F
FC0B
B60B
B60B
B60B
B60F
FC03
3003
3000
000E
ENDCHAR
STARTCHAR U+03D6
ENCODING 982
SWIDTH 508 0
DWIDTH 9 0
BBX 9 17 0 -2
BITMAP
0000
0000
0000
0000
0000
0000
0000
000F
FE08
860B
B60B
B60B
B60E
EC00
0000
0000
000E
ENDCHAR
STARTCHAR U+03D7
ENCODING 983
SWIDTH 508 0
DWIDTH 9 0
BBX 9 17 0 -2
BITMAP
0000
0000
0000
0000
0000
0000
0000
0006
660D
D603
3403
3C03
3406
6E06
6600
0601
1C0E
ENDCHAR
STARTCHAR U+03DA
ENCODING 986
SWIDTH 508 0
DWIDTH 9 0
BBX 9 17 0 -2
BITMAP
0000
0000
0000
0000
0007
7C0C
C60C
C00C
C00C
C007
7001
1C00
0600
0607
7C00
0000
000E
ENDCHAR
STARTCHAR U+03DB
ENCODING 987
SWIDTH 508 0
DWIDTH 9 0
BBX 9 17 0 -2
BITMAP
0000
0000
0000
0000
0000
0000
0007
7E0C
C00C
C00C
C007
7C00
0600
0601
1C00
0000
000E
ENDCHAR
STARTCHAR U+03DC
ENCODING 988
SWIDTH 508 0
DWIDTH 9 0
BBX 9 17 0 -2
BITMAP
0000
0000
0000
0000
000F
FE0C
C00C
C00C
C00F
F80C
C00C
C00C
C00C
C000
0000
0000
000E
ENDCHAR
STARTCHAR U+03DD
ENCODING 989
SWIDTH 508 0
DWIDTH 9 0
BBX 9 17 0 -2
BITMAP
0000
0000
0000
0000
0000
0000
0007
7E06
6006
6007
7C06
6006
6006
6006
6006
6006
600E
ENDCHAR
STARTCHAR U+03DE
ENCODING 990
SWIDTH 508 0
DWIDTH 9 0
BBX 9 17 0 -2
BITMAP
0000
0000
0000
0000
000E
E006
6006
6006
6006
6E07
7C0E
EC01
1801
1801
1E00
0000
000E
ENDCHAR
STARTCHAR U+03DF
ENCODING 991
SWIDTH 508 0
DWIDTH 9 0
BBX 9 17 0 -2
BITMAP
0000
0000
0000
0000
0000
0003
3803
3007
7006
600F
FF00
0600
0E00
0C01
1C00
0000
000E
ENDCHAR
STARTCHAR U+03E0
ENCODING 992
SWIDTH 508 0
DWIDTH 9 0
BBX 9 17 0 -2
BITMAP
0000
0000
0000
0000
000F
F80A
AC06
6606
6E01
1A03
3603
3603
3600
0600
0C00
0000
000E
ENDCHAR
STARTCHAR U+03E1
ENCODING 993
SWIDTH 508 0
DWIDTH 9 0
BBX 9 17 0 -2
BITMAP
0000
0000
0000
0000
0007
7001
1800
0C01
1C03
3600
0E01
1A00
0600
0600
0600
0000
000E
ENDCHAR
STARTCHAR U+03E2
ENCODING 994
SWIDTH 508 0
DWIDTH 9 0
BBX 9 17 0 -2
BITMAP
0000
0000
0000
0000
0000
000B
B60B
B60B
B60B
B60B
B60E
EE00
060F
FC00
0000
0000
000E
ENDCHAR
STARTCHAR U+03E3
ENCODING 995
SWIDTH 508 0
DWIDTH 9 0
BBX 9 17 0 -2
BITMAP
0000
0000
0000
0000
0000
0000
0000
000B
B60B
B60B
B60B
B60B
B60E
EE00
060F
FC00
000E
ENDCHAR
STARTCHAR U+03E4
ENCODING 996
SWIDTH 508 0
DWIDTH 9 0
BBX 9 17 0 -2
BITMAP
0000
0000
0000
0000
0007
760C
C60C
C60C
C607
7E00
0600
0600
0600
0600
0000
0000
000E
ENDCHAR
STARTCHAR U+03E5
ENCODING 997
SWIDTH 508 0
DWIDTH 9 0
BBX 9 17 0 -2
BITMAP
0000
0000
0000
0000
0006
680D
D80D
D80D
D807
7801
1801
1801
1801
1800
0000
0000
000E
ENDCHAR
STARTCHAR U+03E6
ENCODING 998
SWIDTH 508 0
DWIDTH 9 0
BBX 9 17 0 -2
BITMAP
0000
0000
0000
0000
000F
F006
6006
6007
7C06
6606
6606
6606
660F
F600
0601
1C00
000E
ENDCHAR
STARTCHAR U+03E7
ENCODING 999
SWIDTH 508 0
DWIDTH 9 0
BBX 9 17 0 -2
BITMAP
0000
0000
0000
0000
0000
0006
6003
3007
7C0D
D606
6600
060C
C607
7C00
0000
0000
000E
ENDCHAR
STARTCHAR U+03E8
ENCODING 1000
SWIDTH 508 0
DWIDTH 9 0
BBX 9 17 0 -2
BITMAP
0000
0000
0000
0000
0007
7C0C
C60C
C600
0C03
3806
600C
C60C
C607
7C00
0000
0000
000E
ENDCHAR
STARTCHAR U+03E9
ENCODING 1001
SWIDTH 508 0
DWIDTH 9 0
BBX 9 17 0 -2
BITMAP
0000
0000
0000
0000
0000
0007
7C0C
C60C
C606
6C03
3806
600C
C007
7E00
0000
0000
000E
ENDCHAR
STARTCHAR U+03EA
ENCODING 1002
SWIDTH 508 0
DWIDTH 9 0
BBX 9 17 0 -2
BITMAP
0000
0000
0000
0000
000E
EC03
3003
3006
6806
680C
CC0C
CC08
860F
FE00
0000
0000
000E
ENDCHAR
STARTCHAR U+03EB
ENCODING 1003
SWIDTH 508 0
DWIDTH 9 0
BBX 9 17 0 -2
BITMAP
0000
0000
0000
0000
0000
0000
0000
000E
EC03
3006
6806
680C
CC0F
FC00
0000
0000
000E
ENDCHAR
STARTCHAR U+03EC
ENCODING 1004
SWIDTH 508 0
DWIDTH 9 0
BBX 9 17 0 -2
BITMAP
0000
0000
0000
0000
0007
7C0C
C00F
FC0C
C60C
C60C
C60C
C60C
C607
7C00
0000
0000
000E
ENDCHAR
STARTCHAR U+03ED
ENCODING 1005
SWIDTH 508 0
DWIDTH 9 0
BBX 9 17 0 -2
BITMAP
0000
0000
0000
0000
0000
0000
0007
7C0C
C00D
DC0C
C60C
C60C
C607
7C00
0000
0000
000E
ENDCHAR
STARTCHAR U+03EE
ENCODING 1006
SWIDTH 508 0
DWIDTH 9 0
BBX 9 17 0 -2
BITMAP
0000
0000
0000
0000
0007
7803
300F
FC0D
D403
3003
3003
3003
3003
3000
0000
0000
000E
ENDCHAR
STARTCHAR U+03EF
ENCODING 1007
SWIDTH 508 0
DWIDTH 9 0
BBX 9 17 0 -2
BITMAP
0000
0000
0000
0000
0000
0000
0003
3003
340F
FC0D
D003
3003
3003
3000
0000
0000
000E
ENDCHAR
STARTCHAR U+03F0
ENCODING 1008
SWIDTH 508 0
DWIDTH 9 0
BBX 9 17 0 -2
BITMAP
0000
0000
0000
0000
0000
0000
0000
000C
C606
6C06
6807
7806
6C0C
C600
0000
0000
000E
ENDCHAR
STARTCHAR U+03F1
ENCODING 1009
SWIDTH 508 0
DWIDTH 9 0
BBX 9 17 0 -2
BITMAP
0000
0000
0000
0000
0000
0000
0000
0007
7C0C
C60C
C60C
C60E
E60D
DC0C
C007
7C00
000E
ENDCHAR
STARTCHAR U+03F2
ENCODING 1010
SWIDTH 508 0
DWIDTH 9 0
BBX 9 17 0 -2
BITMAP
0000
0000
0000
0000
0000
0000
0000
0007
7C0C
C60C
C00C
C00C
C607
7C00
0000
0000
000E
ENDCHAR
STARTCHAR U+03F3
ENCODING 1011
SWIDTH 508 0
DWIDTH 9 0
BBX 9 17 0 -2
BITMAP
0000
0000
0000
0000
0000
0000
0C00
0001
1C00
0C00
0C00
0C00
0C0C
CC0C
CC07
7800
000E
ENDCHAR
STARTCHAR U+03F4
ENCODING 1012
SWIDTH 508 0
DWIDTH 9 0
BBX 9 17 0 -2
BITMAP
0000
0000
0000
0000
0007
7C0C
C60C
C60C
C60F
FE0C
C60C
C60C
C607
7C00
0000
0000
000E
ENDCHAR
STARTCHAR U+03F5
ENCODING 1013
SWIDTH 508 0
DWIDTH 9 0
BBX 9 17 0 -2
BITMAP
0000
0000
0000
0000
0000
0000
0000
0007
7C0C
C00F
F80C
C00C
C007
7C00
0000
0000
000E
ENDCHAR
STARTCHAR U+0400
ENCODING 1024
SWIDTH 508 0
DWIDTH 9 0
BBX 9 17 0 -2
BITMAP
0000
0000
0000
0003
3001
1800
000F
FE0C
C00C
C00F
FC0C
C00C
C00F
FE00
0000
0000
000E
ENDCHAR
STARTCHAR U+0401
ENCODING 1025
SWIDTH 508 0
DWIDTH 9 0
BBX 9 17 0 -2
BITMAP
0006
6C06
6C00
0000
000F
FE0C
C00C
C00C
C00F
FC0C
C00C
C00C
C00C
C00F
FE00
0000
000E
ENDCHAR
STARTCHAR U+0402
ENCODING 1026
SWIDTH 508 0
DWIDTH 9 0
BBX 9 17 0 -2
BITMAP
0000
0000
0000
0000
000F
FE03
3003
3003
3003
3E03
3303
3303
3303
3303
3E00
0000
000E
ENDCHAR
STARTCHAR U+0403
ENCODING 1027
SWIDTH 508 0
DWIDTH 9 0
BBX 9 17 0 -2
BITMAP
0001
1C07
7000
0000
000F
FE0C
C00C
C00C
C00C
C00C
C00C
C00C
C00C
C00C
C000
0000
000E
ENDCHAR
STARTCHAR U+0404
ENCODING 1028
SWIDTH 508 0
DWIDTH 9 0
BBX 9 17 0 -2
BITMAP
0000
0000
0000
0000
0003
3C06
660C
C00C
C00F
FC0C
C00C
C00C
C006
6603
3C00
0000
000E
ENDCHAR
STARTCHAR U+0405
ENCODING 1029
SWIDTH 508 0
DWIDTH 9 0
BBX 9 17 0 -2
BITMAP
0000
0000
0000
0000
0007
7C0C
C60C
C60C
C007
7001
1C00
060C
C60C
C607
7C00
0000
000E
ENDCHAR
STARTCHAR U+0406
ENCODING 1030
SWIDTH 508 0
DWIDTH 9 0
BBX 9 17 0 -2
BITMAP
0000
0000
0000
0000
0007
7E01
1801
1801
1801
1801
1801
1801
1801
1807
7E00
0000
000E
ENDCHAR
STARTCHAR U+0407
ENCODING 1031
SWIDTH 508 0
DWIDTH 9 0
BBX 9 17 0 -2
BITMAP
0006
6C06
6C00
0000
0007
7E01
1801
1801
1801
1801
1801
1801
1801
1807
7E00
0000
000E
ENDCHAR
STARTCHAR U+0408
ENCODING 1032
SWIDTH 508 0
DWIDTH 9 0
BBX 9 17 0 -2
BITMAP
0000
0000
0000
0000
0001
1E00
0C00
0C00
0C00
0C00
0C00
0C0C
CC0C
CC07
7800
0000
000E
ENDCHAR
STARTCHAR U+0409
ENCODING 1033
SWIDTH 508 0
DWIDTH 9 0
BBX 9 17 0 -2
BITMAP
0000
0000
0000
0000
000F
F80D
D80D
D80D
D80D
DE0D
DB0D
DB0D
DB0D
DB09
9E00
0000
000E
ENDCHAR
STARTCHAR U+040A
ENCODING 1034
SWIDTH 508 0
DWIDTH 9 0
BBX 9 17 0 -2
BITMAP
0000
0000
0000
0000
000D
D80D
D80D
D80D
D80F
FE0D
DB0D
DB0D
DB0D
DB0D
DE00
0000
000E
ENDCHAR
STARTCHAR U+040B
ENCODING 1035
SWIDTH 508 0
DWIDTH 9 0
BBX 9 17 0 -2
BITMAP
0000
0000
0000
0000
000F
FE03
3003
3003
3003
3E03
3303
3303
3303
3303
3300
0000
000E
ENDCHAR
STARTCHAR U+040C
ENCODING 1036
SWIDTH 508 0
DWIDTH 9 0
BBX 9 17 0 -2
BITMAP
0000
1C00
7000
0000
0000
C600
CE00
C800
D000
F000
F800
CC00
C600
C600
C600
0000
0000
ENDCHAR
STARTCHAR U+040D
ENCODING 1037
SWIDTH 508 0
DWIDTH 9 0
BBX 9 17 0 -2
BITMAP
0000
0000
0000
0000
3000
1800
C600
C600
C600
CE00
DE00
F600
E600
C600
0000
0000
0000
ENDCHAR
STARTCHAR U+040E
ENCODING 1038
SWIDTH 508 0
DWIDTH 9 0
BBX 9 17 0 -2
BITMAP
0000
0000
C600
7C00
0000
C300
C300
6600
6600
3400
3C00
1800
1800
3000
7000
0000
0000
ENDCHAR
STARTCHAR U+040F
ENCODING 1039
SWIDTH 508 0
DWIDTH 9 0
BBX 9 17 0 -2
BITMAP
0000
0000
0000
0000
000C
C30C
C30C
C30C
C30C
C30C
C30F
FF01
1801
1801
1800
0000
000E
ENDCHAR
STARTCHAR U+0410
ENCODING 1040
SWIDTH 508 0
DWIDTH 9 0
BBX 9 17 0 -2
BITMAP
0000
0000
0000
0000
0000
1C00
2600
4600
C600
C600
FE00
C600
C600
C600
C600
0000
0000
ENDCHAR
STARTCHAR U+0411
ENCODING 1041
SWIDTH 508 0
DWIDTH 9 0
BBX 9 17 0 -2
BITMAP
0000
0000
0000
0000
0000
7C00
C000
C000
C000
FC00
C600
C600
C600
C600
FC00
0000
0000
ENDCHAR
STARTCHAR U+0412
ENCODING 1042
SWIDTH 508 0
DWIDTH 9 0
BBX 9 17 0 -2
BITMAP
0000
0000
0000
0000
0000
7C00
C600
C600
C600
FC00
C600
C600
C600
C600
FC00
0000
0000
ENDCHAR
STARTCHAR U+0413
ENCODING 1043
SWIDTH 508 0
DWIDTH 9 0
BBX 9 17 0 -2
BITMAP
0000
0000
0000
0000
000F
FE0C
C00C
C00C
C00C
C00C
C00C
C00C
C00C
C00C
C000
0000
000E
ENDCHAR
STARTCHAR U+0414
ENCODING 1044
SWIDTH 508 0
DWIDTH 9 0
BBX 9 17 0 -2
BITMAP
0000
0000
0000
0000
0003
3E06
6606
6606
6606
6606
6606
6606
6606
660F
FF0C
C30C
C30E
ENDCHAR
STARTCHAR U+0415
ENCODING 1045
SWIDTH 508 0
DWIDTH 9 0
BBX 9 17 0 -2
BITMAP
0000
0000
0000
0000
0000
7E00
C000
C000
C000
FC00
C000
C000
C000
C000
FE00
0000
0000
ENDCHAR
STARTCHAR U+0416
ENCODING 1046
SWIDTH 508 0
DWIDTH 9 0
BBX 9 17 0 -2
BITMAP
0000
0000
0000
0000
0000
DB00
DB00
5A00
7E00
3C00
3C00
7E00
5A00
DB00
DB00
0000
0000
ENDCHAR
STARTCHAR U+0417
ENCODING 1047
SWIDTH 508 0
DWIDTH 9 0
BBX 9 17 0 -2
BITMAP
0000
0000
0000
0000
0000
7C00
C600
0600
0600
3C00
0600
0600
0600
C600
7C00
0000
0000
ENDCHAR
STARTCHAR U+0418
ENCODING 1048
SWIDTH 508 0
DWIDTH 9 0
BBX 9 17 0 -2
BITMAP
0000
0000
0000
0000
0000
C600
C600
C600
C600
C600
CE00
DE00
F600
E600
C600
0000
0000
ENDCHAR
STARTCHAR U+0419
ENCODING 1049
SWIDTH 508 0
DWIDTH 9 0
BBX 9 17 0 -2
BITMAP
0000
0000
C600
7C00
0000
C600
C600
C600
C600
C600
CE00
DE00
F600
E600
C600
0000
0000
ENDCHAR
STARTCHAR U+041A
ENCODING 1050
SWIDTH 508 0
DWIDTH 9 0
BBX 9 17 0 -2
BITMAP
0000
0000
0000
0000
0000
C600
CE00
C800
D000
F000
F800
CC00
C600
C600
C600
0000
0000
ENDCHAR
STARTCHAR U+041B
ENCODING 1051
SWIDTH 508 0
DWIDTH 9 0
BBX 9 17 0 -2
BITMAP
0000
0000
0000
0000
0000
3E00
6600
6600
6600
6600
6600
6600
6600
6600
C600
0000
0000
ENDCHAR
STARTCHAR U+041C
ENCODING 1052
SWIDTH 508 0
DWIDTH 9 0
BBX 9 17 0 -2
BITMAP
0000
0000
0000
0000
0000
C300
C300
C300
E700
E700
DB00
DB00
C300
C300
C300
0000
0000
ENDCHAR
STARTCHAR U+041D
ENCODING 1053
SWIDTH 508 0
DWIDTH 9 0
BBX 9 17 0 -2
BITMAP
0000
0000
0000
0000
0000
C600
C600
C600
C600
C600
FE00
C600
C600
C600
C600
0000
0000
ENDCHAR
STARTCHAR U+041E
ENCODING 1054
SWIDTH 508 0
DWIDTH 9 0
BBX 9 17 0 -2
BITMAP
0000
0000
0000
0000
0000
3C00
6600
C600
C600
C600
C600
C600
C600
C600
7C00
0000
0000
ENDCHAR
STARTCHAR U+041F
ENCODING 1055
SWIDTH 508 0
DWIDTH 9 0
BBX 9 17 0 -2
BITMAP
0000
0000
0000
0000
000F
FE0C
C60C
C60C
C60C
C60C
C60C
C60C
C60C
C60C
C600
0000
000E
ENDCHAR
STARTCHAR U+0420
ENCODING 1056
SWIDTH 508 0
DWIDTH 9 0
BBX 9 17 0 -2
BITMAP
0000
0000
0000
0000
0000
7C00
C600
C600
C600
C600
FC00
C000
C000
C000
C000
0000
0000
ENDCHAR
STARTCHAR U+0421
ENCODING 1057
SWIDTH 508 0
DWIDTH 9 0
BBX 9 17 0 -2
BITMAP
0000
0000
0000
0000
0000
3C00
6600
C600
C000
C000
C000
C000
C600
C600
7C00
0000
0000
ENDCHAR
STARTCHAR U+0422
ENCODING 1058
SWIDTH 508 0
DWIDTH 9 0
BBX 9 17 0 -2
BITMAP
0000
0000
0000
0000
000F
FF01
1801
1801
1801
1801
1801
1801
1801
1801
1800
0000
000E
ENDCHAR
STARTCHAR U+0423
ENCODING 1059
SWIDTH 508 0
DWIDTH 9 0
BBX 9 17 0 -2
BITMAP
0000
0000
0000
0000
000C
C30C
C306
6606
6603
3403
3401
1801
1803
3007
7000
0000
000E
ENDCHAR
STARTCHAR U+0424
ENCODING 1060
SWIDTH 508 0
DWIDTH 9 0
BBX 9 17 0 -2
BITMAP
0000
0000
0000
0001
1801
1807
7E0D
DB0D
DB0D
DB0D
DB0D
DB07
7E01
1801
1800
0000
000E
ENDCHAR
STARTCHAR U+0425
ENCODING 1061
SWIDTH 508 0
DWIDTH 9 0
BBX 9 17 0 -2
BITMAP
0000
0000
0000
0000
0000
C600
C600
C600
6C00
3800
3800
6C00
C600
C600
C600
0000
0000
ENDCHAR
STARTCHAR U+0426
ENCODING 1062
SWIDTH 508 0
DWIDTH 9 0
BBX 9 17 0 -2
BITMAP
0000
0000
0000
0000
0000
C600
C600
C600
C600
C600
C600
C600
C600
C600
FF00
0300
0300
ENDCHAR
STARTCHAR U+0427
ENCODING 1063
SWIDTH 508 0
DWIDTH 9 0
BBX 9 17 0 -2
BITMAP
0000
0000
0000
0000
0000
C600
C600
C600
C600
C600
C600
7E00
0600
0600
0600
0000
0000
ENDCHAR
STARTCHAR U+0428
ENCODING 1064
SWIDTH 508 0
DWIDTH 9 0
BBX 9 17 0 -2
BITMAP
0000
0000
0000
0000
000D
DB0D
DB0D
DB0D
DB0D
DB0D
DB0D
DB0D
DB0D
DB0F
FF00
0000
000E
ENDCHAR
STARTCHAR U+0429
ENCODING 1065
SWIDTH 508 0
DWIDTH 9 0
BBX 9 17 0 -2
BITMAP
0000
0000
0000
0000
0000
DB00
DB00
DB00
DB00
DB00
DB00
DB00
DB00
DB00
FF00
0300
0300
ENDCHAR
STARTCHAR U+042A
ENCODING 1066
SWIDTH 508 0
DWIDTH 9 0
BBX 9 17 0 -2
BITMAP
0000
0000
0000
0000
000F
F003
3003
3003
3003
3E03
3303
3303
3303
3303
3E00
0000
000E
ENDCHAR
STARTCHAR U+042B
ENCODING 1067
SWIDTH 508 0
DWIDTH 9 0
BBX 9 17 0 -2
BITMAP
0000
0000
0000
0000
0000
C300
C300
C300
C300
F300
DB00
DB00
DB00
DB00
F300
0000
0000
ENDCHAR
STARTCHAR U+042C
ENCODING 1068
SWIDTH 508 0
DWIDTH 9 0
BBX 9 17 0 -2
BITMAP
0000
0000
0000
0000
000C
C00C
C00C
C00C
C00F
FC0C
C60C
C60C
C60C
C60F
FC00
0000
000E
ENDCHAR
STARTCHAR U+042D
ENCODING 1069
SWIDTH 508 0
DWIDTH 9 0
BBX 9 17 0 -2
BITMAP
0000
0000
0000
0000
0007
780C
CC00
0600
0607
7E00
0600
0600
060C
CC07
7800
0000
000E
ENDCHAR
STARTCHAR U+042E
ENCODING 1070
SWIDTH 508 0
DWIDTH 9 0
BBX 9 17 0 -2
BITMAP
0000
0000
0000
0000
0000
CE00
DB00
DB00
DB00
FB00
DB00
DB00
DB00
DB00
CE00
0000
0000
ENDCHAR
STARTCHAR U+042F
ENCODING 1071
SWIDTH 508 0
DWIDTH 9 0
BBX 9 17 0 -2
BITMAP
0000
0000
0000
0000
0007
7E0C
C60C
C60C
C607
7E03
3606
6606
660C
C60C
C600
0000
000E
ENDCHAR
STARTCHAR U+0430
ENCODING 1072
SWIDTH 508 0
DWIDTH 9 0
BBX 9 17 0 -2
BITMAP
0000
0000
0000
0000
0000
0000
0000
7C00
C600
1E00
6600
C600
C600
CE00
7A00
0000
0000
ENDCHAR
STARTCHAR U+0431
ENCODING 1073
SWIDTH 508 0
DWIDTH 9 0
BBX 9 17 0 -2
BITMAP
0000
0000
0000
0000
0000
0000
0000
7C00
C000
C000
FC00
C600
C600
C600
FC00
0000
0000
ENDCHAR
STARTCHAR U+0432
ENCODING 1074
SWIDTH 508 0
DWIDTH 9 0
BBX 9 17 0 -2
BITMAP
0000
0000
0000
0000
0000
0000
0000
7C00
C600
C600
FC00
C600
C600
C600
FC00
0000
0000
ENDCHAR
STARTCHAR U+0433
ENCODING 1075
SWIDTH 508 0
DWIDTH 9 0
BBX 9 17 0 -2
BITMAP
0000
0000
0000
0000
0000
0000
000F
FE0C
C00C
C00C
C00C
C00C
C00C
C00C
C000
0000
000E
ENDCHAR
STARTCHAR U+0434
ENCODING 1076
SWIDTH 508 0
DWIDTH 9 0
BBX 9 17 0 -2
BITMAP
0000
0000
0000
0000
0000
0000
0003
3E06
6606
6606
6606
6606
6606
660F
FF0C
C300
000E
ENDCHAR
STARTCHAR U+0435
ENCODING 1077
SWIDTH 508 0
DWIDTH 9 0
BBX 9 17 0 -2
BITMAP
0000
0000
0000
0000
0000
0000
0000
7C00
C600
C600
C600
FC00
C000
C600
7C00
0000
0000
ENDCHAR
STARTCHAR U+0436
ENCODING 1078
SWIDTH 508 0
DWIDTH 9 0
BBX 9 17 0 -2
BITMAP
0000
0000
0000
0000
0000
0000
0000
DB00
DB00
7E00
3C00
3C00
7E00
DB00
DB00
0000
0000
ENDCHAR
STARTCHAR U+0437
ENCODING 1079
SWIDTH 508 0
DWIDTH 9 0
BBX 9 17 0 -2
BITMAP
0000
0000
0000
0000
0000
0000
0007
7C0C
C600
0607
7C00
0C00
060C
C607
7C00
0000
000E
ENDCHAR
STARTCHAR U+0438
ENCODING 1080
SWIDTH 508 0
DWIDTH 9 0
BBX 9 17 0 -2
BITMAP
0000
0000
0000
0000
0000
0000
0000
C600
C600
C600
CE00
DE00
F600
E600
C600
0000
0000
ENDCHAR
STARTCHAR U+0439
ENCODING 1081
SWIDTH 508 0
DWIDTH 9 0
BBX 9 17 0 -2
BITMAP
0000
0000
0000
C600
7C00
0000
0000
C600
C600
C600
CE00
DE00
F600
E600
C600
0000
0000
ENDCHAR
STARTCHAR U+043A
ENCODING 1082
SWIDTH 508 0
DWIDTH 9 0
BBX 9 17 0 -2
BITMAP
0000
0000
0000
0000
0000
0000
0000
C600
CE00
D000
F800
CC00
C600
C600
C600
0000
0000
ENDCHAR
STARTCHAR U+043B
ENCODING 1083
SWIDTH 508 0
DWIDTH 9 0
BBX 9 17 0 -2
BITMAP
0000
0000
0000
0000
0000
0000
0000
1E00
3600
3600
3600
3600
6600
6600
C600
0000
0000
ENDCHAR
STARTCHAR U+043C
ENCODING 1084
SWIDTH 508 0
DWIDTH 9 0
BBX 9 17 0 -2
BITMAP
0000
0000
0000
0000
0000
0000
0000
C300
C300
E700
E700
DB00
DB00
C300
C300
0000
0000
ENDCHAR
STARTCHAR U+043D
ENCODING 1085
SWIDTH 508 0
DWIDTH 9 0
BBX 9 17 0 -2
BITMAP
0000
0000
0000
0000
0000
0000
000C
C60C
C60C
C60F
FE0C
C60C
C60C
C60C
C600
0000
000E
ENDCHAR
STARTCHAR U+043E
ENCODING 1086
SWIDTH 508 0
DWIDTH 9 0
BBX 9 17 0 -2
BITMAP
0000
0000
0000
0000
0000
0000
0000
3C00
6600
C600
C600
C600
C600
C600
7C00
0000
0000
ENDCHAR
STARTCHAR U+043F
ENCODING 1087
SWIDTH 508 0
DWIDTH 9 0
BBX 9 17 0 -2
BITMAP
0000
0000
0000
0000
0000
0000
000F
FE0C
C60C
C60C
C60C
C60C
C60C
C60C
C600
0000
000E
ENDCHAR
STARTCHAR U+0440
ENCODING 1088
SWIDTH 508 0
DWIDTH 9 0
BBX 9 17 0 -2
BITMAP
0000
0000
0000
0000
0000
0000
0000
7C00
C600
C600
C600
C600
C600
C600
FC00
C000
C000
ENDCHAR
STARTCHAR U+0441
ENCODING 1089
SWIDTH 508 0
DWIDTH 9 0
BBX 9 17 0 -2
BITMAP
0000
0000
0000
0000
0000
0000
0000
3C00
6600
C000
C000
C000
C000
C600
7C00
0000
0000
ENDCHAR
STARTCHAR U+0442
ENCODING 1090
SWIDTH 508 0
DWIDTH 9 0
BBX 9 17 0 -2
BITMAP
0000
0000
0000
0000
0000
0000
000F
FF01
1801
1801
1801
1801
1801
1801
1800
0000
000E
ENDCHAR
STARTCHAR U+0443
ENCODING 1091
SWIDTH 508 0
DWIDTH 9 0
BBX 9 17 0 -2
BITMAP
0000
0000
0000
0000
0000
0000
000C
C60C
C606
6C06
6C03
3803
3803
3003
3006
600E
E00E
ENDCHAR
STARTCHAR U+0444
ENCODING 1092
SWIDTH 508 0
DWIDTH 9 0
BBX 9 17 0 -2
BITMAP
0000
0000
0000
0000
0000
0001
1801
1807
7E0D
DB0D
DB0D
DB0D
DB07
7E01
1801
1800
000E
ENDCHAR
STARTCHAR U+0445
ENCODING 1093
SWIDTH 508 0
DWIDTH 9 0
BBX 9 17 0 -2
BITMAP
0000
0000
0000
0000
0000
0000
0000
C600
C600
4400
3800
3800
4400
C600
C600
0000
0000
ENDCHAR
STARTCHAR U+0446
ENCODING 1094
SWIDTH 508 0
DWIDTH 9 0
BBX 9 17 0 -2
BITMAP
0000
0000
0000
0000
0000
0000
000C
C60C
C60C
C60C
C60C
C60C
C60C
C60F
FF00
0300
030E
ENDCHAR
STARTCHAR U+0447
ENCODING 1095
SWIDTH 508 0
DWIDTH 9 0
BBX 9 17 0 -2
BITMAP
0000
0000
0000
0000
0000
0000
0000
C600
C600
C600
C600
C600
7E00
0600
0600
0000
0000
ENDCHAR
STARTCHAR U+0448
ENCODING 1096
SWIDTH 508 0
DWIDTH 9 0
BBX 9 17 0 -2
BITMAP
0000
0000
0000
0000
0000
0000
000D
DB0D
DB0D
DB0D
DB0D
DB0D
DB0D
DB0F
FF00
0000
000E
ENDCHAR
STARTCHAR U+0449
ENCODING 1097
SWIDTH 508 0
DWIDTH 9 0
BBX 9 17 0 -2
BITMAP
0000
0000
0000
0000
0000
0000
000D
DB0D
DB0D
DB0D
DB0D
DB0D
DB0D
DB0F
FF00
0300
030E
ENDCHAR
STARTCHAR U+044A
ENCODING 1098
SWIDTH 508 0
DWIDTH 9 0
BBX 9 17 0 -2
BITMAP
0000
0000
0000
0000
0000
0000
0000
F000
3000
3000
3E00
3300
3300
3300
3E00
0000
0000
ENDCHAR
STARTCHAR U+044B
ENCODING 1099
SWIDTH 508 0
DWIDTH 9 0
BBX 9 17 0 -2
BITMAP
0000
0000
0000
0000
0000
0000
0000
C300
C300
C300
F300
DB00
DB00
DB00
F300
0000
0000
ENDCHAR
STARTCHAR U+044C
ENCODING 1100
SWIDTH 508 0
DWIDTH 9 0
BBX 9 17 0 -2
BITMAP
0000
0000
0000
0000
0000
0000
0000
6000
6000
6000
7C00
6600
6600
6600
7C00
0000
0000
ENDCHAR
STARTCHAR U+044D
ENCODING 1101
SWIDTH 508 0
DWIDTH 9 0
BBX 9 17 0 -2
BITMAP
0000
0000
0000
0000
0000
0000
0007
780C
CC00
0607
7E00
0600
060C
CC07
7800
0000
000E
ENDCHAR
STARTCHAR U+044E
ENCODING 1102
SWIDTH 508 0
DWIDTH 9 0
BBX 9 17 0 -2
BITMAP
0000
0000
0000
0000
0000
0000
0000
CE00
DB00
DB00
FB00
DB00
DB00
DB00
CE00
0000
0000
ENDCHAR
STARTCHAR U+044F
ENCODING 1103
SWIDTH 508 0
DWIDTH 9 0
BBX 9 17 0 -2
BITMAP
0000
0000
0000
0000
0000
0000
0007
7E0C
C60C
C60C
C607
7E03
3606
660C
C600
0000
000E
ENDCHAR
STARTCHAR U+0450
ENCODING 1104
SWIDTH 508 0
DWIDTH 9 0
BBX 9 17 0 -2
BITMAP
0000
0000
0000
0000
3000
1800
0000
7C00
C600
C600
C600
FC00
C000
C600
7C00
0000
0000
ENDCHAR
STARTCHAR U+0451
ENCODING 1105
SWIDTH 508 0
DWIDTH 9 0
BBX 9 17 0 -2
BITMAP
0000
0000
0000
6C00
6C00
0000
0000
7C00
C600
C600
C600
FC00
C000
C600
7C00
0000
0000
ENDCHAR
STARTCHAR U+0452
ENCODING 1106
SWIDTH 508 0
DWIDTH 9 0
BBX 9 17 0 -2
BITMAP
0000
0000
0000
0000
0006
6006
600F
F806
6006
6007
7C06
6606
6606
6606
6601
1C00
000E
ENDCHAR
STARTCHAR U+0453
ENCODING 1107
SWIDTH 508 0
DWIDTH 9 0
BBX 9 17 0 -2
BITMAP
0000
0000
0001
1C07
7000
0000
000F
FE0C
C00C
C00C
C00C
C00C
C00C
C00C
C000
0000
000E
ENDCHAR
STARTCHAR U+0454
ENCODING 1108
SWIDTH 508 0
DWIDTH 9 0
BBX 9 17 0 -2
BITMAP
0000
0000
0000
0000
0000
0000
0003
3C06
660C
C00F
FC0C
C00C
C006
6603
3C00
0000
000E
ENDCHAR
STARTCHAR U+0455
ENCODING 1109
SWIDTH 508 0
DWIDTH 9 0
BBX 9 17 0 -2
BITMAP
0000
0000
0000
0000
0000
0000
0007
7C0C
C60C
C007
7001
1C00
060C
C607
7C00
0000
000E
ENDCHAR
STARTCHAR U+0456
ENCODING 1110
SWIDTH 508 0
DWIDTH 9 0
BBX 9 17 0 -2
BITMAP
0000
0000
0000
0001
1801
1800
0003
3801
1801
1801
1801
1801
1801
1807
7E00
0000
000E
ENDCHAR
STARTCHAR U+0457
ENCODING 1111
SWIDTH 508 0
DWIDTH 9 0
BBX 9 17 0 -2
BITMAP
0000
0000
0000
0006
6C06
6C00
0003
3801
1801
1801
1801
1801
1801
1807
7E00
0000
000E
ENDCHAR
STARTCHAR U+0458
ENCODING 1112
SWIDTH 508 0
DWIDTH 9 0
BBX 9 17 0 -2
BITMAP
0000
0000
0000
0000
0C00
0C00
0001
1C00
0C00
0C00
0C00
0C00
0C00
0C00
0C0D
D807
700E
ENDCHAR
STARTCHAR U+0459
ENCODING 1113
SWIDTH 508 0
DWIDTH 9 0
BBX 9 17 0 -2
BITMAP
0000
0000
0000
0000
0000
0000
0000
3C00
6C00
6C00
6E00
6D00
6D00
6D00
CE00
0000
0000
ENDCHAR
STARTCHAR U+045A
ENCODING 1114
SWIDTH 508 0
DWIDTH 9 0
BBX 9 17 0 -2
BITMAP
0000
0000
0000
0000
0000
0000
000D
D80D
D80D
D80F
FE0D
DB0D
DB0D
DB0D
DE00
0000
000E
ENDCHAR
STARTCHAR U+045B
ENCODING 1115
SWIDTH 508 0
DWIDTH 9 0
BBX 9 17 0 -2
BITMAP
0000
0000
0000
0000
0006
6006
600F
F806
6006
6006
6C07
7606
6606
6606
6600
0000
000E
ENDCHAR
STARTCHAR U+045C
ENCODING 1116
SWIDTH 508 0
DWIDTH 9 0
BBX 9 17 0 -2
BITMAP
0000
0000
0000
1C00
7000
0000
0000
C600
CE00
D000
F000
DC00
C600
C600
C600
0000
0000
ENDCHAR
STARTCHAR U+045D
ENCODING 1117
SWIDTH 508 0
DWIDTH 9 0
BBX 9 17 0 -2
BITMAP
0000
0000
0000
3000
1800
0000
C600
C600
C600
CE00
DE00
F600
E600
C600
0000
0000
0000
ENDCHAR
STARTCHAR U+045E
ENCODING 1118
SWIDTH 508 0
DWIDTH 9 0
BBX 9 17 0 -2
BITMAP
0000
0000
0000
C600
7C00
0000
0000
C600
C600
6C00
6C00
3800
3800
3000
3000
6000
E000
ENDCHAR
STARTCHAR U+045F
ENCODING 1119
SWIDTH 508 0
DWIDTH 9 0
BBX 9 17 0 -2
BITMAP
0000
0000
0000
0000
0000
0000
0006
6606
6606
6606
6606
6606
6607
7E01
1801
1801
180E
ENDCHAR
STARTCHAR U+0460
ENCODING 1120
SWIDTH 508 0
DWIDTH 9 0
BBX 9 17 0 -2
BITMAP
0000
0000
0000
0000
0007
760C
C30C
C30C
C30C
C30D
DB0D
DB0D
DB0D
DB07
7600
0000
000E
ENDCHAR
STARTCHAR U+0461
ENCODING 1121
SWIDTH 508 0
DWIDTH 9 0
BBX 9 17 0 -2
BITMAP
0000
0000
0000
0000
0000
0000
0006
660C
C30C
C30D
DB0D
DB0D
DB0D
DB07
7600
0000
000E
ENDCHAR
STARTCHAR U+0462
ENCODING 1122
SWIDTH 508 0
DWIDTH 9 0
BBX 9 17 0 -2
BITMAP
0000
0000
0000
0000
0003
300F
FC03
3003
3003
3E03
3303
3303
3303
3303
3E00
0000
000E
ENDCHAR
STARTCHAR U+0463
ENCODING 1123
SWIDTH 508 0
DWIDTH 9 0
BBX 9 17 0 -2
BITMAP
0000
0000
0000
0000
0006
6006
600F
F806
6006
6007
7C06
6606
6606
6607
7C00
0000
000E
ENDCHAR
STARTCHAR U+0464
ENCODING 1124
SWIDTH 508 0
DWIDTH 9 0
BBX 9 17 0 -2
BITMAP
0000
0000
0000
0000
000C
CE0D
DB0D
D00D
D00F
FE0D
D00D
D00D
D00D
DB0C
CE00
0000
000E
ENDCHAR
STARTCHAR U+0465
ENCODING 1125
SWIDTH 508 0
DWIDTH 9 0
BBX 9 17 0 -2
BITMAP
0000
0000
0000
0000
0000
0000
000C
CE0D
DB0D
D00F
FE0D
D00D
D00D
DB0C
CE00
0000
000E
ENDCHAR
STARTCHAR U+0466
ENCODING 1126
SWIDTH 508 0
DWIDTH 9 0
BBX 9 17 0 -2
BITMAP
0000
0000
0000
0000
0001
1801
1803
3403
3406
6607
7606
6A0D
DB0D
DB0D
DB00
0000
000E
ENDCHAR
STARTCHAR U+0467
ENCODING 1127
SWIDTH 508 0
DWIDTH 9 0
BBX 9 17 0 -2
BITMAP
0000
0000
0000
0000
0000
0000
0001
1803
3403
3406
6607
760D
DB0D
DB0D
DB00
0000
000E
ENDCHAR
STARTCHAR U+0468
ENCODING 1128
SWIDTH 508 0
DWIDTH 9 0
BBX 9 17 0 -2
BITMAP
0000
0000
0000
0000
000D
D80D
D80D
D40D
D40D
D60F
F60E
EA0D
DB0D
DB0D
DB00
0000
000E
ENDCHAR
STARTCHAR U+0469
ENCODING 1129
SWIDTH 508 0
DWIDTH 9 0
BBX 9 17 0 -2
BITMAP
0000
0000
0000
0000
0000
0000
000D
D80D
D40D
D40D
D60F
F60D
DB0D
DB0D
DB00
0000
000E
ENDCHAR
STARTCHAR U+046A
ENCODING 1130
SWIDTH 508 0
DWIDTH 9 0
BBX 9 17 0 -2
BITMAP
0000
0000
0000
0000
0007
7E06
6606
6603
3401
1803
3C06
6A0D
DB0D
DB0D
DB00
0000
000E
ENDCHAR
STARTCHAR U+046B
ENCODING 1131
SWIDTH 508 0
DWIDTH 9 0
BBX 9 17 0 -2
BITMAP
0000
0000
0000
0000
0000
0000
0007
7E06
6603
3401
1807
7E0D
DB0D
DB0D
DB00
0000
000E
ENDCHAR
STARTCHAR U+046C
ENCODING 1132
SWIDTH 508 0
DWIDTH 9 0
BBX 9 17 0 -2
BITMAP
0000
0000
0000
0000
000D
DF0D
D30D
D30D
DA0F
F40D
DE0D
D50D
D50D
D50D
D500
0000
000E
ENDCHAR
STARTCHAR U+046D
ENCODING 1133
SWIDTH 508 0
DWIDTH 9 0
BBX 9 17 0 -2
BITMAP
0000
0000
0000
0000
0000
0000
000D
DF0D
D30D
DA0F
F40D
DE0D
D50D
D50D
D500
0000
000E
ENDCHAR
STARTCHAR U+046E
ENCODING 1134
SWIDTH 508 0
DWIDTH 9 0
BBX 9 17 0 -2
BITMAP
0000
0000
0006
6C03
3807
7C0C
C600
0600
0607
7C00
0C00
0600
0600
0607
7C0C
C00C
C00E
ENDCHAR
STARTCHAR U+046F
ENCODING 1135
SWIDTH 508 0
DWIDTH 9 0
BBX 9 17 0 -2
BITMAP
0000
0000
0000
0006
6C03
3800
0007
7C0C
C600
0607
7C00
0C00
0600
0607
7C0C
C00C
C00E
ENDCHAR
STARTCHAR U+0470
ENCODING 1136
SWIDTH 508 0
DWIDTH 9 0
BBX 9 17 0 -2
BITMAP
0000
0000
0000
0000
000D
DB0D
DB0D
DB0D
DB0D
DB07
7E01
1801
1801
1801
1800
0000
000E
ENDCHAR
STARTCHAR U+0471
ENCODING 1137
SWIDTH 508 0
DWIDTH 9 0
BBX 9 17 0 -2
BITMAP
0000
0000
0000
0000
0000
0000
0000
0000
000D
DB0D
DB0D
DB0D
DB0D
DB07
7E01
1801
180E
ENDCHAR
STARTCHAR U+0472
ENCODING 1138
SWIDTH 508 0
DWIDTH 9 0
BBX 9 17 0 -2
BITMAP
0000
0000
0000
0000
0007
7C0C
C60C
C60C
C60F
FE0C
C60C
C60C
C60C
C607
7C00
0000
000E
ENDCHAR
STARTCHAR U+0473
ENCODING 1139
SWIDTH 508 0
DWIDTH 9 0
BBX 9 17 0 -2
BITMAP
0000
0000
0000
0000
0000
0000
0007
7C0C
C60C
C60F
FE0C
C60C
C60C
C607
7C00
0000
000E
ENDCHAR
STARTCHAR U+0474
ENCODING 1140
SWIDTH 508 0
DWIDTH 9 0
BBX 9 17 0 -2
BITMAP
0000
0000
0000
0000
000C
C70C
CC0C
CC0C
CC06
6806
6806
6803
3003
3003
3000
0000
000E
ENDCHAR
STARTCHAR U+0475
ENCODING 1141
SWIDTH 508 0
DWIDTH 9 0
BBX 9 17 0 -2
BITMAP
0000
0000
0000
0000
0000
0000
000C
CE0D
D80D
D806
6806
6806
6803
3003
3000
0000
000E
ENDCHAR
STARTCHAR U+0476
ENCODING 1142
SWIDTH 508 0
DWIDTH 9 0
BBX 9 17 0 -2
BITMAP
000E
EE03
3300
0000
000C
C70C
CC0C
CC0C
CC06
6806
6806
6803
3003
3003
3000
0000
000E
ENDCHAR
STARTCHAR U+0477
ENCODING 1143
SWIDTH 508 0
DWIDTH 9 0
BBX 9 17 0 -2
BITMAP
0000
0000
000E
EE03
3300
0000
000C
CE0D
D80D
D806
6806
6806
6803
3003
3000
0000
000E
ENDCHAR
STARTCHAR U+0478
ENCODING 1144
SWIDTH 508 0
DWIDTH 9 0
BBX 9 17 0 -2
BITMAP
0000
0000
0000
0000
0006
600D
D00D
DB0D
DB0D
DB0D
D50D
D60D
D40D
D406
6C01
1801
180E
ENDCHAR
STARTCHAR U+0479
ENCODING 1145
SWIDTH 508 0
DWIDTH 9 0
BBX 9 17 0 -2
BITMAP
0000
0000
0000
0000
0000
0000
0006
6B0D
DB0D
DB0D
D50D
D60D
D40D
D406
6C01
1801
180E
ENDCHAR
STARTCHAR U+047A
ENCODING 1146
SWIDTH 508 0
DWIDTH 9 0
BBX 9 17 0 -2
BITMAP
0000
0000
0000
0001
1807
7E0D
DB0C
C30C
C30C
C30C
C30C
C30C
C30D
DB07
7E01
1800
000E
ENDCHAR
STARTCHAR U+047B
ENCODING 1147
SWIDTH 508 0
DWIDTH 9 0
BBX 9 17 0 -2
BITMAP
0000
0000
0000
0000
0000
0001
1807
7E0D
DB0C
C30C
C30C
C30C
C30D
DB07
7E01
1800
000E
ENDCHAR
STARTCHAR U+047C
ENCODING 1148
SWIDTH 508 0
DWIDTH 9 0
BBX 9 17 0 -2
BITMAP
0007
7C0C
C703
3800
0007
760C
C30C
C30C
C30C
C30D
DB0D
DB0D
DB0D
DB07
7600
0000
000E
ENDCHAR
STARTCHAR U+047D
ENCODING 1149
SWIDTH 508 0
DWIDTH 9 0
BBX 9 17 0 -2
BITMAP
0000
0000
0007
7C0C
C703
3800
0006
660C
C30C
C30D
DB0D
DB0D
DB0D
DB07
7600
0000
000E
ENDCHAR
STARTCHAR U+047E
ENCODING 1150
SWIDTH 508 0
DWIDTH 9 0
BBX 9 17 0 -2
BITMAP
000F
FF01
1800
0000
0007
760C
C30C
C30C
C30C
C30D
DB0D
DB0D
DB0D
DB07
7600
0000
000E
ENDCHAR
STARTCHAR U+047F
ENCODING 1151
SWIDTH 508 0
DWIDTH 9 0
BBX 9 17 0 -2
BITMAP
0000
0000
000F
FF01
1800
0000
0006
660C
C30C
C30D
DB0D
DB0D
DB0D
DB07
7600
0000
000E
ENDCHAR
STARTCHAR U+0480
ENCODING 1152
SWIDTH 508 0
DWIDTH 9 0
BBX 9 17 0 -2
BITMAP
0000
0000
0000
0000
0007
7C0C
C60C
C60C
C00C
C00C
C00C
C00C
C007
7C00
0C00
0C00
0C0E
ENDCHAR
STARTCHAR U+0481
ENCODING 1153
SWIDTH 508 0
DWIDTH 9 0
BBX 9 17 0 -2
BITMAP
0000
0000
0000
0000
0000
0000
0007
7C0C
C60C
C60C
C00C
C00C
C007
7C00
0C00
0C00
0C0E
ENDCHAR
STARTCHAR U+0482
ENCODING 1154
SWIDTH 508 0
DWIDTH 9 0
BBX 9 17 0 -2
BITMAP
0000
0000
0000
0000
0000
0000
0003
3601
1C0C
CC06
6A03
3303
3806
6C00
0000
0000
000E
ENDCHAR
STARTCHAR U+0483
ENCODING 1155
SWIDTH 508 0
DWIDTH 9 0
BBX 9 17 0 -2
BITMAP
0000
0001
180F
F80C
C000
0000
0000
0000
0000
0000
0000
0000
0000
0000
0000
0000
000E
ENDCHAR
STARTCHAR U+0484
ENCODING 1156
SWIDTH 508 0
DWIDTH 9 0
BBX 9 17 0 -2
BITMAP
0000
0003
3006
680D
D808
8000
0000
0000
0000
0000
0000
0000
0000
0000
0000
0000
000E
ENDCHAR
STARTCHAR U+0485
ENCODING 1157
SWIDTH 508 0
DWIDTH 9 0
BBX 9 17 0 -2
BITMAP
0000
000C
C00F
F80C
C000
0000
0000
0000
0000
0000
0000
0000
0000
0000
0000
0000
000E
ENDCHAR
STARTCHAR U+0486
ENCODING 1158
SWIDTH 508 0
DWIDTH 9 0
BBX 9 17 0 -2
BITMAP
0000
0001
180F
F801
1800
0000
0000
0000
0000
0000
0000
0000
0000
0000
0000
0000
000E
ENDCHAR
STARTCHAR U+0488
ENCODING 1160
SWIDTH 508 0
DWIDTH 9 0
BBX 9 17 0 -2
BITMAP
0000
0000
0000
0000
0001
1806
6600
000C
C300
0006
6601
1800
0000
0000
0000
0000
000E
ENDCHAR
STARTCHAR U+0489
ENCODING 1161
SWIDTH 508 0
DWIDTH 9 0
BBX 9 17 0 -2
BITMAP
0000
0000
0000
0001
180D
DB06
6600
000E
E700
0006
660D
DB01
1800
0000
0000
0000
000E
ENDCHAR
STARTCHAR U+048C
ENCODING 1164
SWIDTH 508 0
DWIDTH 9 0
BBX 9 17 0 -2
BITMAP
0000
0000
0000
0000
000C
C00F
F00C
C00C
C00F
FC0C
C60C
C60C
C60C
C60F
FC00
0000
000E
ENDCHAR
STARTCHAR U+048D
ENCODING 1165
SWIDTH 508 0
DWIDTH 9 0
BBX 9 17 0 -2
BITMAP
0000
0000
0000
0000
0000
0000
000C
C00F
F00C
C00C
C00F
FC0C
C60C
C60F
FC00
0000
000E
ENDCHAR
STARTCHAR U+048E
ENCODING 1166
SWIDTH 508 0
DWIDTH 9 0
BBX 9 17 0 -2
BITMAP
0000
0000
0000
0000
0000
FC00
C600
C600
C600
DE00
CE00
FC00
C600
C000
C000
0000
0000
ENDCHAR
STARTCHAR U+048F
ENCODING 1167
SWIDTH 508 0
DWIDTH 9 0
BBX 9 17 0 -2
BITMAP
0000
0000
0000
0000
0000
0000
0000
7C00
C600
C600
C600
DE00
CE00
FC00
C600
C000
C000
ENDCHAR
STARTCHAR U+0490
ENCODING 1168
SWIDTH 508 0
DWIDTH 9 0
BBX 9 17 0 -2
BITMAP
0000
0000
0000
0600
060F
FE0C
C00C
C00C
C00C
C00C
C00C
C00C
C00C
C00C
C000
0000
000E
ENDCHAR
STARTCHAR U+0491
ENCODING 1169
SWIDTH 508 0
DWIDTH 9 0
BBX 9 17 0 -2
BITMAP
0000
0000
0000
0000
0000
0600
060F
FE0C
C00C
C00C
C00C
C00C
C00C
C00C
C000
0000
000E
ENDCHAR
STARTCHAR U+0492
ENCODING 1170
SWIDTH 508 0
DWIDTH 9 0
BBX 9 17 0 -2
BITMAP
0000
0000
0000
0000
0003
3F03
3003
3003
3003
300F
FC03
3003
3003
3003
3000
0000
000E
ENDCHAR
STARTCHAR U+0493
ENCODING 1171
SWIDTH 508 0
DWIDTH 9 0
BBX 9 17 0 -2
BITMAP
0000
0000
0000
0000
0000
0000
0003
3F03
3003
3003
300F
FC03
3003
3003
3000
0000
000E
ENDCHAR
STARTCHAR U+0494
ENCODING 1172
SWIDTH 508 0
DWIDTH 9 0
BBX 9 17 0 -2
BITMAP
0000
0000
0000
0000
000F
FE0C
C00C
C00C
C00C
C00F
FC0C
C60C
C60C
C60C
C601
1C00
000E
ENDCHAR
STARTCHAR U+0495
ENCODING 1173
SWIDTH 508 0
DWIDTH 9 0
BBX 9 17 0 -2
BITMAP
0000
0000
0000
0000
0000
0000
000F
FE0C
C00C
C00C
C00F
FC0C
C60C
C60C
C601
1C00
000E
ENDCHAR
STARTCHAR U+0496
ENCODING 1174
SWIDTH 508 0
DWIDTH 9 0
BBX 9 17 0 -2
BITMAP
0000
0000
0000
0000
0000
DB00
DB00
5A00
7E00
3C00
3C00
7E00
5A00
DB00
DB00
0100
0100
ENDCHAR
STARTCHAR U+0497
ENCODING 1175
SWIDTH 508 0
DWIDTH 9 0
BBX 9 17 0 -2
BITMAP
0000
0000
0000
0000
0000
0000
0000
DB00
DB00
7E00
3C00
3C00
7E00
DB00
DB00
0100
0100
ENDCHAR
STARTCHAR U+0498
ENCODING 1176
SWIDTH 508 0
DWIDTH 9 0
BBX 9 17 0 -2
BITMAP
0000
0000
0000
0000
0007
7C0C
C600
0600
0607
7C00
0C00
0600
060C
C607
7C01
1807
700E
ENDCHAR
STARTCHAR U+0499
ENCODING 1177
SWIDTH 508 0
DWIDTH 9 0
BBX 9 17 0 -2
BITMAP
0000
0000
0000
0000
0000
0000
0007
7C0C
C600
0607
7C00
0C00
060C
C607
7C01
1807
700E
ENDCHAR
STARTCHAR U+049A
ENCODING 1178
SWIDTH 508 0
DWIDTH 9 0
BBX 9 17 0 -2
BITMAP
0000
0000
0000
0000
0000
C600
CE00
C800
D000
F000
F800
CC00
C600
C700
C700
0300
0300
ENDCHAR
STARTCHAR U+049B
ENCODING 1179
SWIDTH 508 0
DWIDTH 9 0
BBX 9 17 0 -2
BITMAP
0000
0000
0000
0000
0000
0000
0000
C600
CE00
D000
F800
CC00
C600
C600
C700
0300
0300
ENDCHAR
STARTCHAR U+049C
ENCODING 1180
SWIDTH 508 0
DWIDTH 9 0
BBX 9 17 0 -2
BITMAP
0000
0000
0000
0000
0000
C300
C700
D400
D400
FC00
D400
D600
D300
C300
C300
0000
0000
ENDCHAR
STARTCHAR U+049D
ENCODING 1181
SWIDTH 508 0
DWIDTH 9 0
BBX 9 17 0 -2
BITMAP
0000
0000
0000
0000
0000
0000
0000
C300
D700
D400
FC00
D600
D300
C300
C300
0000
0000
ENDCHAR
STARTCHAR U+049E
ENCODING 1182
SWIDTH 508 0
DWIDTH 9 0
BBX 9 17 0 -2
BITMAP
0000
0000
0000
0000
0000
6300
F700
6400
6800
7000
7C00
6600
6300
6300
6300
0000
0000
ENDCHAR
STARTCHAR U+049F
ENCODING 1183
SWIDTH 508 0
DWIDTH 9 0
BBX 9 17 0 -2
BITMAP
0000
0000
0000
0000
0000
0000
6000
F300
6700
6800
7C00
6600
6300
6300
6300
0000
0000
ENDCHAR
STARTCHAR U+04A0
ENCODING 1184
SWIDTH 508 0
DWIDTH 9 0
BBX 9 17 0 -2
BITMAP
0000
0000
0000
0000
0000
E300
E700
6400
6800
7000
7C00
6600
6300
6300
6300
0000
0000
ENDCHAR
STARTCHAR U+04A1
ENCODING 1185
SWIDTH 508 0
DWIDTH 9 0
BBX 9 17 0 -2
BITMAP
0000
0000
0000
0000
0000
0000
0000
E300
E700
6800
7C00
6600
6300
6300
6300
0000
0000
ENDCHAR
STARTCHAR U+04A2
ENCODING 1186
SWIDTH 508 0
DWIDTH 9 0
BBX 9 17 0 -2
BITMAP
0000
0000
0000
0000
000C
C60C
C60C
C60C
C60F
FE0C
C60C
C60C
C60C
C60C
C700
0300
030E
ENDCHAR
STARTCHAR U+04A3
ENCODING 1187
SWIDTH 508 0
DWIDTH 9 0
BBX 9 17 0 -2
BITMAP
0000
0000
0000
0000
0000
0000
000C
C60C
C60C
C60F
FE0C
C60C
C60C
C60C
C700
0300
030E
ENDCHAR
STARTCHAR U+04A4
ENCODING 1188
SWIDTH 508 0
DWIDTH 9 0
BBX 9 17 0 -2
BITMAP
0000
0000
0000
0000
000C
CF0C
CC0C
CC0C
CC0F
FC0C
CC0C
CC0C
CC0C
CC0C
CC00
0000
000E
ENDCHAR
STARTCHAR U+04A5
ENCODING 1189
SWIDTH 508 0
DWIDTH 9 0
BBX 9 17 0 -2
BITMAP
0000
0000
0000
0000
0000
0000
000C
CF0C
CC0C
CC0F
FC0C
CC0C
CC0C
CC0C
CC00
0000
000E
ENDCHAR
STARTCHAR U+04A6
ENCODING 1190
SWIDTH 508 0
DWIDTH 9 0
BBX 9 17 0 -2
BITMAP
0000
0000
0000
0000
000F
F80D
D80D
D80D
D80D
D80D
DE0D
DB0D
DB0D
DB0D
DB00
0300
0E0E
ENDCHAR
STARTCHAR U+04A7
ENCODING 1191
SWIDTH 508 0
DWIDTH 9 0
BBX 9 17 0 -2
BITMAP
0000
0000
0000
0000
0000
0000
000F
F80D
D80D
D80D
D80D
DE0D
DB0D
DB0D
DB00
0300
0E0E
ENDCHAR
STARTCHAR U+04A8
ENCODING 1192
SWIDTH 508 0
DWIDTH 9 0
BBX 9 17 0 -2
BITMAP
0000
0000
0000
0000
0003
3C06
600C
C00D
DC0D
D60D
D60D
D60D
D606
6C03
3800
0E00
000E
ENDCHAR
STARTCHAR U+04A9
ENCODING 1193
SWIDTH 508 0
DWIDTH 9 0
BBX 9 17 0 -2
BITMAP
0000
0000
0000
0000
0000
0000
0003
3C06
600D
DC0D
D60D
D60D
D606
6C03
3800
0E00
000E
ENDCHAR
STARTCHAR U+04AA
ENCODING 1194
SWIDTH 508 0
DWIDTH 9 0
BBX 9 17 0 -2
BITMAP
0000
0000
0000
0000
0000
3C00
6600
C600
C000
C000
C000
C000
C600
C600
7C00
3000
1C00
ENDCHAR
STARTCHAR U+04AB
ENCODING 1195
SWIDTH 508 0
DWIDTH 9 0
BBX 9 17 0 -2
BITMAP
0000
0000
0000
0000
0000
0000
0000
3C00
6600
C600
C000
C000
C600
C600
7C00
3000
1C00
ENDCHAR
STARTCHAR U+04AC
ENCODING 1196
SWIDTH 508 0
DWIDTH 9 0
BBX 9 17 0 -2
BITMAP
0000
0000
0000
0000
000F
FF01
1801
1801
1801
1801
1801
1801
1801
1801
1C00
0C00
0C0E
ENDCHAR
STARTCHAR U+04AD
ENCODING 1197
SWIDTH 508 0
DWIDTH 9 0
BBX 9 17 0 -2
BITMAP
0000
0000
0000
0000
0000
0000
000F
FF01
1801
1801
1801
1801
1801
1801
1C00
0C00
0C0E
ENDCHAR
STARTCHAR U+04AE
ENCODING 1198
SWIDTH 508 0
DWIDTH 9 0
BBX 9 17 0 -2
BITMAP
0000
0000
0000
0000
000C
C30C
C306
6606
6603
3401
1801
1801
1801
1801
1800
0000
000E
ENDCHAR
STARTCHAR U+04AF
ENCODING 1199
SWIDTH 508 0
DWIDTH 9 0
BBX 9 17 0 -2
BITMAP
0000
0000
0000
0000
0000
0000
0006
6606
6606
6603
3403
3401
1801
1801
1801
1801
180E
ENDCHAR
STARTCHAR U+04B0
ENCODING 1200
SWIDTH 508 0
DWIDTH 9 0
BBX 9 17 0 -2
BITMAP
0000
0000
0000
0000
000C
C30C
C306
6606
6603
3401
1801
1807
7E01
1801
1800
0000
000E
ENDCHAR
STARTCHAR U+04B1
ENCODING 1201
SWIDTH 508 0
DWIDTH 9 0
BBX 9 17 0 -2
BITMAP
0000
0000
0000
0000
0000
0000
0006
6606
6606
6603
3401
1801
1807
7E01
1800
0000
000E
ENDCHAR
STARTCHAR U+04B2
ENCODING 1202
SWIDTH 508 0
DWIDTH 9 0
BBX 9 17 0 -2
BITMAP
0000
0000
0000
0000
0000
C600
C600
6C00
6C00
3800
3800
6C00
6C00
C600
C700
0300
0300
ENDCHAR
STARTCHAR U+04B3
ENCODING 1203
SWIDTH 508 0
DWIDTH 9 0
BBX 9 17 0 -2
BITMAP
0000
0000
0000
0000
0000
0000
0000
C600
C600
6C00
3800
3800
6C00
C600
C700
0300
0300
ENDCHAR
STARTCHAR U+04B4
ENCODING 1204
SWIDTH 508 0
DWIDTH 9 0
BBX 9 17 0 -2
BITMAP
0000
0000
0000
0000
0000
F600
6600
6600
6600
6600
6600
6600
6600
6600
7F00
0300
0300
ENDCHAR
STARTCHAR U+04B5
ENCODING 1205
SWIDTH 508 0
DWIDTH 9 0
BBX 9 17 0 -2
BITMAP
0000
0000
0000
0000
0000
0000
0000
F600
6600
6600
6600
6600
6600
6600
7F00
0300
0300
ENDCHAR
STARTCHAR U+04B6
ENCODING 1206
SWIDTH 508 0
DWIDTH 9 0
BBX 9 17 0 -2
BITMAP
0000
0000
0000
0000
0000
C600
C600
C600
C600
C600
C600
7E00
0600
0700
0700
0300
0300
ENDCHAR
STARTCHAR U+04B7
ENCODING 1207
SWIDTH 508 0
DWIDTH 9 0
BBX 9 17 0 -2
BITMAP
0000
0000
0000
0000
0000
0000
0000
C600
C600
C600
C600
C600
7E00
0600
0700
0300
0300
ENDCHAR
STARTCHAR U+04B8
ENCODING 1208
SWIDTH 508 0
DWIDTH 9 0
BBX 9 17 0 -2
BITMAP
0000
0000
0000
0000
0000
C600
C600
C600
C600
D600
D600
7E00
1600
1600
0600
0000
0000
ENDCHAR
STARTCHAR U+04B9
ENCODING 1209
SWIDTH 508 0
DWIDTH 9 0
BBX 9 17 0 -2
BITMAP
0000
0000
0000
0000
0000
0000
0000
C600
C600
C600
D600
D600
7E00
1600
0600
0000
0000
ENDCHAR
STARTCHAR U+04BA
ENCODING 1210
SWIDTH 508 0
DWIDTH 9 0
BBX 9 17 0 -2
BITMAP
0000
0000
0000
0000
000C
C00C
C00C
C00D
DC0E
E60C
C60C
C60C
C60C
C60C
C600
0000
000E
ENDCHAR
STARTCHAR U+04BB
ENCODING 1211
SWIDTH 508 0
DWIDTH 9 0
BBX 9 17 0 -2
BITMAP
0000
0000
0000
0000
0000
0000
000C
C00C
C00D
DC0E
E60C
C60C
C60C
C60C
C600
0000
000E
ENDCHAR
STARTCHAR U+04BC
ENCODING 1212
SWIDTH 508 0
DWIDTH 9 0
BBX 9 17 0 -2
BITMAP
0000
0000
0000
0000
000D
DC0D
D60D
D60D
D607
7E03
3003
3003
3603
3601
1C00
0000
000E
ENDCHAR
STARTCHAR U+04BD
ENCODING 1213
SWIDTH 508 0
DWIDTH 9 0
BBX 9 17 0 -2
BITMAP
0000
0000
0000
0000
0000
0000
000D
DC0D
D60D
D607
7E03
3003
3003
3601
1C00
0000
000E
ENDCHAR
STARTCHAR U+04BE
ENCODING 1214
SWIDTH 508 0
DWIDTH 9 0
BBX 9 17 0 -2
BITMAP
0000
0000
0000
0000
000D
DC0D
D60D
D60D
D607
7E03
3003
3003
3603
3601
1C01
1800
0E0E
ENDCHAR
STARTCHAR U+04BF
ENCODING 1215
SWIDTH 508 0
DWIDTH 9 0
BBX 9 17 0 -2
BITMAP
0000
0000
0000
0000
0000
0000
000D
DC0D
D60D
D607
7E03
3003
3003
3601
1C01
1800
0E0E
ENDCHAR
STARTCHAR U+04C0
ENCODING 1216
SWIDTH 508 0
DWIDTH 9 0
BBX 9 17 0 -2
BITMAP
0000
0000
0000
0000
0007
7E01
1801
1801
1801
1801
1801
1801
1801
1807
7E00
0000
000E
ENDCHAR
STARTCHAR U+04C1
ENCODING 1217
SWIDTH 508 0
DWIDTH 9 0
BBX 9 17 0 -2
BITMAP
0000
0000
C300
7E00
0000
DB00
DB00
5A00
7E00
3C00
3C00
7E00
5A00
DB00
DB00
0000
0000
ENDCHAR
STARTCHAR U+04C2
ENCODING 1218
SWIDTH 508 0
DWIDTH 9 0
BBX 9 17 0 -2
BITMAP
0000
0000
0000
6600
3C00
0000
0000
DB00
DB00
7E00
3C00
3C00
7E00
DB00
DB00
0000
0000
ENDCHAR
STARTCHAR U+04C3
ENCODING 1219
SWIDTH 508 0
DWIDTH 9 0
BBX 9 17 0 -2
BITMAP
0000
0000
0000
0000
0000
C600
CE00
C800
D000
F000
FC00
C600
C600
C600
C600
0600
1C00
ENDCHAR
STARTCHAR U+04C4
ENCODING 1220
SWIDTH 508 0
DWIDTH 9 0
BBX 9 17 0 -2
BITMAP
0000
0000
0000
0000
0000
0000
0000
C600
CE00
C800
F000
FC00
C600
C600
C600
0600
1C00
ENDCHAR
STARTCHAR U+04C7
ENCODING 1223
SWIDTH 508 0
DWIDTH 9 0
BBX 9 17 0 -2
BITMAP
0000
0000
0000
0000
000C
C60C
C60C
C60C
C60F
FE0C
C60C
C60C
C60C
C60C
C600
0601
1C0E
ENDCHAR
STARTCHAR U+04C8
ENCODING 1224
SWIDTH 508 0
DWIDTH 9 0
BBX 9 17 0 -2
BITMAP
0000
0000
0000
0000
0000
0000
000C
C60C
C60C
C60F
FE0C
C60C
C60C
C60C
C600
0601
1C0E
ENDCHAR
STARTCHAR U+04CB
ENCODING 1227
SWIDTH 508 0
DWIDTH 9 0
BBX 9 17 0 -2
BITMAP
0000
0000
0000
0000
000C
C60C
C60C
C60C
C60C
C60C
CE07
7A00
0600
0600
0E00
0C00
0C0E
ENDCHAR
STARTCHAR U+04CC
ENCODING 1228
SWIDTH 508 0
DWIDTH 9 0
BBX 9 17 0 -2
BITMAP
0000
0000
0000
0000
0000
0000
000C
C60C
C60C
C60C
C60C
CE07
7A00
0600
0E00
0C00
0C0E
ENDCHAR
STARTCHAR U+04D0
ENCODING 1232
SWIDTH 508 0
DWIDTH 9 0
BBX 9 17 0 -2
BITMAP
0000
0000
C600
7C00
0000
1C00
2600
4600
C600
C600
FE00
C600
C600
C600
C600
0000
0000
ENDCHAR
STARTCHAR U+04D1
ENCODING 1233
SWIDTH 508 0
DWIDTH 9 0
BBX 9 17 0 -2
BITMAP
0000
0000
0000
C600
7C00
0000
0000
7C00
C600
1E00
6600
C600
C600
CE00
7A00
0000
0000
ENDCHAR
STARTCHAR U+04D2
ENCODING 1234
SWIDTH 508 0
DWIDTH 9 0
BBX 9 17 0 -2
BITMAP
0000
6C00
6C00
0000
0000
1C00
2600
4600
C600
C600
FE00
C600
C600
C600
C600
0000
0000
ENDCHAR
STARTCHAR U+04D3
ENCODING 1235
SWIDTH 508 0
DWIDTH 9 0
BBX 9 17 0 -2
BITMAP
0000
0000
0000
6C00
6C00
0000
0000
7C00
C600
1E00
6600
C600
C600
CE00
7A00
0000
0000
ENDCHAR
STARTCHAR U+04D4
ENCODING 1236
SWIDTH 508 0
DWIDTH 9 0
BBX 9 17 0 -2
BITMAP
0000
0000
0000
0000
0000
3F00
6C00
CC00
CC00
FF00
CC00
CC00
CC00
CC00
CF00
0000
0000
ENDCHAR
STARTCHAR U+04D5
ENCODING 1237
SWIDTH 508 0
DWIDTH 9 0
BBX 9 17 0 -2
BITMAP
0000
0000
0000
0000
0000
0000
0007
7E0D
DB01
1B07
7F0D
D80D
D80D
DB07
7E00
0000
000E
ENDCHAR
STARTCHAR U+04D6
ENCODING 1238
SWIDTH 508 0
DWIDTH 9 0
BBX 9 17 0 -2
BITMAP
0000
0000
C600
7C00
0000
7E00
C000
C000
C000
FC00
C000
C000
C000
C000
FE00
0000
0000
ENDCHAR
STARTCHAR U+04D7
ENCODING 1239
SWIDTH 508 0
DWIDTH 9 0
BBX 9 17 0 -2
BITMAP
0000
0000
0000
0000
C600
7C00
0000
7C00
C600
C600
C600
FC00
C000
C600
7C00
0000
0000
ENDCHAR
STARTCHAR U+04D8
ENCODING 1240
SWIDTH 508 0
DWIDTH 9 0
BBX 9 17 0 -2
BITMAP
0000
0000
0000
0000
0003
3806
6C0C
C600
0600
060F
FE0C
C60C
C606
6C03
3800
0000
000E
ENDCHAR
STARTCHAR U+04D9
ENCODING 1241
SWIDTH 508 0
DWIDTH 9 0
BBX 9 17 0 -2
BITMAP
0000
0000
0000
0000
0000
0000
0007
7C0C
C600
0600
060F
FE0C
C60C
C607
7C00
0000
000E
ENDCHAR
STARTCHAR U+04DA
ENCODING 1242
SWIDTH 508 0
DWIDTH 9 0
BBX 9 17 0 -2
BITMAP
0006
6C06
6C00
0000
0003
3806
6C0C
C600
0600
060F
FE0C
C60C
C606
6C03
3800
0000
000E
ENDCHAR
STARTCHAR U+04DB
ENCODING 1243
SWIDTH 508 0
DWIDTH 9 0
BBX 9 17 0 -2
BITMAP
0000
0000
0006
6C06
6C00
0000
0007
7C0C
C600
0600
060F
FE0C
C60C
C607
7C00
0000
000E
ENDCHAR
STARTCHAR U+04DC
ENCODING 1244
SWIDTH 508 0
DWIDTH 9 0
BBX 9 17 0 -2
BITMAP
0000
6600
6600
0000
0000
DB00
DB00
5A00
7E00
3C00
3C00
7E00
5A00
DB00
DB00
0000
0000
ENDCHAR
STARTCHAR U+04DD
ENCODING 1245
SWIDTH 508 0
DWIDTH 9 0
BBX 9 17 0 -2
BITMAP
0000
0000
0000
6600
6600
0000
0000
DB00
DB00
7E00
3C00
3C00
7E00
DB00
DB00
0000
0000
ENDCHAR
STARTCHAR U+04DE
ENCODING 1246
SWIDTH 508 0
DWIDTH 9 0
BBX 9 17 0 -2
BITMAP
0006
6C06
6C00
0000
0007
7C0C
C600
0600
0607
7C00
0C00
0600
060C
C607
7C00
0000
000E
ENDCHAR
STARTCHAR U+04DF
ENCODING 1247
SWIDTH 508 0
DWIDTH 9 0
BBX 9 17 0 -2
BITMAP
0000
0000
0006
6C06
6C00
0000
0007
7C0C
C600
0607
7C00
0C00
060C
C607
7C00
0000
000E
ENDCHAR
STARTCHAR U+04E0
ENCODING 1248
SWIDTH 508 0
DWIDTH 9 0
BBX 9 17 0 -2
BITMAP
0000
0000
0000
0000
000F
FE00
0C01
1803
3003
3C00
0600
0600
060C
CE07
7C00
0000
000E
ENDCHAR
STARTCHAR U+04E1
ENCODING 1249
SWIDTH 508 0
DWIDTH 9 0
BBX 9 17 0 -2
BITMAP
0000
0000
0000
0000
0000
0000
0007
7E00
0C01
1803
3003
3C00
0600
0600
060C
C607
7C0E
ENDCHAR
STARTCHAR U+04E2
ENCODING 1250
SWIDTH 508 0
DWIDTH 9 0
BBX 9 17 0 -2
BITMAP
0000
0000
7C00
0000
0000
C600
C600
C600
C600
C600
CE00
DE00
F600
E600
C600
0000
0000
ENDCHAR
STARTCHAR U+04E3
ENCODING 1251
SWIDTH 508 0
DWIDTH 9 0
BBX 9 17 0 -2
BITMAP
0000
0000
0000
0000
7C00
0000
0000
C600
C600
C600
CE00
DE00
F600
E600
C600
0000
0000
ENDCHAR
STARTCHAR U+04E4
ENCODING 1252
SWIDTH 508 0
DWIDTH 9 0
BBX 9 17 0 -2
BITMAP
0000
6C00
6C00
0000
0000
C600
C600
C600
C600
C600
CE00
DE00
F600
E600
C600
0000
0000
ENDCHAR
STARTCHAR U+04E5
ENCODING 1253
SWIDTH 508 0
DWIDTH 9 0
BBX 9 17 0 -2
BITMAP
0000
0000
0000
6C00
6C00
0000
0000
C600
C600
C600
CE00
DE00
F600
E600
C600
0000
0000
ENDCHAR
STARTCHAR U+04E6
ENCODING 1254
SWIDTH 508 0
DWIDTH 9 0
BBX 9 17 0 -2
BITMAP
0000
6C00
6C00
0000
0000
3C00
6600
C600
C600
C600
C600
C600
C600
C600
7C00
0000
0000
ENDCHAR
STARTCHAR U+04E7
ENCODING 1255
SWIDTH 508 0
DWIDTH 9 0
BBX 9 17 0 -2
BITMAP
0000
0000
0000
6C00
6C00
0000
0000
3C00
6600
C600
C600
C600
C600
C600
7C00
0000
0000
ENDCHAR
STARTCHAR U+04E8
ENCODING 1256
SWIDTH 508 0
DWIDTH 9 0
BBX 9 17 0 -2
BITMAP
0000
0000
0000
0000
0007
7C0C
C60C
C60C
C60F
FE0C
C60C
C60C
C60C
C607
7C00
0000
000E
ENDCHAR
STARTCHAR U+04E9
ENCODING 1257
SWIDTH 508 0
DWIDTH 9 0
BBX 9 17 0 -2
BITMAP
0000
0000
0000
0000
0000
0000
0007
7C0C
C60C
C60F
FE0C
C60C
C60C
C607
7C00
0000
000E
ENDCHAR
STARTCHAR U+04EA
ENCODING 1258
SWIDTH 508 0
DWIDTH 9 0
BBX 9 17 0 -2
BITMAP
0006
6C06
6C00
0000
0007
7C0C
C60C
C60C
C60F
FE0C
C60C
C60C
C60C
C607
7C00
0000
000E
ENDCHAR
STARTCHAR U+04EB
ENCODING 1259
SWIDTH 508 0
DWIDTH 9 0
BBX 9 17 0 -2
BITMAP
0000
0000
0006
6C06
6C00
0000
0007
7C0C
C60C
C60F
FE0C
C60C
C60C
C607
7C00
0000
000E
ENDCHAR
STARTCHAR U+04EC
ENCODING 1260
SWIDTH 508 0
DWIDTH 9 0
BBX 9 17 0 -2
BITMAP
0006
6C06
6C00
0000
0007
780C
CC00
0600
0607
7E00
0600
0600
060C
CC07
7800
0000
000E
ENDCHAR
STARTCHAR U+04ED
ENCODING 1261
SWIDTH 508 0
DWIDTH 9 0
BBX 9 17 0 -2
BITMAP
0000
0000
0006
6C06
6C00
0000
0007
780C
CC00
0607
7E00
0600
060C
CC07
7800
0000
000E
ENDCHAR
STARTCHAR U+04EE
ENCODING 1262
SWIDTH 508 0
DWIDTH 9 0
BBX 9 17 0 -2
BITMAP
0000
0000
7E00
0000
0000
C300
C300
6600
6600
3400
3C00
1800
1800
3000
7000
0000
0000
ENDCHAR
STARTCHAR U+04EF
ENCODING 1263
SWIDTH 508 0
DWIDTH 9 0
BBX 9 17 0 -2
BITMAP
0000
0000
0000
0007
7C00
0000
000C
C60C
C606
6C06
6C03
3803
3803
3003
3006
600E
E00E
ENDCHAR
STARTCHAR U+04F0
ENCODING 1264
SWIDTH 508 0
DWIDTH 9 0
BBX 9 17 0 -2
BITMAP
0000
6C00
6C00
0000
0000
C300
C300
6600
6600
3400
3C00
1800
1800
3000
7000
0000
0000
ENDCHAR
STARTCHAR U+04F1
ENCODING 1265
SWIDTH 508 0
DWIDTH 9 0
BBX 9 17 0 -2
BITMAP
0000
0000
0006
6C06
6C00
0000
000C
C60C
C606
6C06
6C03
3803
3803
3003
3006
600E
E00E
ENDCHAR
STARTCHAR U+04F2
ENCODING 1266
SWIDTH 508 0
DWIDTH 9 0
BBX 9 17 0 -2
BITMAP
0000
7700
CC00
0000
0000
C300
C300
6600
6600
3400
3C00
1800
1800
3000
7000
0000
0000
ENDCHAR
STARTCHAR U+04F3
ENCODING 1267
SWIDTH 508 0
DWIDTH 9 0
BBX 9 17 0 -2
BITMAP
0000
0000
0007
770C
CC00
0000
000C
C60C
C606
6C06
6C03
3803
3803
3003
3006
600E
E00E
ENDCHAR
STARTCHAR U+04F4
ENCODING 1268
SWIDTH 508 0
DWIDTH 9 0
BBX 9 17 0 -2
BITMAP
0000
6C00
6C00
0000
0000
C600
C600
C600
C600
C600
C600
7E00
0600
0600
0600
0000
0000
ENDCHAR
STARTCHAR U+04F5
ENCODING 1269
SWIDTH 508 0
DWIDTH 9 0
BBX 9 17 0 -2
BITMAP
0000
0000
0000
6C00
6C00
0000
0000
C600
C600
C600
C600
C600
7E00
0600
0600
0000
0000
ENDCHAR
STARTCHAR U+04F8
ENCODING 1272
SWIDTH 508 0
DWIDTH 9 0
BBX 9 17 0 -2
BITMAP
0000
6600
6600
0000
0000
C300
C300
C300
C300
F300
DB00
DB00
DB00
DB00
F300
0000
0000
ENDCHAR
STARTCHAR U+04F9
ENCODING 1273
SWIDTH 508 0
DWIDTH 9 0
BBX 9 17 0 -2
BITMAP
0000
0000
0000
6600
6600
0000
0000
C300
C300
C300
F300
DB00
DB00
DB00
F300
0000
0000
ENDCHAR
STARTCHAR U+0531
ENCODING 1329
SWIDTH 508 0
DWIDTH 9 0
BBX 9 17 0 -2
BITMAP
0000
0000
0000
0000
000C
CC0C
CC0C
CC0C
CC0C
CC0C
CC0C
CC0C
CF0C
CD07
7800
0000
000E
ENDCHAR
STARTCHAR U+0532
ENCODING 1330
SWIDTH 508 0
DWIDTH 9 0
BBX 9 17 0 -2
BITMAP
0000
0000
0000
0000
0007
7C0C
C60C
C60C
C00F
FC0C
C60C
C00C
C00C
C00C
C000
0000
000E
ENDCHAR
STARTCHAR U+0533
ENCODING 1331
SWIDTH 508 0
DWIDTH 9 0
BBX 9 17 0 -2
BITMAP
0000
0000
0000
0000
0007
780C
CC0C
CC0C
CC0C
CC07
7E00
0D00
0C00
0C00
0C00
0000
000E
ENDCHAR
STARTCHAR U+0534
ENCODING 1332
SWIDTH 508 0
DWIDTH 9 0
BBX 9 17 0 -2
BITMAP
0000
0000
0000
0000
0007
780C
CC0C
CC00
0C00
0C00
0E00
0D00
0C00
0C00
0C00
0000
000E
ENDCHAR
STARTCHAR U+0535
ENCODING 1333
SWIDTH 508 0
DWIDTH 9 0
BBX 9 17 0 -2
BITMAP
0000
0000
0000
0000
000C
C00C
C00F
FC0C
C60C
C00C
C00C
C00C
C60C
C607
7C00
0000
000E
ENDCHAR
STARTCHAR U+0536
ENCODING 1334
SWIDTH 508 0
DWIDTH 9 0
BBX 9 17 0 -2
BITMAP
0000
0000
0000
0000
0003
3C06
6606
6606
6606
6603
3C00
0C01
1803
300F
FC00
0600
000E
ENDCHAR
STARTCHAR U+0537
ENCODING 1335
SWIDTH 508 0
DWIDTH 9 0
BBX 9 17 0 -2
BITMAP
0000
0000
0000
0000
000C
C00C
C00C
C00F
FC0C
C60C
C00C
C00C
C00C
C00F
FC00
0600
000E
ENDCHAR
STARTCHAR U+0538
ENCODING 1336
SWIDTH 508 0
DWIDTH 9 0
BBX 9 17 0 -2
BITMAP
0000
0000
0000
0000
0007
7C0C
C60C
C60C
C00C
C00C
C00C
C00C
C00C
C00F
FC00
0600
000E
ENDCHAR
STARTCHAR U+0539
ENCODING 1337
SWIDTH 508 0
DWIDTH 9 0
BBX 9 17 0 -2
BITMAP
0000
0000
0000
0000
0007
780C
CC0C
CC0D
DF0D
D40D
D40D
D80C
C00C
C00C
C000
0000
000E
ENDCHAR
STARTCHAR U+053A
ENCODING 1338
SWIDTH 508 0
DWIDTH 9 0
BBX 9 17 0 -2
BITMAP
0000
0000
0000
0000
0000
0C00
0C00
0C00
0C07
7F0C
CC0C
CC0C
CC0C
CC07
7800
0000
000E
ENDCHAR
STARTCHAR U+053B
ENCODING 1339
SWIDTH 508 0
DWIDTH 9 0
BBX 9 17 0 -2
BITMAP
0000
0000
0000
0000
000C
C00C
C00D
DC0E
E60C
C60C
C00C
C00C
C00C
C00C
C000
0000
000E
ENDCHAR
STARTCHAR U+053C
ENCODING 1340
SWIDTH 508 0
DWIDTH 9 0
BBX 9 17 0 -2
BITMAP
0000
0000
0000
0000
000C
C00C
C00C
C00C
C00C
C00C
C00C
C00C
C00C
C00F
FC00
0600
000E
ENDCHAR
STARTCHAR U+053D
ENCODING 1341
SWIDTH 508 0
DWIDTH 9 0
BBX 9 17 0 -2
BITMAP
0000
0000
0000
0000
000C
C00C
C00C
C00F
FB0D
DB0D
DB0C
CE0C
C00C
C00C
C000
0000
000E
ENDCHAR
STARTCHAR U+053E
ENCODING 1342
SWIDTH 508 0
DWIDTH 9 0
BBX 9 17 0 -2
BITMAP
0000
0000
0000
0000
000F
FE03
3806
6C0C
C60C
C60C
C60C
C60C
C606
6C03
3800
0000
000E
ENDCHAR
STARTCHAR U+053F
ENCODING 1343
SWIDTH 508 0
DWIDTH 9 0
BBX 9 17 0 -2
BITMAP
0000
0000
0000
0000
000C
C60C
C60C
C60C
C60C
C60C
C60C
C607
7E00
0600
0600
0000
000E
ENDCHAR
STARTCHAR U+0540
ENCODING 1344
SWIDTH 508 0
DWIDTH 9 0
BBX 9 17 0 -2
BITMAP
0000
0000
0000
0000
0001
1803
3003
3001
1803
3006
600C
C00E
E003
3800
0E00
0000
000E
ENDCHAR
STARTCHAR U+0541
ENCODING 1345
SWIDTH 508 0
DWIDTH 9 0
BBX 9 17 0 -2
BITMAP
0000
0000
0000
0000
0003
3C06
6606
6606
6606
6603
3C06
6C0D
D80D
D807
7600
0000
000E
ENDCHAR
STARTCHAR U+0542
ENCODING 1346
SWIDTH 508 0
DWIDTH 9 0
BBX 9 17 0 -2
BITMAP
0000
0000
0000
0000
0007
780C
CC0C
CC00
0C00
0C00
0C00
0C00
0C00
0C00
0E00
0300
000E
ENDCHAR
STARTCHAR U+0543
ENCODING 1347
SWIDTH 508 0
DWIDTH 9 0
BBX 9 17 0 -2
BITMAP
0000
0000
0000
0000
0000
0C0E
EC03
3806
6C06
6C0C
C60C
C60C
C60C
C60F
FE00
0000
000E
ENDCHAR
STARTCHAR U+0544
ENCODING 1348
SWIDTH 508 0
DWIDTH 9 0
BBX 9 17 0 -2
BITMAP
0000
0000
0000
0000
000C
CF0C
CD0C
CC0C
CC0C
CC0C
CC0C
CC0C
CC0C
CC07
7800
0000
000E
ENDCHAR
STARTCHAR U+0545
ENCODING 1349
SWIDTH 508 0
DWIDTH 9 0
BBX 9 17 0 -2
BITMAP
0000
0000
0000
0000
0003
3C06
6600
060C
C60F
FC0C
C600
0600
0606
6603
3C00
0000
000E
ENDCHAR
STARTCHAR U+0546
ENCODING 1350
SWIDTH 508 0
DWIDTH 9 0
BBX 9 17 0 -2
BITMAP
0000
0000
0000
0000
000C
C007
7003
3003
3003
3003
3003
3003
3003
3303
3301
1E00
000E
ENDCHAR
STARTCHAR U+0547
ENCODING 1351
SWIDTH 508 0
DWIDTH 9 0
BBX 9 17 0 -2
BITMAP
0000
0000
0000
000C
C007
7C06
600C
C00C
C00C
C60C
C60C
C60C
C60C
C607
7C00
0000
000E
ENDCHAR
STARTCHAR U+0548
ENCODING 1352
SWIDTH 508 0
DWIDTH 9 0
BBX 9 17 0 -2
BITMAP
0000
0000
0000
0000
0007
7C0C
C60C
C60C
C60C
C60C
C60C
C60C
C60C
C60C
C600
0000
000E
ENDCHAR
STARTCHAR U+0549
ENCODING 1353
SWIDTH 508 0
DWIDTH 9 0
BBX 9 17 0 -2
BITMAP
0000
0000
0000
0000
0003
3C06
6606
6606
6606
6603
3C01
1801
1803
300F
FE00
0000
000E
ENDCHAR
STARTCHAR U+054A
ENCODING 1354
SWIDTH 508 0
DWIDTH 9 0
BBX 9 17 0 -2
BITMAP
0000
0000
0000
0000
0007
7E0D
DB0D
DB0D
DB0D
DB01
1B01
1B00
0300
0300
0300
0000
000E
ENDCHAR
STARTCHAR U+054B
ENCODING 1355
SWIDTH 508 0
DWIDTH 9 0
BBX 9 17 0 -2
BITMAP
0000
0000
0000
0000
0003
3C06
6606
6606
6606
6603
3401
1C01
1803
300F
FC00
0600
000E
ENDCHAR
STARTCHAR U+054C
ENCODING 1356
SWIDTH 508 0
DWIDTH 9 0
BBX 9 17 0 -2
BITMAP
0000
0000
0000
0000
0007
780C
CC0C
CC0C
CF0C
CD0C
CC0C
CC0C
CC0C
CC0C
CC00
0000
000E
ENDCHAR
STARTCHAR U+054D
ENCODING 1357
SWIDTH 508 0
DWIDTH 9 0
BBX 9 17 0 -2
BITMAP
0000
0000
0000
0000
000C
C60C
C60C
C60C
C60C
C60C
C60C
C60C
C60C
C607
7C00
0000
000E
ENDCHAR
STARTCHAR U+054E
ENCODING 1358
SWIDTH 508 0
DWIDTH 9 0
BBX 9 17 0 -2
BITMAP
0000
0000
0000
0000
000C
CC0C
CC0C
CC0C
CC0C
CC0C
CC0C
CC07
7C00
0C00
0E00
0300
000E
ENDCHAR
STARTCHAR U+054F
ENCODING 1359
SWIDTH 508 0
DWIDTH 9 0
BBX 9 17 0 -2
BITMAP
0000
0000
0000
0000
0007
7C0C
C60C
C60C
C007
7001
1C00
060C
C60C
C607
7C00
0000
000E
ENDCHAR
STARTCHAR U+0550
ENCODING 1360
SWIDTH 508 0
DWIDTH 9 0
BBX 9 17 0 -2
BITMAP
0000
0000
0000
0000
0007
7C0C
C60C
C60C
C00C
C00C
C00C
C00C
C00C
C00C
C000
0000
000E
ENDCHAR
STARTCHAR U+0551
ENCODING 1361
SWIDTH 508 0
DWIDTH 9 0
BBX 9 17 0 -2
BITMAP
0000
0000
0000
0000
0007
7C0C
C60C
C60C
C607
7C0C
C600
0600
060C
C607
7C00
0000
000E
ENDCHAR
STARTCHAR U+0552
ENCODING 1362
SWIDTH 508 0
DWIDTH 9 0
BBX 9 17 0 -2
BITMAP
0000
0000
0000
0000
000C
C00C
C00D
D80E
EC0C
CC0C
CC0C
C70C
C00C
C00C
C000
0000
000E
ENDCHAR
STARTCHAR U+0553
ENCODING 1363
SWIDTH 508 0
DWIDTH 9 0
BBX 9 17 0 -2
BITMAP
0000
0000
0000
0000
0003
3007
780D
D40D
D40D
D40D
D40D
D40D
D407
7803
3000
0000
000E
ENDCHAR
STARTCHAR U+0554
ENCODING 1364
SWIDTH 508 0
DWIDTH 9 0
BBX 9 17 0 -2
BITMAP
0000
0000
0000
0000
0001
1C03
3603
3603
3603
3C03
300F
FC03
3003
3003
3000
0000
000E
ENDCHAR
STARTCHAR U+0555
ENCODING 1365
SWIDTH 508 0
DWIDTH 9 0
BBX 9 17 0 -2
BITMAP
0000
0000
0000
0000
0007
7C0C
C60C
C60C
C60C
C60C
C60C
C60C
C60C
C607
7C00
0000
000E
ENDCHAR
STARTCHAR U+0556
ENCODING 1366
SWIDTH 508 0
DWIDTH 9 0
BBX 9 17 0 -2
BITMAP
0000
0000
0000
0000
0007
780D
D80D
D807
7801
1E01
1B01
1B01
1B0D
DB07
7E00
0000
000E
ENDCHAR
STARTCHAR U+0559
ENCODING 1369
SWIDTH 508 0
DWIDTH 9 0
BBX 9 17 0 -2
BITMAP
0003
3006
6006
6003
3000
0000
0000
0000
0000
0000
0000
0000
0000
0000
0000
0000
000E
ENDCHAR
STARTCHAR U+055A
ENCODING 1370
SWIDTH 508 0
DWIDTH 9 0
BBX 9 17 0 -2
BITMAP
0006
6003
3003
3006
6000
0000
0000
0000
0000
0000
0000
0000
0000
0000
0000
0000
000E
ENDCHAR
STARTCHAR U+055B
ENCODING 1371
SWIDTH 508 0
DWIDTH 9 0
BBX 9 17 0 -2
BITMAP
0001
1803
3807
7000
0000
0000
0000
0000
0000
0000
0000
0000
0000
0000
0000
0000
000E
ENDCHAR
STARTCHAR U+055C
ENCODING 1372
SWIDTH 508 0
DWIDTH 9 0
BBX 9 17 0 -2
BITMAP
0001
1C07
7000
0000
0000
0000
0000
0000
0000
0000
0000
0000
0000
0000
0000
0000
000E
ENDCHAR
STARTCHAR U+055D
ENCODING 1373
SWIDTH 508 0
DWIDTH 9 0
BBX 9 17 0 -2
BITMAP
0006
6003
3001
1800
0000
0000
0000
0000
0000
0000
0000
0000
0000
0000
0000
0000
000E
ENDCHAR
STARTCHAR U+055E
ENCODING 1374
SWIDTH 508 0
DWIDTH 9 0
BBX 9 17 0 -2
BITMAP
0007
780C
CC0D
D403
3800
0000
0000
0000
0000
0000
0000
0000
0000
0000
0000
0000
000E
ENDCHAR
STARTCHAR U+055F
ENCODING 1375
SWIDTH 508 0
DWIDTH 9 0
BBX 9 17 0 -2
BITMAP
0007
700D
D00C
C007
7C00
0000
0000
0000
0000
0000
0000
0000
0000
0000
0000
0000
000E
ENDCHAR
STARTCHAR U+0561
ENCODING 1377
SWIDTH 508 0
DWIDTH 9 0
BBX 9 17 0 -2
BITMAP
0000
0000
0000
0000
0000
0000
000D
DB0D
DB0D
DB0D
DB0D
DB0D
DB0D
DB07
7700
0000
000E
ENDCHAR
STARTCHAR U+0562
ENCODING 1378
SWIDTH 508 0
DWIDTH 9 0
BBX 9 17 0 -2
BITMAP
0000
0000
0000
0000
0000
0000
0000
000D
DC0E
E60C
C60C
C60C
C00F
FE0C
C00C
C00C
C00E
ENDCHAR
STARTCHAR U+0563
ENCODING 1379
SWIDTH 508 0
DWIDTH 9 0
BBX 9 17 0 -2
BITMAP
0000
0000
0000
0000
0000
0000
0007
740D
DC0C
CC0C
CC0C
CC0C
CC07
7F00
0C00
0C00
0C0E
ENDCHAR
STARTCHAR U+0564
ENCODING 1380
SWIDTH 508 0
DWIDTH 9 0
BBX 9 17 0 -2
BITMAP
0000
0000
0000
0000
0000
0000
000D
D80E
EC0C
CC0C
CC0C
CC0C
CC0C
CC0C
CF00
0C00
0C0E
ENDCHAR
STARTCHAR U+0565
ENCODING 1381
SWIDTH 508 0
DWIDTH 9 0
BBX 9 17 0 -2
BITMAP
0000
0000
0000
0000
0000
000C
C00C
C00C
C00F
FE0C
C00C
C60C
C60E
E60D
DC00
0000
000E
ENDCHAR
STARTCHAR U+0566
ENCODING 1382
SWIDTH 508 0
DWIDTH 9 0
BBX 9 17 0 -2
BITMAP
0000
0000
0000
0000
0000
0000
0007
740D
DC0C
CC0C
CC0C
CC0C
CC07
7C00
0C00
0C00
0F0E
ENDCHAR
STARTCHAR U+0567
ENCODING 1383
SWIDTH 508 0
DWIDTH 9 0
BBX 9 17 0 -2
BITMAP
0000
0000
0000
0000
000C
C00C
C00F
FC0C
C00C
C00C
C00C
C00C
C00C
C007
7800
0C00
000E
ENDCHAR
STARTCHAR U+0568
ENCODING 1384
SWIDTH 508 0
DWIDTH 9 0
BBX 9 17 0 -2
BITMAP
0000
0000
0000
0000
0000
0000
000D
DC0E
E60C
C60C
C60C
C60C
C60C
C60C
C60C
C00F
FE0E
ENDCHAR
STARTCHAR U+0569
ENCODING 1385
SWIDTH 508 0
DWIDTH 9 0
BBX 9 17 0 -2
BITMAP
0000
0000
0000
0000
0000
0000
000D
D80E
EC0C
CC0D
DF0D
D40D
D40D
D80C
C00C
C00C
C00E
ENDCHAR
STARTCHAR U+056A
ENCODING 1386
SWIDTH 508 0
DWIDTH 9 0
BBX 9 17 0 -2
BITMAP
0000
0000
0000
0000
0000
0C00
0C00
0C07
7F0C
CC0C
CC0C
CC0C
CC0C
CC07
7800
0000
000E
ENDCHAR
STARTCHAR U+056B
ENCODING 1387
SWIDTH 508 0
DWIDTH 9 0
BBX 9 17 0 -2
BITMAP
0000
0000
0000
0000
000C
C00C
C00D
DC0E
E60C
C60C
C60C
C60C
C60C
C60C
C60C
C00C
C00E
ENDCHAR
STARTCHAR U+056C
ENCODING 1388
SWIDTH 508 0
DWIDTH 9 0
BBX 9 17 0 -2
BITMAP
0000
0000
0000
0000
0000
0000
000C
C00C
C00C
C00C
C00C
C00C
C00C
C00C
C00C
C00F
FC0E
ENDCHAR
STARTCHAR U+056D
ENCODING 1389
SWIDTH 508 0
DWIDTH 9 0
BBX 9 17 0 -2
BITMAP
0000
0000
0000
0000
000C
C00C
C00C
C00F
FB0D
DB0D
DB0D
DB0D
DB0C
CE0C
C00C
C00C
C00E
ENDCHAR
STARTCHAR U+056E
ENCODING 1390
SWIDTH 508 0
DWIDTH 9 0
BBX 9 17 0 -2
BITMAP
0000
0000
0000
0000
000F
F001
1800
0C07
7F0C
CC0C
CC0C
CC0C
CC0C
CC07
7800
0000
000E
ENDCHAR
STARTCHAR U+056F
ENCODING 1391
SWIDTH 508 0
DWIDTH 9 0
BBX 9 17 0 -2
BITMAP
0000
0000
0000
0000
000C
C00C
C00C
C60C
C60C
C60C
C60C
C60C
C60C
C607
7E00
0600
060E
ENDCHAR
STARTCHAR U+0570
ENCODING 1392
SWIDTH 508 0
DWIDTH 9 0
BBX 9 17 0 -2
BITMAP
0000
0000
0000
0000
000C
C00C
C00C
C00D
DC0E
E60C
C60C
C60C
C60C
C60C
C600
0000
000E
ENDCHAR
STARTCHAR U+0571
ENCODING 1393
SWIDTH 508 0
DWIDTH 9 0
BBX 9 17 0 -2
BITMAP
0000
0000
0000
0000
0001
1803
3001
1807
7E0C
C60C
C60C
C60C
C60C
C607
7E00
0000
000E
ENDCHAR
STARTCHAR U+0572
ENCODING 1394
SWIDTH 508 0
DWIDTH 9 0
BBX 9 17 0 -2
BITMAP
0000
0000
0000
0000
0000
0000
000D
D80E
EC0C
CC0C
CC0C
CC0C
CC0C
CC0C
CC00
0C00
0F0E
ENDCHAR
STARTCHAR U+0573
ENCODING 1395
SWIDTH 508 0
DWIDTH 9 0
BBX 9 17 0 -2
BITMAP
0000
0000
0000
0000
0001
1E03
3303
300F
FF03
3303
3303
3303
3303
3701
1D00
0000
000E
ENDCHAR
STARTCHAR U+0574
ENCODING 1396
SWIDTH 508 0
DWIDTH 9 0
BBX 9 17 0 -2
BITMAP
0000
0000
0000
0000
0000
0600
0D00
0C0C
CC0C
CC0C
CC0C
CC0C
CC0D
DC07
7400
0000
000E
ENDCHAR
STARTCHAR U+0575
ENCODING 1397
SWIDTH 508 0
DWIDTH 9 0
BBX 9 17 0 -2
BITMAP
0000
0000
0000
0000
0000
0000
0001
1C00
0C00
0C00
0C00
0C00
0C00
0C00
0C0D
D807
700E
ENDCHAR
STARTCHAR U+0576
ENCODING 1398
SWIDTH 508 0
DWIDTH 9 0
BBX 9 17 0 -2
BITMAP
0000
0000
0000
0000
0007
7C0C
C60C
C00C
C60C
C60C
C60C
C60C
C60C
CE07
7A00
0000
000E
ENDCHAR
STARTCHAR U+0577
ENCODING 1399
SWIDTH 508 0
DWIDTH 9 0
BBX 9 17 0 -2
BITMAP
0000
0000
0000
0000
0007
780C
CC00
0C01
1801
1803
3003
3006
6006
6007
7F00
0000
000E
ENDCHAR
STARTCHAR U+0578
ENCODING 1400
SWIDTH 508 0
DWIDTH 9 0
BBX 9 17 0 -2
BITMAP
0000
0000
0000
0000
0000
0000
000D
DC0E
E60C
C60C
C60C
C60C
C60C
C60C
C600
0000
000E
ENDCHAR
STARTCHAR U+0579
ENCODING 1401
SWIDTH 508 0
DWIDTH 9 0
BBX 9 17 0 -2
BITMAP
0000
0000
0000
0000
0003
3006
6003
3001
1801
1803
3003
3006
6006
6007
7F00
0000
000E
ENDCHAR
STARTCHAR U+057A
ENCODING 1402
SWIDTH 508 0
DWIDTH 9 0
BBX 9 17 0 -2
BITMAP
0000
0000
0000
0000
0000
0000
000D
DB0D
DB0D
DB0D
DB0D
DB0D
DB0D
DB07
7700
0300
030E
ENDCHAR
STARTCHAR U+057B
ENCODING 1403
SWIDTH 508 0
DWIDTH 9 0
BBX 9 17 0 -2
BITMAP
0000
0000
0000
0000
0007
780C
CC0C
CC0D
D806
6803
3003
3006
6006
6007
7F00
0000
000E
ENDCHAR
STARTCHAR U+057C
ENCODING 1404
SWIDTH 508 0
DWIDTH 9 0
BBX 9 17 0 -2
BITMAP
0000
0000
0000
0000
0000
0000
000D
D80E
EC0C
CC0C
CC0C
CC0C
CC0C
CC0C
CF00
0000
000E
ENDCHAR
STARTCHAR U+057D
ENCODING 1405
SWIDTH 508 0
DWIDTH 9 0
BBX 9 17 0 -2
BITMAP
0000
0000
0000
0000
0000
0000
000C
C60C
C60C
C60C
C60C
C60C
C60C
CE07
7A00
0000
000E
ENDCHAR
STARTCHAR U+057E
ENCODING 1406
SWIDTH 508 0
DWIDTH 9 0
BBX 9 17 0 -2
BITMAP
0000
0000
0000
0000
0000
0C00
0C00
0C0C
CC0C
CC0C
CC0C
CC0C
CC0D
DC07
7400
0C00
0F0E
ENDCHAR
STARTCHAR U+057F
ENCODING 1407
SWIDTH 508 0
DWIDTH 9 0
BBX 9 17 0 -2
BITMAP
0000
0000
0000
0000
0000
0000
000D
DA0D
DD0D
DB0D
DB0D
DB0D
DB0D
DB06
6B00
0000
000E
ENDCHAR
STARTCHAR U+0580
ENCODING 1408
SWIDTH 508 0
DWIDTH 9 0
BBX 9 17 0 -2
BITMAP
0000
0000
0000
0000
0000
0000
000D
DC0E
E60C
C60C
C60C
C60C
C60C
C60C
C60C
C00C
C00E
ENDCHAR
STARTCHAR U+0581
ENCODING 1409
SWIDTH 508 0
DWIDTH 9 0
BBX 9 17 0 -2
BITMAP
0000
0000
0000
0000
0000
0000
0007
7A0C
CE0C
C60C
C60C
C60C
CE07
7A00
060C
C607
7C0E
ENDCHAR
STARTCHAR U+0582
ENCODING 1410
SWIDTH 508 0
DWIDTH 9 0
BBX 9 17 0 -2
BITMAP
0000
0000
0000
0000
0000
0000
0003
3801
1801
1801
1801
1801
1801
1801
1E00
0000
000E
ENDCHAR
STARTCHAR U+0583
ENCODING 1411
SWIDTH 508 0
DWIDTH 9 0
BBX 9 17 0 -2
BITMAP
0000
0000
0000
0000
0001
1801
180D
DA0D
DD0D
DB0D
DB0D
DB0D
DB0D
DB06
6B01
1801
180E
ENDCHAR
STARTCHAR U+0584
ENCODING 1412
SWIDTH 508 0
DWIDTH 9 0
BBX 9 17 0 -2
BITMAP
0000
0000
0000
0001
1E03
3303
3003
300F
FC03
3003
3003
3003
3003
3003
3000
0000
000E
ENDCHAR
STARTCHAR U+0585
ENCODING 1413
SWIDTH 508 0
DWIDTH 9 0
BBX 9 17 0 -2
BITMAP
0000
0000
0000
0000
0000
0000
0007
7C0C
C60C
C60C
C60C
C60C
C60C
C607
7C00
0000
000E
ENDCHAR
STARTCHAR U+0586
ENCODING 1414
SWIDTH 508 0
DWIDTH 9 0
BBX 9 17 0 -2
BITMAP
0000
0000
0000
0000
0007
780D
D80D
D807
7801
1E01
1B01
1B01
1B0D
DB07
7E01
1801
180E
ENDCHAR
STARTCHAR U+0587
ENCODING 1415
SWIDTH 508 0
DWIDTH 9 0
BBX 9 17 0 -2
BITMAP
0000
0000
0000
0000
000C
C00C
C00C
C00C
CC0C
CC0C
CC0C
CC0C
CC0C
CC07
7B00
0000
000E
ENDCHAR
STARTCHAR U+0589
ENCODING 1417
SWIDTH 508 0
DWIDTH 9 0
BBX 9 17 0 -2
BITMAP
0000
0000
0000
0000
0000
0000
0003
3803
3800
0000
0000
0003
3803
3800
0000
0000
000E
ENDCHAR
STARTCHAR U+058A
ENCODING 1418
SWIDTH 508 0
DWIDTH 9 0
BBX 9 17 0 -2
BITMAP
0000
0000
0000
0000
0000
0000
0000
0000
0000
0000
0000
0000
000E
E607
7C00
0000
000E
ENDCHAR
STARTCHAR U+0591
ENCODING 1425
SWIDTH 508 0
DWIDTH 9 0
BBX 9 17 0 -2
BITMAP
0000
0000
0000
0000
0000
0000
0000
0000
0000
0000
0000
0001
1801
1803
3C06
6600
000E
ENDCHAR
STARTCHAR U+0592
ENCODING 1426
SWIDTH 508 0
DWIDTH 9 0
BBX 9 17 0 -2
BITMAP
0000
0000
0003
3800
000E
EE00
0000
0000
0000
0000
0000
0000
0000
0000
0000
0000
000E
ENDCHAR
STARTCHAR U+0593
ENCODING 1427
SWIDTH 508 0
DWIDTH 9 0
BBX 9 17 0 -2
BITMAP
0001
1C07
7001
1C07
7001
1C07
7000
0000
0000
0000
0000
0000
0000
0000
0000
0000
000E
ENDCHAR
STARTCHAR U+0594
ENCODING 1428
SWIDTH 508 0
DWIDTH 9 0
BBX 9 17 0 -2
BITMAP
0000
0003
3800
0003
3800
0000
0000
0000
0000
0000
0000
0000
0000
0000
0000
0000
000E
ENDCHAR
STARTCHAR U+0595
ENCODING 1429
SWIDTH 508 0
DWIDTH 9 0
BBX 9 17 0 -2
BITMAP
0000
0006
6C06
6006
6C00
0000
0000
0000
0000
0000
0000
0000
0000
0000
0000
0000
000E
ENDCHAR
STARTCHAR U+0596
ENCODING 1430
SWIDTH 508 0
DWIDTH 9 0
BBX 9 17 0 -2
BITMAP
0000
0000
0000
0000
0000
0000
0000
0000
0000
0000
0000
0000
0003
3003
3001
1C00
000E
ENDCHAR
STARTCHAR U+0597
ENCODING 1431
SWIDTH 508 0
DWIDTH 9 0
BBX 9 17 0 -2
BITMAP
0001
1803
3C07
7E03
3C01
1800
0000
0000
0000
0000
0000
0000
0000
0000
0000
0000
000E
ENDCHAR
STARTCHAR U+0598
ENCODING 1432
SWIDTH 508 0
DWIDTH 9 0
BBX 9 17 0 -2
BITMAP
0000
0006
6C0D
D60D
DA06
6C00
0000
0000
0000
0000
0000
0000
0000
0000
0000
0000
000E
ENDCHAR
STARTCHAR U+0599
ENCODING 1433
SWIDTH 508 0
DWIDTH 9 0
BBX 9 17 0 -2
BITMAP
0000
0000
000C
C006
6006
6000
0000
0000
0000
0000
0000
0000
0000
0000
0000
0000
000E
ENDCHAR
STARTCHAR U+059A
ENCODING 1434
SWIDTH 508 0
DWIDTH 9 0
BBX 9 17 0 -2
BITMAP
0000
0000
0000
0000
0000
0000
0000
0000
0000
0000
0000
0000
0000
0600
0C00
0600
000E
ENDCHAR
STARTCHAR U+059B
ENCODING 1435
SWIDTH 508 0
DWIDTH 9 0
BBX 9 17 0 -2
BITMAP
0000
0000
0000
0000
0000
0000
0000
0000
0000
0000
0000
0000
000E
E80E
E801
180F
F00E
ENDCHAR
STARTCHAR U+059C
ENCODING 1436
SWIDTH 508 0
DWIDTH 9 0
BBX 9 17 0 -2
BITMAP
0000
0001
1C03
3003
3000
0000
0000
0000
0000
0000
0000
0000
0000
0000
0000
0000
000E
ENDCHAR
ENDFONT
